<svg xmlns="http://www.w3.org/2000/svg"
    xmlns:xlink="http://www.w3.org/1999/xlink"
    version="1.1"
    id="logo_head_default_svg"
    x="0px" y="0px"
    width="168px" height="72px"
    viewBox="0 0 168 72"
    enable-background="new 0 0 168 72"
xml:space="preserve">
  <path class="and" fill="#333333" d="M72.915 44.408H61.099V33.129h11.816V21.447h11.682v11.682h11.816v11.279H84.596v11.682H72.915V44.408z"/>
  <path class="r1" fill="#333333" d="M54.756 62.4H41.731V48.167h-5.774L26.491 62.4H11.52l11.212-16.381c-5.841-2.484-9.668-7.251-9.668-14.501v-0.134c0-4.633 1.41-8.191 4.162-10.944 3.155-3.155 8.124-5.035 15.307-5.035h22.222V62.4zM41.731 37.962V26.616h-8.593c-4.297 0-7.049 1.88-7.049 5.639v0.134c0 3.424 2.619 5.572 6.982 5.572H41.731z"/>
  <path class="r2" fill="#333333" d="M102.754 15.405h22.223c7.184 0 12.151 1.88 15.307 5.035 2.752 2.753 4.162 6.311 4.162 10.944v0.134c0 7.251-3.826 12.017-9.668 14.501L145.991 62.4h-14.972l-9.466-14.233h-5.774V62.4h-13.025V15.405zM124.44 37.962c4.364 0 6.982-2.148 6.982-5.572v-0.134c0-3.76-2.753-5.639-7.049-5.639h-8.593v11.346H124.44z"/>
  <path class="r3" fill="#333333" d="M152.972 18.095h-0.683v-2.352h-1.73l-1.755 2.352h-0.839l1.859-2.473c-0.951-0.173-1.643-0.761-1.643-1.764V13.84c0-0.475 0.173-0.899 0.467-1.193 0.381-0.381 0.977-0.605 1.721-0.605h2.603V18.095zM152.289 15.129v-2.456h-1.868c-0.977 0-1.548 0.45-1.548 1.194v0.017c0 0.778 0.649 1.245 1.557 1.245H152.289zM150.651 20.537c-3.015 0-5.468-2.453-5.468-5.468s2.453-5.468 5.468-5.468c3.015 0 5.468 2.453 5.468 5.468S153.667 20.537 150.651 20.537zM150.651 10.283c-2.638 0-4.785 2.147-4.785 4.785s2.147 4.785 4.785 4.785 4.785-2.147 4.785-4.785S153.29 10.283 150.651 10.283z"/>
</svg>
