<?xml version="1.0" standalone="no"?>
<!DOCTYPE svg PUBLIC "-//W3C//DTD SVG 1.1//EN" "http://www.w3.org/Graphics/SVG/1.1/DTD/svg11.dtd" >
<svg xmlns="http://www.w3.org/2000/svg">
<metadata>
Created by FontPrep 20130207 at Thu May 28 18:23:12 2015
 By Rezki Bangsawan
PDF-X by gtwsk. 2009. Published by Die Gestalten Verlag GmbH &#38; Co. KG, 2008. Copyright  by Binnenland and re-p.org, 2008. All rights reserved. This software may not be reproduced, used, displayed, modified, disclosed or transferred without the express written approval of (Binn)
</metadata>
<defs>
<font id="3e9cf8e3f8811623790cef680cb34185" horiz-adv-x='1024' >
  <font-face 
    font-family="BlenderPro-Heavy"
    font-weight="900"
    font-stretch="normal"
    units-per-em="2048"
    panose-1="2 0 5 6 3 0 0 2 0 4"
    ascent="1638"
    descent="-410"
    x-height="1229"
    cap-height="1229"
    bbox="-170 -426 2304 1710"
    underline-thickness="102"
    underline-position="-102"
    unicode-range="U+0020-FB02"
  />
<missing-glyph horiz-adv-x="2007" 
 />
    <glyph glyph-name=".notdef" horiz-adv-x="2007" 
 />
    <glyph glyph-name=".null" horiz-adv-x="0" 
 />
    <glyph glyph-name="nonmarkingreturn" horiz-adv-x="681" 
 />
    <glyph glyph-name="space" unicode=" " horiz-adv-x="491" 
 />
    <glyph glyph-name="exclam" unicode="!" horiz-adv-x="622" 
d="M395 0h-258v254h258v-254zM389 342h-248v889h248v-889z" />
    <glyph glyph-name="numbersign" unicode="#" horiz-adv-x="1099" 
d="M555 653h-78q-10 -70 -18 -98h82q2 16 7 49t7 49zM594 862l35 182h239l-32 -182h165l-43 -231h-163q-1 -10 -7 -33t-8 -35h166l-41 -229h-166q-37 -190 -37 -191h-241l37 191h-70q-37 -190 -37 -191h-239l32 191h-164l41 229h166q2 10 6 34t7 34h-166l41 231h166l34 182
h242l-35 -182h72z" />
    <glyph glyph-name="dollar" unicode="$" horiz-adv-x="1202" 
d="M332 924v-109l6 -12l520 -141q80 -23 125 -91t45 -147v-117q0 -74 -29 -117t-77 -92q-105 -106 -215 -106h-39v-232h-240v232h-37q-137 0 -270 174q-39 49 -78 156l236 75q8 -25 14 -35q43 -92 104 -131h303q24 14 50 44t26 32v111l-6 12q-74 20 -249 68t-263 70
q-88 24 -132 92t-44 147v113q0 78 26 118t77 88q50 48 83 70q70 39 133 39h27v217h240v-217h18q133 0 268 -172q39 -49 80 -158l-239 -67q-10 23 -15 28q-47 86 -102 129h-270q-26 -15 -51 -42t-25 -29z" />
    <glyph glyph-name="percent" unicode="%" horiz-adv-x="1753" 
d="M434 975q0 14 -22 32q-22 19 -29 19h-68q-17 0 -51 -41l-2 -10v-195q0 -4 18 -26t35 -23h68q7 1 25 15t24 24l2 10v195zM637 741q0 -67 -31 -107q-86 -113 -196 -112h-119q-110 0 -199 115q-29 39 -29 104v275q0 66 32 108q86 112 196 111h119q110 0 198 -115
q29 -39 29 -104v-275zM1407 438q0 15 -41 49q-2 2 -10 2h-68q-16 0 -51 -40l-2 -11v-194q0 -4 18 -26t35 -23h68q8 1 26 15t23 23l2 11v194zM1610 205q0 -66 -31 -107q-85 -112 -197 -112h-118q-108 0 -199 114q-29 39 -29 105v274q0 66 32 108q86 113 196 111h118
q112 0 199 -114q29 -39 29 -105v-274zM1300 1229l-671 -1229h-258l676 1229h253z" />
    <glyph glyph-name="ampersand" unicode="&#x26;" horiz-adv-x="1200" 
d="M684 231q8 -1 28 15t29 35v335h306v-229h-56v-104q0 -71 -47 -139q-107 -154 -260 -154h-309q-86 0 -154 47q-23 16 -59 54t-49 59q-41 57 -41 133v157q0 94 73 172q-74 82 -73 172v156q0 105 91 193q36 35 58 51q76 53 154 53h182q158 0 268 -174q35 -53 47 -88
l-227 -64q-30 60 -80 80l-14 6h-176q-5 0 -25 -22t-28 -35v-158q10 -20 28 -38t25 -19h223v-231h-223q-3 0 -23 -18t-30 -36v-157q26 -38 53 -52h309z" />
    <glyph glyph-name="parenleft" unicode="(" horiz-adv-x="727" 
d="M53 303v617q0 72 35 127q31 41 80 88l227 211l164 -170l-227 -215q-37 -33 -37 -43v-613q0 -10 37 -43l227 -215l-164 -170l-227 211q-49 47 -80 88q-35 55 -35 127z" />
    <glyph glyph-name="parenright" unicode=")" horiz-adv-x="733" 
d="M330 305v613q0 10 -37 43l-227 215l163 170l228 -211q49 -47 80 -88q35 -55 34 -127v-617q0 -72 -34 -127q-31 -41 -80 -88l-228 -211l-163 170l227 215q37 33 37 43z" />
    <glyph glyph-name="asterisk" unicode="*" horiz-adv-x="958" 
d="M791 954l-168 -53l106 -139l-190 -139l-103 143l-100 -143l-191 139l105 139l-168 51l74 226l166 -58l-5 176h236l-4 -176l168 60z" />
    <glyph glyph-name="plus" unicode="+" horiz-adv-x="1077" 
d="M895 393h-283v-276h-239v276h-283v234h283v280h239v-280h283v-234z" />
    <glyph glyph-name="comma" unicode="," horiz-adv-x="638" 
d="M453 186l-164 -356h-273l201 428z" />
    <glyph glyph-name="hyphen" unicode="-" horiz-adv-x="782" 
d="M606 391h-530v232h530v-232z" />
    <glyph glyph-name="period" unicode="." horiz-adv-x="579" 
d="M385 0h-289v291h289v-291z" />
    <glyph glyph-name="slash" unicode="/" horiz-adv-x="894" 
d="M874 1229l-671 -1229h-271l674 1229h268z" />
    <glyph glyph-name="zero" unicode="0" 
d="M670 305v617q-27 49 -72 75h-231q-45 -33 -76 -77v-615q37 -55 74 -76h231q39 25 74 76zM920 305q0 -76 -29 -117t-77 -90t-81 -69h2q-66 -39 -133 -39h-242q-70 0 -118 28t-96 79q-48 50 -76 91t-29 117v617q0 78 29 119q28 41 76 89t96 78q48 29 118 29h242
q68 0 133 -39h-2q33 -18 80 -66t77 -90t30 -120v-617z" />
    <glyph glyph-name="one" unicode="1" 
d="M674 0h-252v985h-221v244h473v-1229z" />
    <glyph glyph-name="two" unicode="2" 
d="M373 1237h235q80 0 140 -41t122 -121q37 -49 37 -133v-129q0 -80 -45 -141q-46 -61 -114 -94t-205 -102t-207 -101q-18 -10 -19 -19v-116h574v-240h-823v362q0 76 45 136t113 95q68 33 209 103q140 70 210 103q12 6 12 20v127q-10 18 -26 34t-23 17h-231q-66 -37 -86 -84
l-240 60q25 59 51 94q127 170 271 170z" />
    <glyph glyph-name="three" unicode="3" 
d="M909 287q0 -78 -39 -135q-14 -23 -52 -61t-60 -54q-68 -47 -150 -47h-235q-143 0 -271 172q-27 37 -51 94l244 66q27 -61 82 -93h229q6 1 24 17t29 37v168q-10 20 -27 36t-26 17h-276v233h278q6 1 24 17t27 37v151q-12 20 -30 38t-23 17h-229q-61 -29 -86 -84l-60 15
q-59 14 -120 30l-60 15q18 51 51 94q133 170 271 170h235q137 -1 251 -147q50 -64 50 -148v-154q0 -88 -71 -167q72 -84 71 -172v-162z" />
    <glyph glyph-name="four" unicode="4" 
d="M530 477v365q-99 -159 -235 -365h235zM924 238h-142v-238h-252v238h-530v190l514 801h268v-752h142v-239z" />
    <glyph glyph-name="five" unicode="5" 
d="M907 287q0 -132 -147 -250q-66 -47 -158 -47h-237q-145 0 -273 172q-27 35 -47 94l244 66q25 -57 80 -91h235q33 20 53 54v207q-12 20 -59 57h-506v680h758v-242h-506v-199h258q88 0 158 -49q66 -51 108 -108q39 -59 39 -135v-209z" />
    <glyph glyph-name="six" unicode="6" 
d="M602 229q6 -1 24 15t27 35v237q-10 18 -29 36t-26 19h-229q-16 0 -25 -4q-37 -30 -53 -57v-227q10 -17 28 -35t25 -19h258zM41 940q0 78 39 135q14 23 52 61t61 54q68 47 149 47h236q84 0 156 -52q108 -78 165 -214l-242 -66q-33 74 -86 92h-227q-6 0 -23 -16t-30 -35
v-176q4 0 12 8q53 31 80 31h219q86 0 150 -45q24 -16 62 -54t50 -59q39 -57 39 -133v-233q0 -76 -35 -128t-116 -118q-70 -49 -150 -49h-260q-80 0 -149 49q-25 18 -63 55t-50 58q-39 53 -39 131v657z" />
    <glyph glyph-name="seven" unicode="7" 
d="M78 989v240h844v-189l-508 -1040h-285l498 989h-549z" />
    <glyph glyph-name="eight" unicode="8" 
d="M606 997h-254q-6 0 -24 -16t-29 -35v-158q9 -20 27 -36t24 -17h258q6 -1 24 17t27 36v156q-12 20 -29 36t-24 17zM350 502q-6 0 -23 -18t-28 -38v-163q11 -17 29 -35t24 -19h254q6 0 25 17q18 17 28 35v165q-10 20 -27 38t-24 18h-258zM909 287q0 -78 -39 -135
q-14 -23 -52 -61t-60 -54q-68 -47 -150 -47h-258q-86 0 -154 52q-146 111 -147 245v164q0 96 72 172q-72 80 -72 168v151q0 74 35 127t117 119q70 49 149 49h258q80 0 140 -41t122 -121q39 -59 39 -133v-151q0 -88 -71 -168q72 -84 71 -172v-164z" />
    <glyph glyph-name="nine" unicode="9" 
d="M600 997h-258q-6 0 -24 -15t-27 -34v-237q9 -19 29 -37t26 -19h229q16 0 25 4q37 31 53 58v227q-10 18 -28 36t-25 17zM903 287q0 -78 -39 -135q-14 -23 -52 -61t-60 -54q-68 -47 -150 -47h-235q-84 0 -156 52q-108 78 -166 214l242 66q33 -74 86 -93h227q6 1 24 17
t29 35v176q-4 0 -12 -8q-53 -31 -80 -31h-219q-86 0 -149 45q-23 16 -62 54t-51 58q-39 57 -39 134v233q0 74 35 127t117 119q70 49 149 49h260q80 0 150 -49q24 -18 62 -55t50 -58q39 -53 39 -131v-657z" />
    <glyph glyph-name="colon" unicode=":" horiz-adv-x="616" 
d="M397 0h-293v297h293v-297zM397 504h-293v297h293v-297z" />
    <glyph glyph-name="semicolon" unicode=";" horiz-adv-x="630" 
d="M406 502h-293v301h293v-301zM440 217l-161 -381h-273l199 457z" />
    <glyph glyph-name="less" unicode="&#x3c;" horiz-adv-x="1472" 
d="M1313 494h-875q279 -266 523 -496h-343l-638 614l638 619h343l-527 -498h879v-239z" />
    <glyph glyph-name="equal" unicode="=" horiz-adv-x="1021" 
d="M850 270h-789v224h789v-224zM850 578h-789v223h789v-223z" />
    <glyph glyph-name="greater" unicode="&#x3e;" horiz-adv-x="1472" 
d="M51 494v239h877q-213 203 -527 498h342l641 -619l-641 -614h-340l521 496h-873z" />
    <glyph glyph-name="question" unicode="?" horiz-adv-x="1026" 
d="M598 0h-260v254h260v-254zM895 815q0 -139 -158 -217l-28 -12q-37 -14 -77 -44t-40 -46v-148h-248v156q0 168 231 270q70 33 70 47v103q-11 38 -32 56q-21 17 -25 17h-230q-61 -29 -88 -86l-237 64q14 45 49 92q127 170 268 170h236q86 0 154 -52q68 -53 112 -109
q43 -56 43 -136v-125z" />
    <glyph glyph-name="at" unicode="@" horiz-adv-x="1392" 
d="M864 647h-96q-29 -16 -55 -61v-310q33 -47 55 -61h96q14 1 48 19t51 38v318q-17 20 -51 38t-48 19zM870 -10h-102q-156 0 -258 149q-41 61 -41 135v316q0 80 41 135q39 59 100 100q74 45 158 45h102q49 0 93 -24v74q0 14 -35 48t-51 42h-467q-14 -8 -42 -36t-44 -52v-938
l2 -2q12 -24 41 -50t43 -32l-144 -191q-31 15 -80 65q-48 50 -78 93t-30 115v944q0 74 35 125q91 113 154 149q62 37 132 37h488q68 0 133 -39q59 -31 154 -147q35 -45 34 -125v-729l19 -197h-244l-4 25q-57 -35 -109 -35z" />
    <glyph glyph-name="A" unicode="A" horiz-adv-x="1187" 
d="M680 475l-139 395l-69 -198t-69 -197h277zM328 236l-84 -236h-267l426 1229h277l424 -1229h-266l-82 236h-428z" />
    <glyph glyph-name="B" unicode="B" horiz-adv-x="1132" 
d="M670 989h-344v-258h346q6 -1 24 17t29 34v150q-13 20 -31 38t-24 19zM326 500v-260h346q6 0 24 18t29 35v149q-13 20 -31 38t-24 20h-344zM975 293q0 -140 -146 -246q-68 -47 -155 -47h-598v1229h598q86 0 155 -49q56 -45 109 -111q37 -55 37 -137v-148q0 -96 -68 -172
q68 -74 68 -172v-147z" />
    <glyph glyph-name="C" unicode="C" horiz-adv-x="1136" 
d="M324 305q0 -7 28 -35t51 -41h261q57 39 104 123l233 -57q-25 -70 -69 -131q-123 -174 -270 -174h-269q-70 0 -118 28t-95 77q-47 48 -71 81q-35 55 -35 127v621q0 76 29 117t77 89q104 106 213 107h269q143 0 268 -172q40 -57 69 -131l-231 -66q-39 82 -109 129h-256
q-49 -35 -79 -82v-610z" />
    <glyph glyph-name="D" unicode="D" horiz-adv-x="1155" 
d="M326 989v-749h336q48 28 75 77v588q-20 51 -75 84h-336zM987 309q0 -74 -28 -116q-27 -42 -75 -89q-105 -104 -212 -104h-596v1229h596q78 0 138 -39t142 -148q35 -49 35 -127v-606z" />
    <glyph glyph-name="E" unicode="E" 
d="M883 0h-807v1229h807v-240h-557v-252h538v-239h-538v-258h557v-240z" />
    <glyph glyph-name="F" unicode="F" horiz-adv-x="1036" 
d="M883 989h-557v-252h528v-239h-528v-498h-250v1229h807v-240z" />
    <glyph glyph-name="G" unicode="G" horiz-adv-x="1214" 
d="M395 1237h312q143 0 268 -172q41 -57 69 -131l-231 -66q-39 82 -108 129h-299q-49 -33 -80 -79v-621q0 -8 26 -32t49 -36h299q23 10 51 37t27 37v184h-280v234h530v-461q0 -31 14 -117l25 -145h-248l-8 37q-4 -2 -40 -24t-66 -21h-310q-70 0 -118 28t-96 76
q-49 47 -77 91t-28 116v623q0 78 29 119q80 113 171 167q47 28 119 27z" />
    <glyph glyph-name="H" unicode="H" horiz-adv-x="1161" 
d="M985 0h-250v496h-409v-496h-250v1229h250v-494h409v494h250v-1229z" />
    <glyph glyph-name="I" unicode="I" horiz-adv-x="522" 
d="M336 0h-252v1229h252v-1229z" />
    <glyph glyph-name="J" unicode="J" horiz-adv-x="952" 
d="M389 -12v2h-74q-147 0 -270 174q-45 61 -70 131l234 57q47 -84 104 -123h148q12 0 44 31t32 39v930h249v-928q0 -70 -38 -127q-18 -29 -66 -79q-104 -107 -215 -107h-78z" />
    <glyph glyph-name="K" unicode="K" horiz-adv-x="1077" 
d="M326 508v-508h-250v1229h250v-500h20q6 0 279 375l90 125h295l-453 -606l459 -623h-303l-367 508h-20z" />
    <glyph glyph-name="L" unicode="L" horiz-adv-x="960" 
d="M870 0h-794v1229h250v-987h544v-242z" />
    <glyph glyph-name="M" unicode="M" horiz-adv-x="1345" 
d="M1163 1229v-1229h-250v739q-186 -391 -213 -446h-163l-211 444v-737h-250v1229h272l275 -557l270 557h270z" />
    <glyph glyph-name="N" unicode="N" horiz-adv-x="1153" 
d="M975 0h-252l-397 723v-723h-250v1229h256l393 -733v733h250v-1229z" />
    <glyph glyph-name="O" unicode="O" horiz-adv-x="1189" 
d="M772 305v617q-29 49 -74 75h-301q-45 -33 -75 -77v-615q41 -55 73 -76h301q39 29 76 76zM1022 305q0 -76 -35 -127q-87 -112 -151 -150t-134 -38h-311q-70 0 -118 28t-96 79q-48 50 -77 91t-28 117v617q0 78 28 119t77 89t97 78q48 29 117 29h311q70 0 132 -36t153 -150
q35 -51 35 -129v-617z" />
    <glyph glyph-name="P" unicode="P" horiz-adv-x="1093" 
d="M326 989v-280h348q6 -1 26 17t27 32v182q-20 33 -53 49h-348zM977 760q0 -76 -39 -133q-12 -19 -50 -57t-61 -54q-66 -47 -153 -47h-348v-469h-250v1229h598q90 0 152 -47q62 -46 106 -106t45 -142v-174z" />
    <glyph glyph-name="Q" unicode="Q" horiz-adv-x="1202" 
d="M434 231q0 11 -6 17l231 78l39 -95h11q38 29 75 76v615q-29 49 -73 75h-312q-45 -33 -75 -77v-613q31 -45 75 -76h35zM1034 305q0 -76 -35 -127q-82 -106 -149 -149q-4 0 -15 -7t-40 -18q12 -31 40 -93t39 -93h-268l-71 172h-142q-70 0 -118 28t-96 79q-49 50 -77 91
t-28 117v617q0 78 29 119t77 89t96 78q48 29 117 29h322q70 0 131 -36t153 -150q35 -51 35 -129v-617z" />
    <glyph glyph-name="R" unicode="R" horiz-adv-x="1157" 
d="M326 989v-280h348q6 -1 26 17t27 32v182q-20 33 -53 49h-348zM977 760q0 -76 -39 -133q-12 -20 -58 -66t-102 -74l266 -487h-278l-244 469h-196v-469h-250v1229h598q90 0 152 -47q62 -46 106 -106t45 -142v-174z" />
    <glyph glyph-name="S" unicode="S" horiz-adv-x="1157" 
d="M1016 426v-121q0 -70 -28 -114t-78 -94q-106 -107 -216 -107h-313q-147 0 -270 174q-45 61 -70 131l231 72q59 -106 107 -138h311q31 18 53 43q21 25 21 27v121l-6 12q-74 20 -249 68t-263 70q-88 24 -132 92t-44 147v113q0 78 26 118t76 88t84 70q70 39 133 39h291
q143 0 268 -172q41 -57 70 -131l-232 -66q-39 82 -108 129h-283q-36 -21 -56 -45q-19 -24 -20 -26v-109l7 -12l520 -141q80 -23 125 -91t45 -147z" />
    <glyph glyph-name="T" unicode="T" horiz-adv-x="1046" 
d="M930 989h-330v-989h-252v989h-332v240h914v-240z" />
    <glyph glyph-name="U" unicode="U" horiz-adv-x="1173" 
d="M1006 305q0 -76 -29 -118t-76 -91q-102 -106 -213 -106h-293q-70 0 -118 28t-96 79q-49 50 -77 91t-28 117v924h250v-922q49 -61 75 -78h281q39 25 74 76v924h250v-924z" />
    <glyph glyph-name="V" unicode="V" horiz-adv-x="1142" 
d="M774 1229h264l-391 -1229h-276l-394 1229h265l266 -879q97 298 184 588q86 291 82 291z" />
    <glyph glyph-name="W" unicode="W" horiz-adv-x="1519" 
d="M1022 471l160 758h266l-285 -1229h-268l-178 719q-83 -341 -176 -719h-269l-280 1229h258l162 -758l178 758h254z" />
    <glyph glyph-name="X" unicode="X" horiz-adv-x="1077" 
d="M991 1229l-358 -604l373 -625h-279l-231 399l-232 -399h-278l370 625l-356 604h279l217 -379l219 379h276z" />
    <glyph glyph-name="Y" unicode="Y" horiz-adv-x="1077" 
d="M602 0h-252v532l-411 697h282l256 -432l260 432h283l-418 -697v-532z" />
    <glyph glyph-name="Z" unicode="Z" horiz-adv-x="1032" 
d="M920 0h-852v182l526 807h-518v240h844v-185l-521 -804h521v-240z" />
    <glyph glyph-name="bracketleft" unicode="[" horiz-adv-x="692" 
d="M514 0h-436v1229h436v-232h-188v-766h188v-231z" />
    <glyph glyph-name="bracketright" unicode="]" horiz-adv-x="692" 
d="M508 0h-434v231h186v766h-186v232h434v-1229z" />
    <glyph glyph-name="underscore" unicode="_" horiz-adv-x="985" 
d="M862 0h-821v238h821v-238z" />
    <glyph glyph-name="a" unicode="a" horiz-adv-x="1167" 
d="M659 475l-139 395q-22 -66 -68 -198t-69 -197h276zM307 236l-84 -236h-266l426 1229h276l424 -1229h-266l-82 236h-428z" />
    <glyph glyph-name="b" unicode="b" horiz-adv-x="1112" 
d="M649 989h-323v-258h325q6 -1 25 17t29 34v150q-13 20 -31 38t-25 19zM326 500v-260h325q6 0 25 18t29 35v149q-13 20 -31 38t-25 20h-323zM954 293q0 -141 -145 -246q-68 -47 -156 -47h-577v1229h577q86 0 156 -49q46 -37 109 -111q37 -55 36 -137v-148q0 -96 -67 -172
q68 -74 67 -172v-147z" />
    <glyph glyph-name="c" unicode="c" horiz-adv-x="1087" 
d="M643 -10h-235q-92 0 -148 39q-31 18 -78 66t-71 81q-35 55 -35 127v615q0 76 35 126q14 20 67 72t78 72q70 49 154 49h233q141 0 268 -170q29 -41 50 -92l-240 -66q-33 63 -86 88h-223q-53 -37 -86 -88v-610q0 -8 32 -34q32 -25 52 -36h227q49 18 84 93l240 -66l2 -2
q-58 -130 -166 -211q-72 -53 -154 -53z" />
    <glyph glyph-name="d" unicode="d" horiz-adv-x="1146" 
d="M326 989v-749h325q49 28 76 77v588q-20 51 -76 84h-325zM977 309q0 -74 -28 -116t-76 -89q-106 -104 -211 -104h-586v1229h586q76 0 137 -39t143 -148q35 -49 35 -127v-606z" />
    <glyph glyph-name="e" unicode="e" horiz-adv-x="1036" 
d="M862 0h-786v1229h786v-240h-536v-254h518v-239h-518v-256h536v-240z" />
    <glyph glyph-name="f" unicode="f" horiz-adv-x="1015" 
d="M862 989h-536v-254h508v-239h-508v-496h-250v1229h786v-240z" />
    <glyph glyph-name="g" unicode="g" horiz-adv-x="1177" 
d="M670 -10h-273q-70 0 -118 28t-96 76q-49 47 -77 91t-28 116v625q0 78 35 129q76 102 133 135q76 49 151 49h287q141 0 268 -170q27 -35 52 -92l-242 -66q-33 63 -86 88h-270q-53 -39 -78 -75v-627q0 -9 28 -33t47 -35h254q80 49 80 74v184h-186v234h436v-459
q0 -37 10 -90l33 -172h-246l-10 53q-68 -63 -104 -63z" />
    <glyph glyph-name="h" unicode="h" horiz-adv-x="1148" 
d="M965 0h-250v492h-389v-492h-250v1229h250v-498h389v498h250v-1229z" />
    <glyph glyph-name="i" unicode="i" horiz-adv-x="522" 
d="M336 0h-252v1229h252v-1229z" />
    <glyph glyph-name="j" unicode="j" horiz-adv-x="925" 
d="M760 303q0 -72 -35 -127q-23 -31 -71 -79t-81 -68h2q-66 -39 -133 -39h-147q-145 0 -275 174q-16 23 -40 92l239 66q29 -66 74 -93h143q9 -1 36 25t38 45v930h250v-926z" />
    <glyph glyph-name="k" unicode="k" horiz-adv-x="1077" 
d="M326 508v-508h-250v1229h250v-500h20q6 0 279 375l90 125h295l-453 -606l459 -623h-303l-367 508h-20z" />
    <glyph glyph-name="l" unicode="l" horiz-adv-x="960" 
d="M850 0h-774v1229h250v-989h524v-240z" />
    <glyph glyph-name="m" unicode="m" horiz-adv-x="1345" 
d="M1163 1229v-1229h-250v739q-186 -391 -213 -446h-163l-211 444v-737h-250v1229h272l275 -557l270 557h270z" />
    <glyph glyph-name="n" unicode="n" horiz-adv-x="1153" 
d="M975 0h-252l-397 723v-723h-250v1229h256l393 -733v733h250v-1229z" />
    <glyph glyph-name="o" unicode="o" horiz-adv-x="1161" 
d="M739 307v615q-27 49 -71 75h-269q-45 -33 -75 -77v-613q41 -55 73 -76h269q38 25 73 76zM991 305q0 -74 -30 -117q-29 -43 -77 -92q-48 -50 -96 -78t-116 -28h-279q-70 0 -118 28t-96 79q-49 50 -77 91t-28 117v617q0 78 29 119t77 89t96 78q48 29 117 29h279
q70 0 129 -36t153 -150q37 -53 37 -129v-617z" />
    <glyph glyph-name="p" unicode="p" horiz-adv-x="1073" 
d="M326 989v-280h327q6 -1 26 17t28 32v182q-20 33 -54 49h-327zM956 760q0 -76 -38 -133q-12 -19 -50 -57t-61 -54q-66 -47 -154 -47h-327v-469h-250v1229h577q91 0 153 -47q62 -46 106 -106t44 -142v-174z" />
    <glyph glyph-name="q" unicode="q" horiz-adv-x="1181" 
d="M764 307v615q-27 49 -72 75h-291q-45 -33 -75 -77v-613q31 -45 75 -76h15q-6 6 -6 17l231 78l39 -95h10q39 25 74 76zM1016 305q0 -74 -30 -116t-77 -91t-71 -64t-64 -30q12 -31 40 -93l42 -93h-268l-72 172h-121q-70 0 -118 28t-96 79q-49 50 -77 91t-28 117v617
q0 78 29 119t77 89t96 78q48 29 117 29h301q70 0 129 -36t154 -150q37 -53 37 -129v-617z" />
    <glyph glyph-name="r" unicode="r" horiz-adv-x="1122" 
d="M326 989v-280h327q6 -1 26 17t28 32v182q-20 33 -54 49h-327zM956 760q0 -76 -38 -133q-12 -20 -62 -69t-96 -69l258 -489h-279l-233 469h-180v-469h-250v1229h577q91 0 153 -47q62 -46 106 -106t44 -142v-174z" />
    <glyph glyph-name="s" unicode="s" horiz-adv-x="1103" 
d="M969 303q1 -77 -23 -113t-74 -88t-73 -69q-63 -45 -154 -45h-295q-141 0 -268 172q-10 10 -51 94l243 65q27 -61 76 -92h303q27 18 46 43q20 25 20 27v123l-6 12q-72 20 -238 68t-250 70q-84 24 -129 92t-45 147v113q0 78 33 129q16 20 64 71t71 68q70 49 154 49h262
q82 0 155 -53q72 -52 108 -110t54 -99l-239 -66q-27 53 -86 88h-242q-31 -14 -57 -42q-27 -29 -27 -31v-109l6 -12q92 -27 265 -76t241 -69t112 -88q44 -69 44 -146v-123z" />
    <glyph glyph-name="t" unicode="t" horiz-adv-x="1026" 
d="M909 989h-319v-989h-252v989h-322v240h893v-240z" />
    <glyph glyph-name="u" unicode="u" horiz-adv-x="1138" 
d="M985 305q0 -76 -29 -118q-30 -42 -76 -91q-101 -106 -212 -106h-273q-70 0 -118 28t-96 79q-49 50 -77 91t-28 117v924h250v-922q49 -61 75 -78h261q39 25 73 76v924h250v-924z" />
    <glyph glyph-name="v" unicode="v" horiz-adv-x="1142" 
d="M774 1229h264l-391 -1229h-276l-394 1229h265l266 -879q97 298 184 588q86 291 82 291z" />
    <glyph glyph-name="w" unicode="w" horiz-adv-x="1519" 
d="M1022 471l160 758h266l-285 -1229h-268l-178 719q-83 -341 -176 -719h-269l-280 1229h258l162 -758l178 758h254z" />
    <glyph glyph-name="x" unicode="x" horiz-adv-x="1077" 
d="M991 1229l-358 -604l373 -625h-279l-231 399l-232 -399h-278l370 625l-356 604h279l217 -379l219 379h276z" />
    <glyph glyph-name="y" unicode="y" horiz-adv-x="1077" 
d="M602 0h-252v532l-411 697h282l256 -432l260 432h283l-418 -697v-532z" />
    <glyph glyph-name="z" unicode="z" horiz-adv-x="1032" 
d="M920 0h-852v182l526 807h-518v240h844v-185l-521 -804h521v-240z" />
    <glyph glyph-name="cent" unicode="&#xa2;" horiz-adv-x="1087" 
d="M643 -178h-240v166q-88 4 -141 39q-31 18 -78 66t-71 81q-35 55 -35 127v619q0 76 35 127q14 20 67 72t97 83t126 37v150h240l4 -150q78 -2 149 -55q122 -91 167 -207l-240 -66q-23 47 -44 60q-21 14 -44 24h-221q-57 -41 -86 -84v-608q0 -20 86 -70h225q53 20 84 86
l240 -65l2 -2q-16 -47 -52 -92q-45 -63 -116 -117q-72 -53 -154 -55v-166z" />
    <glyph glyph-name="sterling" unicode="&#xa3;" horiz-adv-x="1218" 
d="M727 0h-586v354h-78v230h78v67h-78v232h78v45q-1 78 27 117t78 88t80 69q70 39 133 39h307v-240h-297q-47 -29 -78 -71v-47h303v-232h-303v-67h303v-230h-303v-114h328q57 43 84 88l241 -72q-16 -43 -45 -86q-125 -170 -272 -170z" />
    <glyph glyph-name="currency" unicode="&#xa4;" horiz-adv-x="1136" 
d="M651 602v49q0 12 -67 56h-158q-8 -4 -38 -26t-30 -30v-49q0 -10 25 -28t41 -23h162q65 39 65 51zM889 606q0 -80 -47 -149l-2 -2q0 -4 -2 -4l65 -64l-164 -166l-104 101q-16 -2 -49 -3h-162q-33 0 -49 3l-107 -101l-170 168l68 66v2q-47 70 -47 149v43q0 76 41 142
l-70 69l164 166l96 -94q37 10 74 10h162q41 0 73 -12l89 84l167 -170l-63 -62q37 -70 37 -133v-43z" />
    <glyph glyph-name="yen" unicode="&#xa5;" horiz-adv-x="1046" 
d="M113 643v227h53q-39 68 -114 193t-97 164h283l243 -416l246 416h283l-211 -357h51v-227h-188q-2 -4 -18 -28t-21 -35h227v-224h-244v-356h-252v356h-241v224h225q-2 3 -37 63h-188z" />
    <glyph glyph-name="copyright" unicode="&#xa9;" horiz-adv-x="1953" 
d="M1540 305v613q0 10 -37 43l-227 215l168 170l227 -211q49 -47 80 -88q35 -55 35 -127v-617q0 -72 -35 -127q-31 -41 -80 -88l-227 -211l-168 170l227 215q37 33 37 43zM78 303v617q0 72 35 127q31 41 80 88l227 211l168 -170l-228 -215q-37 -33 -36 -43v-613
q0 -10 36 -43l228 -215l-168 -170l-227 211q-49 47 -80 88q-35 55 -35 127zM848 481q0 -6 12 -18h150q8 8 24 41l183 -37q-18 -67 -40 -103t-71 -71t-105 -35h-145q-61 0 -93 22t-64 53q-32 32 -40 46v-2q-23 33 -22 92v285q0 51 25 90q45 59 88 86h-2q47 35 110 35h143
q109 0 179 -109q19 -30 39 -96l-183 -39q-12 25 -28 41h-140l-20 -21v-260z" />
    <glyph glyph-name="guillemotleft" unicode="&#xab;" horiz-adv-x="1351" 
d="M672 252l-275 -72l-352 344l352 353l269 -78l-279 -271zM1186 252l-275 -72l-352 344l352 353l269 -78l-279 -271z" />
    <glyph glyph-name="registered" unicode="&#xae;" horiz-adv-x="1953" 
d="M866 758v-140h101q5 0 25 15t30 29v47q-16 23 -55 49h-101zM866 426v-188h-207v725h297q84 0 150 -51q66 -50 94 -92t27 -113v-27q0 -84 -27 -121t-72 -70l134 -256h-226l-102 193h-68zM1540 305v613q0 10 -37 43l-227 215l168 170l227 -211q49 -47 80 -88
q35 -55 35 -127v-617q0 -72 -35 -127q-31 -41 -80 -88l-227 -211l-168 170l227 215q37 33 37 43zM78 303v617q0 72 35 127q31 41 80 88l227 211l168 -170l-228 -215q-37 -33 -36 -43v-613q0 -10 36 -43l228 -215l-168 -170l-227 211q-49 47 -80 88q-35 55 -35 127z" />
    <glyph glyph-name="macron" unicode="&#xaf;" horiz-adv-x="696" 
d="M504 1399h-465v219h465v-219z" />
    <glyph glyph-name="mu" unicode="&#xb5;" horiz-adv-x="1153" 
d="M315 -184h-239v1413h250v-922q49 -61 75 -78h261q39 25 73 76v924h250v-924q0 -76 -29 -118q-30 -42 -76 -91q-101 -106 -212 -106h-252q-33 0 -101 55v-229z" />
    <glyph glyph-name="mu" unicode="&#x3bc;" horiz-adv-x="1153" 
d="M315 -184h-239v1413h250v-922q49 -61 75 -78h261q39 25 73 76v924h250v-924q0 -76 -29 -118q-30 -42 -76 -91q-101 -106 -212 -106h-252q-33 0 -101 55v-229z" />
    <glyph glyph-name="periodcentered" unicode="&#xb7;" horiz-adv-x="618" 
d="M395 391h-289v246h289v-246z" />
    <glyph glyph-name="cedilla" unicode="&#xb8;" horiz-adv-x="768" 
d="M655 -141l-145 -267h-254l186 328z" />
    <glyph glyph-name="guillemotright" unicode="&#xbb;" horiz-adv-x="1351" 
d="M834 180l-275 72l285 276l-279 271l269 78l352 -353zM319 180l-274 72l285 276l-279 271l268 78l353 -353z" />
    <glyph glyph-name="Agrave" unicode="&#xc0;" horiz-adv-x="1167" 
d="M651 1352h-241l-215 278h266zM659 475l-139 395q-22 -66 -68 -198t-69 -197h276zM307 236l-84 -236h-266l426 1229h276l424 -1229h-266l-82 236h-428z" />
    <glyph glyph-name="Aacute" unicode="&#xc1;" horiz-adv-x="1167" 
d="M541 1352h-242l190 278h267zM659 475l-139 395q-22 -66 -68 -198t-69 -197h276zM307 236l-84 -236h-266l426 1229h276l424 -1229h-266l-82 236h-428z" />
    <glyph glyph-name="Acircumflex" unicode="&#xc2;" horiz-adv-x="1167" 
d="M457 1630h121l296 -278h-286l-72 80l-70 -80h-286zM659 475l-139 395q-22 -66 -68 -198t-69 -197h276zM307 236l-84 -236h-266l426 1229h276l424 -1229h-266l-82 236h-428z" />
    <glyph glyph-name="Atilde" unicode="&#xc3;" horiz-adv-x="1167" 
d="M887 1440l-209 -41q-10 25 -28 37t-36 8q-16 -4 -67 -20t-72 -21q-211 -37 -305 203l213 43q23 -51 49 -47t78 21q51 17 74 22q94 16 174 -33t129 -172zM659 475l-139 395q-22 -66 -68 -198t-69 -197h276zM307 236l-84 -236h-266l426 1229h276l424 -1229h-266l-82 236
h-428z" />
    <glyph glyph-name="Adieresis" unicode="&#xc4;" horiz-adv-x="1187" 
d="M463 1364h-236v250h236v-250zM860 1364h-239v250h239v-250zM680 475l-139 395l-69 -198t-69 -197h277zM328 236l-84 -236h-267l426 1229h277l424 -1229h-266l-82 236h-428z" />
    <glyph glyph-name="Aring" unicode="&#xc5;" horiz-adv-x="1187" 
d="M540 1407q34 -1 58 25t23 60q0 34 -24 58q-23 24 -57 25q-34 0 -60 -25q-26 -24 -26 -58t26 -60t60 -25zM758 1491q0 -89 -64 -153t-153 -64q-90 0 -157 64t-67 154q0 89 67 154q67 64 156 64q90 0 154 -64t64 -155zM680 475l-139 395l-69 -198t-69 -197h277zM328 236
l-84 -236h-267l426 1229h277l424 -1229h-266l-82 236h-428z" />
    <glyph glyph-name="AE" unicode="&#xc6;" horiz-adv-x="1560" 
d="M645 475v514h-65l-177 -514h242zM1386 0h-741v236h-317l-84 -236h-267l426 1229h983v-240h-491v-252h473v-239h-473v-258h491v-240z" />
    <glyph glyph-name="Ccedilla" unicode="&#xc7;" horiz-adv-x="1136" 
d="M676 -141l-146 -267h-254l187 328zM328 305q0 -9 28 -36t52 -40h260q57 39 104 123l234 -57q-25 -70 -70 -131q-123 -174 -270 -174h-269q-70 0 -118 28t-95 77q-47 48 -71 81q-35 55 -35 127v621q0 76 29 117t77 89q104 106 213 107h269q143 0 268 -172q41 -57 70 -131
l-232 -66q-39 82 -108 129h-256q-49 -35 -80 -82v-610z" />
    <glyph glyph-name="Egrave" unicode="&#xc8;" 
d="M651 1352h-241l-215 278h266zM883 0h-807v1229h807v-240h-557v-252h538v-239h-538v-258h557v-240z" />
    <glyph glyph-name="Eacute" unicode="&#xc9;" 
d="M541 1352h-242l190 278h267zM883 0h-807v1229h807v-240h-557v-252h538v-239h-538v-258h557v-240z" />
    <glyph glyph-name="Edieresis" unicode="&#xcb;" 
d="M395 1364h-235v250h235v-250zM793 1364h-240v250h240v-250zM883 0h-807v1229h807v-240h-557v-252h538v-239h-538v-258h557v-240z" />
    <glyph glyph-name="Igrave" unicode="&#xcc;" horiz-adv-x="512" 
d="M324 1352h-242l-215 278h266zM326 0h-252v1229h252v-1229z" />
    <glyph glyph-name="Icircumflex" unicode="&#xce;" horiz-adv-x="512" 
d="M127 1630h121l297 -278h-287l-72 80l-69 -80h-287zM326 0h-252v1229h252v-1229z" />
    <glyph glyph-name="Eth" unicode="&#xd0;" horiz-adv-x="1206" 
d="M588 502h-201v-262h326q49 29 75 77v588q-20 51 -75 84h-326v-258h201v-229zM1038 309q0 -74 -28 -116t-75 -89q-106 -104 -212 -104h-586v502h-160v229h160v498h586q76 0 137 -39t144 -148q35 -49 34 -127v-606z" />
    <glyph glyph-name="Ntilde" unicode="&#xd1;" horiz-adv-x="1153" 
d="M887 1440l-209 -41q-10 25 -28 37t-36 8q-16 -4 -67 -20t-72 -21q-211 -37 -305 203l213 43q23 -51 49 -47t78 21q51 17 74 22q94 16 174 -33t129 -172zM975 0h-252l-397 723v-723h-250v1229h256l393 -733v733h250v-1229z" />
    <glyph glyph-name="Oacute" unicode="&#xd3;" horiz-adv-x="1189" 
d="M561 1352h-242l191 278h266zM772 305v617q-29 49 -74 75h-301q-45 -33 -75 -77v-615q41 -55 73 -76h301q39 29 76 76zM1022 305q0 -76 -35 -127q-87 -112 -151 -150t-134 -38h-311q-70 0 -118 28t-96 79q-48 50 -77 91t-28 117v617q0 78 28 119t77 89t97 78q48 29 117 29
h311q70 0 132 -36t153 -150q35 -51 35 -129v-617z" />
    <glyph glyph-name="Ocircumflex" unicode="&#xd4;" horiz-adv-x="1189" 
d="M496 1630h120l297 -278h-286l-72 80l-70 -80h-286zM772 305v617q-29 49 -74 75h-301q-45 -33 -75 -77v-615q41 -55 73 -76h301q39 29 76 76zM1022 305q0 -76 -35 -127q-87 -112 -151 -150t-134 -38h-311q-70 0 -118 28t-96 79q-48 50 -77 91t-28 117v617q0 78 28 119
t77 89t97 78q48 29 117 29h311q70 0 132 -36t153 -150q35 -51 35 -129v-617z" />
    <glyph glyph-name="Otilde" unicode="&#xd5;" horiz-adv-x="1189" 
d="M918 1440l-209 -41q-11 25 -29 37t-34 8t-68 -20q-51 -16 -72 -21q-211 -37 -305 203l213 43q24 -51 50 -47t77 21t73 22q94 16 174 -33t130 -172zM772 305v617q-29 49 -74 75h-301q-45 -33 -75 -77v-615q41 -55 73 -76h301q39 29 76 76zM1022 305q0 -76 -35 -127
q-87 -112 -151 -150t-134 -38h-311q-70 0 -118 28t-96 79q-48 50 -77 91t-28 117v617q0 78 28 119t77 89t97 78q48 29 117 29h311q70 0 132 -36t153 -150q35 -51 35 -129v-617z" />
    <glyph glyph-name="Odieresis" unicode="&#xd6;" horiz-adv-x="1189" 
d="M772 305v617q-29 49 -74 75h-301q-45 -33 -75 -77v-615q41 -55 73 -76h301q39 29 76 76zM1022 305q0 -76 -35 -127q-87 -112 -151 -150t-134 -38h-311q-70 0 -118 28t-96 79q-48 50 -77 91t-28 117v617q0 78 28 119t77 89t97 78q48 29 117 29h311q70 0 132 -36t153 -150
q35 -51 35 -129v-617zM459 1364h-236v250h236v-250zM856 1364h-240v250h240v-250z" />
    <glyph glyph-name="Ugrave" unicode="&#xd9;" horiz-adv-x="1173" 
d="M774 1352h-242l-215 278h267zM1006 305q0 -76 -29 -118t-76 -91q-102 -106 -213 -106h-293q-70 0 -118 28t-96 79q-49 50 -77 91t-28 117v924h250v-922q49 -61 75 -78h281q39 25 74 76v924h250v-924z" />
    <glyph glyph-name="Uacute" unicode="&#xda;" horiz-adv-x="1173" 
d="M561 1352h-242l191 278h266zM1006 305q0 -76 -29 -118t-76 -91q-102 -106 -213 -106h-293q-70 0 -118 28t-96 79q-49 50 -77 91t-28 117v924h250v-922q49 -61 75 -78h281q39 25 74 76v924h250v-924z" />
    <glyph glyph-name="Ucircumflex" unicode="&#xdb;" horiz-adv-x="1173" 
d="M485 1630h121l297 -278h-287l-71 80l-70 -80h-287zM1006 305q0 -76 -29 -118t-76 -91q-102 -106 -213 -106h-293q-70 0 -118 28t-96 79q-49 50 -77 91t-28 117v924h250v-922q49 -61 75 -78h281q39 25 74 76v924h250v-924z" />
    <glyph glyph-name="Udieresis" unicode="&#xdc;" horiz-adv-x="1173" 
d="M459 1364h-236v250h236v-250zM856 1364h-240v250h240v-250zM1006 305q0 -76 -29 -118t-76 -91q-102 -106 -213 -106h-293q-70 0 -118 28t-96 79q-49 50 -77 91t-28 117v924h250v-922q49 -61 75 -78h281q39 25 74 76v924h250v-924z" />
    <glyph glyph-name="agrave" unicode="&#xe0;" horiz-adv-x="1187" 
d="M672 1352h-242l-215 278h266zM680 475l-139 395l-69 -198t-69 -197h277zM328 236l-84 -236h-267l426 1229h277l424 -1229h-266l-82 236h-428z" />
    <glyph glyph-name="aacute" unicode="&#xe1;" horiz-adv-x="1187" 
d="M655 1356h-239l190 278h264zM680 475l-139 395l-69 -198t-69 -197h277zM328 236l-84 -236h-267l426 1229h277l424 -1229h-266l-82 236h-428z" />
    <glyph glyph-name="acircumflex" unicode="&#xe2;" horiz-adv-x="1187" 
d="M473 1630h121l297 -278h-287l-72 80l-69 -80h-287zM680 475l-139 395l-69 -198t-69 -197h277zM328 236l-84 -236h-267l426 1229h277l424 -1229h-266l-82 236h-428z" />
    <glyph glyph-name="atilde" unicode="&#xe3;" horiz-adv-x="1187" 
d="M897 1440l-209 -41q-10 25 -28 37t-35 8q-15 -4 -67 -20t-73 -21q-211 -37 -305 203l213 43q23 -51 49 -47t78 21q51 17 74 22q94 16 174 -33t129 -172zM680 475l-139 395l-69 -198t-69 -197h277zM328 236l-84 -236h-267l426 1229h277l424 -1229h-266l-82 236h-428z" />
    <glyph glyph-name="adieresis" unicode="&#xe4;" horiz-adv-x="1187" 
d="M457 1364h-236v250h236v-250zM854 1364h-240v250h240v-250zM680 475l-139 395l-69 -198t-69 -197h277zM328 236l-84 -236h-267l426 1229h277l424 -1229h-266l-82 236h-428z" />
    <glyph glyph-name="aring" unicode="&#xe5;" horiz-adv-x="1187" 
d="M542 1407q34 -1 58 25t23 60q0 34 -24 58q-23 24 -57 25q-34 0 -60 -25q-26 -24 -26 -58t26 -60t60 -25zM760 1491q0 -89 -64 -153t-153 -64q-90 0 -157 64t-67 154q0 89 67 154q67 64 156 64q90 0 154 -64t64 -155zM680 475l-139 395l-69 -198t-69 -197h277zM328 236
l-84 -236h-267l426 1229h277l424 -1229h-266l-82 236h-428z" />
    <glyph glyph-name="ae" unicode="&#xe6;" horiz-adv-x="1570" 
d="M645 475v514h-65l-177 -514h242zM1386 0h-741v236h-317l-84 -236h-267l426 1229h983v-240h-491v-252h473v-239h-473v-258h491v-240z" />
    <glyph glyph-name="ccedilla" unicode="&#xe7;" horiz-adv-x="1087" 
d="M676 -141l-146 -267h-254l187 328zM645 -10h-235q-92 0 -148 39q-31 18 -78 66t-71 81q-35 55 -35 127v615q0 76 35 126q14 20 67 72t78 72q70 49 154 49h233q141 0 268 -170q29 -41 50 -92l-240 -66q-33 63 -86 88h-223q-53 -37 -86 -88v-610q0 -8 32 -34q32 -25 52 -36
h227q49 18 84 93l240 -66l2 -2q-58 -130 -166 -211q-72 -53 -154 -53z" />
    <glyph glyph-name="egrave" unicode="&#xe8;" horiz-adv-x="1036" 
d="M651 1352h-241l-215 278h266zM862 0h-786v1229h786v-240h-536v-254h518v-239h-518v-256h536v-240z" />
    <glyph glyph-name="eacute" unicode="&#xe9;" horiz-adv-x="1036" 
d="M541 1352h-242l190 278h267zM862 0h-786v1229h786v-240h-536v-254h518v-239h-518v-256h536v-240z" />
    <glyph glyph-name="ecircumflex" unicode="&#xea;" horiz-adv-x="1042" 
d="M416 1630h121l297 -278h-287l-72 80l-69 -80h-287zM868 0h-786v1229h786v-240h-536v-254h518v-239h-518v-256h536v-240z" />
    <glyph glyph-name="edieresis" unicode="&#xeb;" horiz-adv-x="1036" 
d="M385 1364h-235v250h235v-250zM782 1364h-239v250h239v-250zM862 0h-786v1229h786v-240h-536v-254h518v-239h-518v-256h536v-240z" />
    <glyph glyph-name="igrave" unicode="&#xec;" horiz-adv-x="495" 
d="M324 1352h-242l-215 278h266zM326 0h-252v1229h252v-1229z" />
    <glyph glyph-name="iacute" unicode="&#xed;" horiz-adv-x="501" 
d="M309 1352h-241l190 278h266zM326 0h-252v1229h252v-1229z" />
    <glyph glyph-name="icircumflex" unicode="&#xee;" horiz-adv-x="538" 
d="M127 1630h121l297 -278h-287l-72 80l-69 -80h-287zM326 0h-252v1229h252v-1229z" />
    <glyph glyph-name="idieresis" unicode="&#xef;" horiz-adv-x="512" 
d="M113 1364h-236v250h236v-250zM510 1364h-240v250h240v-250zM326 0h-252v1229h252v-1229z" />
    <glyph glyph-name="eth" unicode="&#xf0;" horiz-adv-x="1206" 
d="M588 502h-201v-262h326q49 29 75 77v588q-20 51 -75 84h-326v-258h201v-229zM1038 309q0 -74 -28 -116t-75 -89q-106 -104 -212 -104h-586v502h-160v229h160v498h586q76 0 137 -39t144 -148q35 -49 34 -127v-606z" />
    <glyph glyph-name="ntilde" unicode="&#xf1;" horiz-adv-x="1153" 
d="M901 1440l-209 -41q-10 25 -28 37t-34 8t-68 -20t-73 -21q-211 -37 -305 203l213 43q23 -51 50 -47t77 21t74 22q94 16 174 -33t129 -172zM975 0h-252l-397 723v-723h-250v1229h256l393 -733v733h250v-1229z" />
    <glyph glyph-name="oacute" unicode="&#xf3;" horiz-adv-x="1161" 
d="M582 1352h-242l190 278h267zM739 307v615q-27 49 -71 75h-269q-45 -33 -75 -77v-613q41 -55 73 -76h269q38 25 73 76zM991 305q0 -74 -30 -117q-29 -43 -77 -92q-48 -50 -96 -78t-116 -28h-279q-70 0 -118 28t-96 79q-49 50 -77 91t-28 117v617q0 78 29 119t77 89t96 78
q48 29 117 29h279q70 0 129 -36t153 -150q37 -53 37 -129v-617z" />
    <glyph glyph-name="ocircumflex" unicode="&#xf4;" horiz-adv-x="1161" 
d="M475 1630h121l297 -278h-287l-71 80l-70 -80h-287zM739 307v615q-27 49 -71 75h-269q-45 -33 -75 -77v-613q41 -55 73 -76h269q38 25 73 76zM991 305q0 -74 -30 -117q-29 -43 -77 -92q-48 -50 -96 -78t-116 -28h-279q-70 0 -118 28t-96 79q-49 50 -77 91t-28 117v617
q0 78 29 119t77 89t96 78q48 29 117 29h279q70 0 129 -36t153 -150q37 -53 37 -129v-617z" />
    <glyph glyph-name="otilde" unicode="&#xf5;" horiz-adv-x="1161" 
d="M895 1440l-209 -41q-10 25 -28 37t-35 8q-15 -4 -67 -20t-73 -21q-211 -37 -305 203l213 43q23 -51 49 -47t78 21q51 17 74 22q94 16 174 -33t129 -172zM739 307v615q-27 49 -71 75h-269q-45 -33 -75 -77v-613q41 -55 73 -76h269q38 25 73 76zM991 305q0 -74 -30 -117
q-29 -43 -77 -92q-48 -50 -96 -78t-116 -28h-279q-70 0 -118 28t-96 79q-49 50 -77 91t-28 117v617q0 78 29 119t77 89t96 78q48 29 117 29h279q70 0 129 -36t153 -150q37 -53 37 -129v-617z" />
    <glyph glyph-name="odieresis" unicode="&#xf6;" horiz-adv-x="1161" 
d="M459 1364h-236v250h236v-250zM856 1364h-240v250h240v-250zM739 307v615q-27 49 -71 75h-269q-45 -33 -75 -77v-613q41 -55 73 -76h269q38 25 73 76zM991 305q0 -74 -30 -117q-29 -43 -77 -92q-48 -50 -96 -78t-116 -28h-279q-70 0 -118 28t-96 79q-49 50 -77 91t-28 117
v617q0 78 29 119t77 89t96 78q48 29 117 29h279q70 0 129 -36t153 -150q37 -53 37 -129v-617z" />
    <glyph glyph-name="divide" unicode="&#xf7;" horiz-adv-x="817" 
 />
    <glyph glyph-name="ugrave" unicode="&#xf9;" horiz-adv-x="1138" 
d="M754 1352h-242l-215 278h266zM985 305q0 -76 -29 -118q-30 -42 -76 -91q-101 -106 -212 -106h-273q-70 0 -118 28t-96 79q-49 50 -77 91t-28 117v924h250v-922q49 -61 75 -78h261q39 25 73 76v924h250v-924z" />
    <glyph glyph-name="uacute" unicode="&#xfa;" horiz-adv-x="1138" 
d="M582 1352h-242l190 278h267zM985 305q0 -76 -29 -118q-30 -42 -76 -91q-101 -106 -212 -106h-273q-70 0 -118 28t-96 79q-49 50 -77 91t-28 117v924h250v-922q49 -61 75 -78h261q39 25 73 76v924h250v-924z" />
    <glyph glyph-name="ucircumflex" unicode="&#xfb;" horiz-adv-x="1138" 
d="M475 1630h121l297 -278h-287l-71 80l-70 -80h-287zM985 305q0 -76 -29 -118q-30 -42 -76 -91q-101 -106 -212 -106h-273q-70 0 -118 28t-96 79q-49 50 -77 91t-28 117v924h250v-922q49 -61 75 -78h261q39 25 73 76v924h250v-924z" />
    <glyph glyph-name="udieresis" unicode="&#xfc;" horiz-adv-x="1138" 
d="M453 1364h-236v250h236v-250zM850 1364h-240v250h240v-250zM985 305q0 -76 -29 -118q-30 -42 -76 -91q-101 -106 -212 -106h-273q-70 0 -118 28t-96 79q-49 50 -77 91t-28 117v924h250v-922q49 -61 75 -78h261q39 25 73 76v924h250v-924z" />
    <glyph glyph-name="yacute" unicode="&#xfd;" horiz-adv-x="1046" 
d="M567 1352h-241l190 278h266zM606 0h-252v532l-411 697h282l256 -432l260 432h283l-418 -697v-532z" />
    <glyph glyph-name="ydieresis" unicode="&#xff;" horiz-adv-x="1046" 
d="M403 1364h-235v250h235v-250zM801 1364h-240v250h240v-250zM606 0h-252v532l-411 697h282l256 -432l260 432h283l-418 -697v-532z" />
    <glyph glyph-name="Amacron" unicode="&#x100;" horiz-adv-x="1167" 
d="M680 475l-139 395l-69 -198t-69 -197h277zM328 236l-84 -236h-267l426 1229h277l424 -1229h-266l-82 236h-428zM774 1399h-465v219h465v-219z" />
    <glyph glyph-name="amacron" unicode="&#x101;" horiz-adv-x="1167" 
d="M659 475l-139 395q-22 -66 -68 -198t-69 -197h276zM307 236l-84 -236h-266l426 1229h276l424 -1229h-266l-82 236h-428zM754 1399h-465v219h465v-219z" />
    <glyph glyph-name="Abreve" unicode="&#x102;" horiz-adv-x="1167" 
d="M301 1569h137q0 -35 26 -61t60 -26t57 26t23 61h137q0 -91 -63 -155q-64 -64 -154 -64t-156 64t-67 155zM659 475l-139 395q-22 -66 -68 -198t-69 -197h276zM307 236l-84 -236h-266l426 1229h276l424 -1229h-266l-82 236h-428z" />
    <glyph glyph-name="abreve" unicode="&#x103;" horiz-adv-x="1167" 
d="M301 1569h137q0 -35 26 -61t60 -26t57 26t23 61h137q0 -91 -63 -155q-64 -64 -154 -64t-156 64t-67 155zM659 475l-139 395q-22 -66 -68 -198t-69 -197h276zM307 236l-84 -236h-266l426 1229h276l424 -1229h-266l-82 236h-428z" />
    <glyph glyph-name="Aogonek" unicode="&#x104;" horiz-adv-x="1167" 
d="M913 -408l-145 267l213 61l186 -328h-254zM659 475l-139 395q-22 -66 -68 -198t-69 -197h276zM307 236l-84 -236h-266l426 1229h276l424 -1229h-266l-82 236h-428z" />
    <glyph glyph-name="aogonek" unicode="&#x105;" horiz-adv-x="1167" 
d="M899 -408l-145 267l213 61l186 -328h-254zM659 475l-139 395q-22 -66 -68 -198t-69 -197h276zM307 236l-84 -236h-266l426 1229h276l424 -1229h-266l-82 236h-428z" />
    <glyph glyph-name="Cacute" unicode="&#x106;" horiz-adv-x="1136" 
d="M616 1352h-241l190 278h266zM328 305q0 -9 28 -36t52 -40h260q57 39 104 123l234 -57q-25 -70 -70 -131q-123 -174 -270 -174h-269q-70 0 -118 28t-95 77q-47 48 -71 81q-35 55 -35 127v621q0 76 29 117t77 89q104 106 213 107h269q143 0 268 -172q41 -57 70 -131
l-232 -66q-39 82 -108 129h-256q-49 -35 -80 -82v-610z" />
    <glyph glyph-name="cacute" unicode="&#x107;" horiz-adv-x="1087" 
d="M643 -10h-235q-92 0 -148 39q-31 18 -78 66t-71 81q-35 55 -35 127v615q0 76 35 126q14 20 67 72t78 72q70 49 154 49h233q141 0 268 -170q29 -41 50 -92l-240 -66q-33 63 -86 88h-223q-53 -37 -86 -88v-610q0 -8 32 -34q32 -25 52 -36h227q49 18 84 93l240 -66l2 -2
q-58 -130 -166 -211q-72 -53 -154 -53zM623 1352h-242l190 278h267z" />
    <glyph glyph-name="Ccircumflex" unicode="&#x108;" horiz-adv-x="1136" 
d="M467 1630h121l297 -278h-287l-72 80l-69 -80h-287zM328 305q0 -9 28 -36t52 -40h260q57 39 104 123l234 -57q-25 -70 -70 -131q-123 -174 -270 -174h-269q-70 0 -118 28t-95 77q-47 48 -71 81q-35 55 -35 127v621q0 76 29 117t77 89q104 106 213 107h269q143 0 268 -172
q41 -57 70 -131l-232 -66q-39 82 -108 129h-256q-49 -35 -80 -82v-610z" />
    <glyph glyph-name="ccircumflex" unicode="&#x109;" horiz-adv-x="1087" 
d="M457 1630h121l296 -278h-286l-72 80l-70 -80h-286zM645 -10h-235q-92 0 -148 39q-31 18 -78 66t-71 81q-35 55 -35 127v615q0 76 35 126q14 20 67 72t78 72q70 49 154 49h233q141 0 268 -170q29 -41 50 -92l-240 -66q-33 63 -86 88h-223q-53 -37 -86 -88v-610
q0 -8 32 -34q32 -25 52 -36h227q49 18 84 93l240 -66l2 -2q-58 -130 -166 -211q-72 -53 -154 -53z" />
    <glyph glyph-name="Cdotaccent" unicode="&#x10a;" horiz-adv-x="1136" 
d="M664 1401h-258v254h258v-254zM328 305q0 -9 28 -36t52 -40h260q57 39 104 123l234 -57q-25 -70 -70 -131q-123 -174 -270 -174h-269q-70 0 -118 28t-95 77q-47 48 -71 81q-35 55 -35 127v621q0 76 29 117t77 89q104 106 213 107h269q143 0 268 -172q41 -57 70 -131
l-232 -66q-39 82 -108 129h-256q-49 -35 -80 -82v-610z" />
    <glyph glyph-name="cdotaccent" unicode="&#x10b;" horiz-adv-x="1087" 
d="M666 1401h-258v254h258v-254zM645 -10h-235q-92 0 -148 39q-31 18 -78 66t-71 81q-35 55 -35 127v615q0 76 35 126q14 20 67 72t78 72q70 49 154 49h233q141 0 268 -170q29 -41 50 -92l-240 -66q-33 63 -86 88h-223q-53 -37 -86 -88v-610q0 -8 32 -34q32 -25 52 -36h227
q49 18 84 93l240 -66l2 -2q-58 -130 -166 -211q-72 -53 -154 -53z" />
    <glyph glyph-name="Ccaron" unicode="&#x10c;" horiz-adv-x="1136" 
d="M582 1352h-121l-297 278h287l71 -80l70 80h287zM328 305q0 -9 28 -36t52 -40h260q57 39 104 123l234 -57q-25 -70 -70 -131q-123 -174 -270 -174h-269q-70 0 -118 28t-95 77q-47 48 -71 81q-35 55 -35 127v621q0 76 29 117t77 89q104 106 213 107h269q143 0 268 -172
q41 -57 70 -131l-232 -66q-39 82 -108 129h-256q-49 -35 -80 -82v-610z" />
    <glyph glyph-name="ccaron" unicode="&#x10d;" horiz-adv-x="1087" 
d="M580 1352h-121l-297 278h287l71 -80l70 80h287zM645 -10h-235q-92 0 -148 39q-31 18 -78 66t-71 81q-35 55 -35 127v615q0 76 35 126q14 20 67 72t78 72q70 49 154 49h233q141 0 268 -170q29 -41 50 -92l-240 -66q-33 63 -86 88h-223q-53 -37 -86 -88v-610q0 -8 32 -34
q32 -25 52 -36h227q49 18 84 93l240 -66l2 -2q-58 -130 -166 -211q-72 -53 -154 -53z" />
    <glyph glyph-name="Dcaron" unicode="&#x10e;" horiz-adv-x="1144" 
d="M575 1352h-120l-297 278h286l72 -80l70 80h286zM326 989v-749h336q48 28 75 77v588q-20 51 -75 84h-336zM987 309q0 -74 -28 -116q-27 -42 -75 -89q-105 -104 -212 -104h-596v1229h596q78 0 138 -39t142 -148q35 -49 35 -127v-606z" />
    <glyph glyph-name="dcaron" unicode="&#x10f;" horiz-adv-x="1144" 
d="M573 1352h-120l-297 278h286l72 -80l70 80h286zM326 989v-749h325q49 28 76 77v588q-20 51 -76 84h-325zM977 309q0 -74 -28 -116t-76 -89q-106 -104 -211 -104h-586v1229h586q76 0 137 -39t143 -148q35 -49 35 -127v-606z" />
    <glyph glyph-name="Dcroat" unicode="&#x110;" horiz-adv-x="1206" 
d="M588 502h-201v-262h326q49 29 75 77v588q-20 51 -75 84h-326v-258h201v-229zM1038 309q0 -74 -28 -116t-75 -89q-106 -104 -212 -104h-586v502h-160v229h160v498h586q76 0 137 -39t144 -148q35 -49 34 -127v-606z" />
    <glyph glyph-name="dcroat" unicode="&#x111;" horiz-adv-x="1144" 
d="M526 502h-200v-262h325q49 29 76 77v588q-20 51 -76 84h-325v-258h200v-229zM977 309q0 -74 -28 -116t-76 -89q-106 -104 -211 -104h-586v502h-160v229h160v498h586q76 0 137 -39t143 -148q35 -49 35 -127v-606z" />
    <glyph glyph-name="Emacron" unicode="&#x112;" 
d="M883 0h-807v1229h807v-240h-557v-252h538v-239h-538v-258h557v-240zM713 1399h-465v219h465v-219z" />
    <glyph glyph-name="emacron" unicode="&#x113;" 
d="M862 0h-786v1229h786v-240h-536v-254h518v-239h-518v-256h536v-240zM713 1399h-465v219h465v-219z" />
    <glyph glyph-name="Ebreve" unicode="&#x114;" 
d="M580 1569h137q1 -91 -63 -155t-154 -64t-157 64t-67 155h138q0 -35 26 -61t59 -26t57 26t24 61zM883 0h-807v1229h807v-240h-557v-252h538v-239h-538v-258h557v-240z" />
    <glyph glyph-name="ebreve" unicode="&#x115;" 
d="M580 1569h137q1 -91 -63 -155t-154 -64t-157 64t-67 155h138q0 -35 26 -61t59 -26t57 26t24 61zM883 0h-807v1229h807v-240h-557v-252h538v-239h-538v-258h557v-240z" />
    <glyph glyph-name="Edotaccent" unicode="&#x116;" 
d="M612 1401h-258v254h258v-254zM883 0h-807v1229h807v-240h-557v-252h538v-239h-538v-258h557v-240z" />
    <glyph glyph-name="edotaccent" unicode="&#x117;" 
d="M612 1401h-258v254h258v-254zM883 0h-807v1229h807v-240h-557v-252h538v-239h-538v-258h557v-240z" />
    <glyph glyph-name="Eogonek" unicode="&#x118;" 
d="M483 -408l-145 267l213 61l186 -328h-254zM883 0h-807v1229h807v-240h-557v-252h538v-239h-538v-258h557v-240z" />
    <glyph glyph-name="eogonek" unicode="&#x119;" 
d="M483 -408l-145 267l213 61l186 -328h-254zM883 0h-807v1229h807v-240h-557v-252h538v-239h-538v-258h557v-240z" />
    <glyph glyph-name="Ecaron" unicode="&#x11a;" 
d="M537 1352h-121l-297 278h287l71 -80l70 80h287zM883 0h-807v1229h807v-240h-557v-252h538v-239h-538v-258h557v-240z" />
    <glyph glyph-name="ecaron" unicode="&#x11b;" 
d="M537 1352h-121l-297 278h287l71 -80l70 80h287zM883 0h-807v1229h807v-240h-557v-252h538v-239h-538v-258h557v-240z" />
    <glyph glyph-name="Gcircumflex" unicode="&#x11c;" horiz-adv-x="1214" 
d="M494 1630h120l297 -278h-286l-72 80l-70 -80h-286zM395 1237h312q143 0 268 -172q41 -57 69 -131l-231 -66q-39 82 -108 129h-299q-49 -33 -80 -79v-621q0 -8 26 -32t49 -36h299q23 10 51 37t27 37v184h-280v234h530v-461q0 -31 14 -117l25 -145h-248l-8 37
q-4 -2 -40 -24t-66 -21h-310q-70 0 -118 28t-96 76q-49 47 -77 91t-28 116v623q0 78 29 119q80 113 171 167q47 28 119 27z" />
    <glyph glyph-name="gcircumflex" unicode="&#x11d;" horiz-adv-x="1177" 
d="M481 1630h121l297 -278h-287l-71 80l-70 -80h-287zM670 -10h-273q-70 0 -118 28t-96 76q-49 47 -77 91t-28 116v625q0 78 35 129q76 102 133 135q76 49 151 49h287q141 0 268 -170q27 -35 52 -92l-242 -66q-33 63 -86 88h-270q-53 -39 -78 -75v-627q0 -9 28 -33t47 -35
h254q80 49 80 74v184h-186v234h436v-459q0 -37 10 -90l33 -172h-246l-10 53q-68 -63 -104 -63z" />
    <glyph glyph-name="Gbreve" unicode="&#x11e;" horiz-adv-x="1214" 
d="M352 1569h137q0 -35 26 -61q25 -26 59 -26t58 26q23 26 23 61h138q1 -91 -63 -155t-154 -64t-158 64q-66 64 -66 155zM395 1237h312q143 0 268 -172q41 -57 69 -131l-231 -66q-39 82 -108 129h-299q-49 -33 -80 -79v-621q0 -8 26 -32t49 -36h299q23 10 51 37t27 37v184
h-280v234h530v-461q0 -31 14 -117l25 -145h-248l-8 37q-4 -2 -40 -24t-66 -21h-310q-70 0 -118 28t-96 76q-49 47 -77 91t-28 116v623q0 78 29 119q80 113 171 167q47 28 119 27z" />
    <glyph glyph-name="gbreve" unicode="&#x11f;" horiz-adv-x="1177" 
d="M633 1569h137q0 -91 -63 -155t-153 -64t-158 64q-67 64 -66 155h137q0 -35 26 -61q25 -26 59 -26t58 26t23 61zM670 -10h-273q-70 0 -118 28t-96 76q-49 47 -77 91t-28 116v625q0 78 35 129q76 102 133 135q76 49 151 49h287q141 0 268 -170q27 -35 52 -92l-242 -66
q-33 63 -86 88h-270q-53 -39 -78 -75v-627q0 -9 28 -33t47 -35h254q80 49 80 74v184h-186v234h436v-459q0 -37 10 -90l33 -172h-246l-10 53q-68 -63 -104 -63z" />
    <glyph glyph-name="Gdotaccent" unicode="&#x120;" horiz-adv-x="1214" 
d="M711 1401h-258v254h258v-254zM395 1237h312q143 0 268 -172q41 -57 69 -131l-231 -66q-39 82 -108 129h-299q-49 -33 -80 -79v-621q0 -8 26 -32t49 -36h299q23 10 51 37t27 37v184h-280v234h530v-461q0 -31 14 -117l25 -145h-248l-8 37q-4 -2 -40 -24t-66 -21h-310
q-70 0 -118 28t-96 76q-49 47 -77 91t-28 116v623q0 78 29 119q80 113 171 167q47 28 119 27z" />
    <glyph glyph-name="gdotaccent" unicode="&#x121;" horiz-adv-x="1177" 
d="M692 1401h-258v254h258v-254zM670 -10h-273q-70 0 -118 28t-96 76q-49 47 -77 91t-28 116v625q0 78 35 129q76 102 133 135q76 49 151 49h287q141 0 268 -170q27 -35 52 -92l-242 -66q-33 63 -86 88h-270q-53 -39 -78 -75v-627q0 -9 28 -33t47 -35h254q80 49 80 74v184
h-186v234h436v-459q0 -37 10 -90l33 -172h-246l-10 53q-68 -63 -104 -63z" />
    <glyph glyph-name="Gcommaaccent" unicode="&#x122;" horiz-adv-x="1214" 
d="M655 -141l-145 -267h-254l186 328zM395 1237h312q143 0 268 -172q41 -57 69 -131l-231 -66q-39 82 -108 129h-299q-49 -33 -80 -79v-621q0 -8 26 -32t49 -36h299q23 10 51 37t27 37v184h-280v234h530v-461q0 -31 14 -117l25 -145h-248l-8 37q-4 -2 -40 -24t-66 -21h-310
q-70 0 -118 28t-96 76q-49 47 -77 91t-28 116v623q0 78 29 119q80 113 171 167q47 28 119 27z" />
    <glyph glyph-name="gcommaaccent" unicode="&#x123;" horiz-adv-x="1177" 
d="M655 -141l-145 -267h-254l186 328zM670 -10h-273q-70 0 -118 28t-96 76q-49 47 -77 91t-28 116v625q0 78 35 129q76 102 133 135q76 49 151 49h287q141 0 268 -170q27 -35 52 -92l-242 -66q-33 63 -86 88h-270q-53 -39 -78 -75v-627q0 -9 28 -33t47 -35h254q80 49 80 74
v184h-186v234h436v-459q0 -37 10 -90l33 -172h-246l-10 53q-68 -63 -104 -63z" />
    <glyph glyph-name="Hcircumflex" unicode="&#x124;" horiz-adv-x="1161" 
d="M463 1630h121l297 -278h-287l-72 80l-69 -80h-287zM985 0h-250v496h-409v-496h-250v1229h250v-494h409v494h250v-1229z" />
    <glyph glyph-name="hcircumflex" unicode="&#x125;" horiz-adv-x="1161" 
d="M463 1630h121l297 -278h-287l-72 80l-69 -80h-287zM985 0h-250v496h-409v-496h-250v1229h250v-494h409v494h250v-1229z" />
    <glyph glyph-name="Hbar" unicode="&#x126;" horiz-adv-x="1161" 
d="M326 735h409v199h-409v-199zM985 0h-250v496h-409v-496h-250v934h-76v227h76v68h250v-68h409v68h250v-68h82v-227h-82v-934z" />
    <glyph glyph-name="hbar" unicode="&#x127;" horiz-adv-x="1161" 
d="M326 735h409v199h-409v-199zM985 0h-250v496h-409v-496h-250v934h-76v227h76v68h250v-68h409v68h250v-68h82v-227h-82v-934z" />
    <glyph glyph-name="Itilde" unicode="&#x128;" horiz-adv-x="501" 
d="M555 1440l-209 -41q-10 25 -28 37t-35 8q-15 -4 -67 -20t-73 -21q-211 -37 -305 203l213 43q23 -51 49 -47t78 21q51 17 74 22q94 16 174 -33t129 -172zM326 0h-252v1229h252v-1229z" />
    <glyph glyph-name="itilde" unicode="&#x129;" horiz-adv-x="501" 
d="M555 1440l-209 -41q-10 25 -28 37t-35 8q-15 -4 -67 -20t-73 -21q-211 -37 -305 203l213 43q23 -51 49 -47t78 21q51 17 74 22q94 16 174 -33t129 -172zM326 0h-252v1229h252v-1229z" />
    <glyph glyph-name="Imacron" unicode="&#x12a;" horiz-adv-x="509" 
d="M336 0h-252v1229h252v-1229zM440 1399h-465v219h465v-219z" />
    <glyph glyph-name="imacron" unicode="&#x12b;" horiz-adv-x="512" 
d="M336 0h-252v1229h252v-1229zM434 1399h-465v219h465v-219z" />
    <glyph glyph-name="Ibreve" unicode="&#x12c;" horiz-adv-x="501" 
d="M285 1569h137q0 -91 -64 -155t-153 -64q-90 0 -157 64t-66 155h137q-1 -35 25 -61t60 -26t58 26t23 61zM326 0h-252v1229h252v-1229z" />
    <glyph glyph-name="ibreve" unicode="&#x12d;" horiz-adv-x="501" 
d="M285 1569h137q0 -91 -64 -155t-153 -64q-90 0 -157 64t-66 155h137q-1 -35 25 -61t60 -26t58 26t23 61zM326 0h-252v1229h252v-1229z" />
    <glyph glyph-name="Iogonek" unicode="&#x12e;" horiz-adv-x="501" 
d="M213 -408l-145 267l213 61l186 -328h-254zM326 0h-252v1229h252v-1229z" />
    <glyph glyph-name="iogonek" unicode="&#x12f;" horiz-adv-x="501" 
d="M213 -408l-145 267l213 61l186 -328h-254zM326 0h-252v1229h252v-1229z" />
    <glyph glyph-name="Idotaccent" unicode="&#x130;" horiz-adv-x="501" 
d="M328 1401h-258v254h258v-254zM326 0h-252v1229h252v-1229z" />
    <glyph glyph-name="dotlessi" unicode="&#x131;" horiz-adv-x="501" 
d="M326 0h-252v1229h252v-1229z" />
    <glyph glyph-name="IJ" unicode="&#x132;" horiz-adv-x="1466" 
d="M897 -12v2h-74q-147 0 -270 174q-45 61 -70 131l234 57q47 -84 104 -123h148q12 0 44 31t31 39v930h250v-928q0 -70 -39 -127q-18 -29 -66 -79q-103 -107 -214 -107h-78zM326 0h-252v1229h252v-1229z" />
    <glyph glyph-name="ij" unicode="&#x133;" horiz-adv-x="1427" 
d="M1262 303q0 -72 -35 -127q-23 -31 -71 -79t-81 -68h2q-66 -39 -133 -39h-147q-145 0 -275 174q-16 23 -41 92l240 66q29 -66 74 -93h143q7 -1 35 25t39 45v930h250v-926zM326 0h-252v1229h252v-1229z" />
    <glyph glyph-name="Jcircumflex" unicode="&#x134;" horiz-adv-x="952" 
d="M588 1630h121l297 -278h-287l-72 80l-69 -80h-287zM383 -12v2h-74q-147 0 -270 174q-45 61 -70 131l234 57q47 -84 104 -123h148q12 0 44 31t31 39v930h250v-928q0 -70 -39 -127q-18 -29 -66 -79q-103 -107 -214 -107h-78z" />
    <glyph glyph-name="jcircumflex" unicode="&#x135;" horiz-adv-x="925" 
d="M569 1630h121l297 -278h-287l-71 80l-70 -80h-287zM760 303q0 -72 -35 -127q-23 -31 -71 -79t-81 -68h2q-66 -39 -133 -39h-147q-145 0 -275 174q-16 23 -40 92l239 66q29 -66 74 -93h143q9 -1 36 25t38 45v930h250v-926z" />
    <glyph glyph-name="Kcommaaccent" unicode="&#x136;" horiz-adv-x="1087" 
d="M326 508v-508h-250v1229h250v-500h20q6 0 279 375l90 125h295l-453 -606l459 -623h-303l-367 508h-20zM655 -141l-145 -267h-254l186 328z" />
    <glyph glyph-name="kcommaaccent" unicode="&#x137;" horiz-adv-x="1087" 
d="M326 508v-508h-250v1229h250v-500h20q6 0 279 375l90 125h295l-453 -606l459 -623h-303l-367 508h-20zM655 -141l-145 -267h-254l186 328z" />
    <glyph glyph-name="kgreenlandic" unicode="&#x138;" horiz-adv-x="1087" 
d="M326 508v-508h-250v1229h250v-500h20q12 0 367 496l-2 4h309v-238h-189l-274 -368l459 -623h-303l-367 508h-20z" />
    <glyph glyph-name="lacute" unicode="&#x13a;" horiz-adv-x="960" 
d="M315 1352h-241l190 278h266zM870 0h-794v1229h250v-987h544v-242z" />
    <glyph glyph-name="Lcommaaccent" unicode="&#x13b;" horiz-adv-x="960" 
d="M870 0h-794v1229h250v-987h544v-242zM655 -141l-145 -267h-254l186 328z" />
    <glyph glyph-name="lcommaaccent" unicode="&#x13c;" horiz-adv-x="960" 
d="M870 0h-794v1229h250v-987h544v-242zM655 -141l-145 -267h-254l186 328z" />
    <glyph glyph-name="Lcaron" unicode="&#x13d;" horiz-adv-x="960" 
d="M870 0h-794v1229h250v-987h544v-242zM518 1323h242v-301l-21 -158h-241l20 187v272z" />
    <glyph glyph-name="lcaron" unicode="&#x13e;" horiz-adv-x="960" 
d="M870 0h-794v1229h250v-987h544v-242zM518 1323h242v-301l-21 -158h-241l20 187v272z" />
    <glyph glyph-name="Ldot" unicode="&#x13f;" horiz-adv-x="960" 
d="M762 485h-258v254h258v-254zM870 0h-794v1229h250v-987h544v-242z" />
    <glyph glyph-name="ldot" unicode="&#x140;" horiz-adv-x="960" 
d="M762 485h-258v254h258v-254zM870 0h-794v1229h250v-987h544v-242z" />
    <glyph glyph-name="Lslash" unicode="&#x141;" horiz-adv-x="960" 
d="M326 240h544v-242h-794v401l-66 -34l-108 202l174 92v568h250v-434l114 61l109 -203l-223 -119v-292z" />
    <glyph glyph-name="lslash" unicode="&#x142;" horiz-adv-x="960" 
d="M326 240h544v-242h-794v401l-66 -34l-108 202l174 92v568h250v-434l114 61l109 -203l-223 -119v-292z" />
    <glyph glyph-name="Nacute" unicode="&#x143;" horiz-adv-x="1153" 
d="M600 1352h-242l191 278h266zM975 0h-252l-397 723v-723h-250v1229h256l393 -733v733h250v-1229z" />
    <glyph glyph-name="nacute" unicode="&#x144;" horiz-adv-x="1153" 
d="M600 1352h-242l191 278h266zM975 0h-252l-397 723v-723h-250v1229h256l393 -733v733h250v-1229z" />
    <glyph glyph-name="Ncommaaccent" unicode="&#x145;" horiz-adv-x="1153" 
d="M975 0h-252l-397 723v-723h-250v1229h256l393 -733v733h250v-1229zM655 -141l-145 -267h-254l186 328z" />
    <glyph glyph-name="ncommaaccent" unicode="&#x146;" horiz-adv-x="1153" 
d="M975 0h-252l-397 723v-723h-250v1229h256l393 -733v733h250v-1229zM655 -141l-145 -267h-254l186 328z" />
    <glyph glyph-name="Ncaron" unicode="&#x147;" horiz-adv-x="1153" 
d="M575 1352h-120l-297 278h286l72 -80l70 80h286zM975 0h-252l-397 723v-723h-250v1229h256l393 -733v733h250v-1229z" />
    <glyph glyph-name="ncaron" unicode="&#x148;" horiz-adv-x="1153" 
d="M575 1352h-120l-297 278h286l72 -80l70 80h286zM975 0h-252l-397 723v-723h-250v1229h256l393 -733v733h250v-1229z" />
    <glyph glyph-name="napostrophe" unicode="&#x149;" horiz-adv-x="1372" 
d="M1194 0h-252l-397 723v-723h-250v1229h256l393 -733v733h250v-1229zM-37 1323h242v-301l-21 -158h-241l20 187v272z" />
    <glyph glyph-name="Eng" unicode="&#x14a;" horiz-adv-x="1153" 
d="M973 -106q0 -72 -35 -127q-23 -31 -71 -79t-81 -69h2q-66 -39 -133 -39h-143l-2 240h139q11 0 37 26t37 43v111l-397 723v-723h-250v1229h256l391 -729l2 729h250v-1229h-2v-106z" />
    <glyph glyph-name="eng" unicode="&#x14b;" horiz-adv-x="1153" 
d="M973 -106q0 -72 -35 -127q-23 -31 -71 -79t-81 -69h2q-66 -39 -133 -39h-143l-2 240h139q11 0 37 26t37 43v111l-397 723v-723h-250v1229h256l391 -729l2 729h250v-1229h-2v-106z" />
    <glyph glyph-name="Omacron" unicode="&#x14c;" horiz-adv-x="1189" 
d="M791 1399h-465v219h465v-219zM772 305v617q-29 49 -74 75h-301q-45 -33 -75 -77v-615q41 -55 73 -76h301q39 29 76 76zM1022 305q0 -76 -35 -127q-87 -112 -151 -150t-134 -38h-311q-70 0 -118 28t-96 79q-48 50 -77 91t-28 117v617q0 78 28 119t77 89t97 78
q48 29 117 29h311q70 0 132 -36t153 -150q35 -51 35 -129v-617z" />
    <glyph glyph-name="omacron" unicode="&#x14d;" horiz-adv-x="1161" 
d="M739 307v615q-27 49 -71 75h-269q-45 -33 -75 -77v-613q41 -55 73 -76h269q38 25 73 76zM991 305q0 -74 -30 -117q-29 -43 -77 -92q-48 -50 -96 -78t-116 -28h-279q-70 0 -118 28t-96 79q-49 50 -77 91t-28 117v617q0 78 29 119t77 89t96 78q48 29 117 29h279
q70 0 129 -36t153 -150q37 -53 37 -129v-617zM770 1399h-465v219h465v-219z" />
    <glyph glyph-name="Obreve" unicode="&#x14e;" horiz-adv-x="1189" 
d="M772 305v617q-29 49 -74 75h-301q-45 -33 -75 -77v-615q41 -55 73 -76h301q39 29 76 76zM1022 305q0 -76 -35 -127q-87 -112 -151 -150t-134 -38h-311q-70 0 -118 28t-96 79q-48 50 -77 91t-28 117v617q0 78 28 119t77 89t97 78q48 29 117 29h311q70 0 132 -36t153 -150
q35 -51 35 -129v-617zM473 1569q0 -35 26 -61q25 -26 59 -26t58 26t23 61h137q0 -91 -63 -155t-153 -64t-158 64q-67 64 -66 155h137z" />
    <glyph glyph-name="obreve" unicode="&#x14f;" horiz-adv-x="1161" 
d="M627 1569h137q0 -91 -64 -155t-153 -64q-90 0 -157 64t-66 155h137q-1 -35 25 -61t60 -26t58 26t23 61zM739 307v615q-27 49 -71 75h-269q-45 -33 -75 -77v-613q41 -55 73 -76h269q38 25 73 76zM991 305q0 -74 -30 -117q-29 -43 -77 -92q-48 -50 -96 -78t-116 -28h-279
q-70 0 -118 28t-96 79q-49 50 -77 91t-28 117v617q0 78 29 119t77 89t96 78q48 29 117 29h279q70 0 129 -36t153 -150q37 -53 37 -129v-617z" />
    <glyph glyph-name="Ohungarumlaut" unicode="&#x150;" horiz-adv-x="1189" 
d="M481 1352h-209l150 278h213zM795 1352h-209l149 278h213zM772 305v617q-29 49 -74 75h-301q-45 -33 -75 -77v-615q41 -55 73 -76h301q39 29 76 76zM1022 305q0 -76 -35 -127q-87 -112 -151 -150t-134 -38h-311q-70 0 -118 28t-96 79q-48 50 -77 91t-28 117v617
q0 78 28 119t77 89t97 78q48 29 117 29h311q70 0 132 -36t153 -150q35 -51 35 -129v-617z" />
    <glyph glyph-name="ohungarumlaut" unicode="&#x151;" horiz-adv-x="1161" 
d="M739 307v615q-27 49 -71 75h-269q-45 -33 -75 -77v-613q41 -55 73 -76h269q38 25 73 76zM991 305q0 -74 -30 -117q-29 -43 -77 -92q-48 -50 -96 -78t-116 -28h-279q-70 0 -118 28t-96 79q-49 50 -77 91t-28 117v617q0 78 29 119t77 89t96 78q48 29 117 29h279
q70 0 129 -36t153 -150q37 -53 37 -129v-617zM481 1352h-209l150 278h213zM795 1352h-209l149 278h213z" />
    <glyph glyph-name="OE" unicode="&#x152;" horiz-adv-x="1665" 
d="M723 307v615q-27 49 -72 75h-248q-45 -33 -75 -77v-613q41 -55 73 -76h248q39 25 74 76zM1491 0h-737v10q-51 -20 -99 -20h-258q-70 0 -118 28t-96 79q-49 50 -77 91t-28 117v617q0 78 29 119t77 89t96 78q48 29 117 29h258q47 0 99 -20v12h737v-240h-516v-254h498v-239
h-498v-256h516v-240z" />
    <glyph glyph-name="oe" unicode="&#x153;" horiz-adv-x="1665" 
d="M723 307v615q-27 49 -72 75h-248q-45 -33 -75 -77v-613q41 -55 73 -76h248q39 25 74 76zM1491 0h-737v10q-51 -20 -99 -20h-258q-70 0 -118 28t-96 79q-49 50 -77 91t-28 117v617q0 78 29 119t77 89t96 78q48 29 117 29h258q47 0 99 -20v12h737v-240h-516v-254h498v-239
h-498v-256h516v-240z" />
    <glyph glyph-name="Racute" unicode="&#x154;" horiz-adv-x="1157" 
d="M569 1352h-241l190 278h266zM326 989v-280h348q6 -1 26 17t27 32v182q-20 33 -53 49h-348zM977 760q0 -76 -39 -133q-12 -20 -58 -66t-102 -74l266 -487h-278l-244 469h-196v-469h-250v1229h598q90 0 152 -47q62 -46 106 -106t45 -142v-174z" />
    <glyph glyph-name="racute" unicode="&#x155;" horiz-adv-x="1122" 
d="M326 989v-280h327q6 -1 26 17t28 32v182q-20 33 -54 49h-327zM956 760q0 -76 -38 -133q-12 -20 -62 -69t-96 -69l258 -489h-279l-233 469h-180v-469h-250v1229h577q91 0 153 -47q62 -46 106 -106t44 -142v-174zM602 1352h-242l191 278h266z" />
    <glyph glyph-name="Rcommaaccent" unicode="&#x156;" horiz-adv-x="1157" 
d="M655 -141l-145 -267h-254l186 328zM326 989v-280h348q6 -1 26 17t27 32v182q-20 33 -53 49h-348zM977 760q0 -76 -39 -133q-12 -20 -58 -66t-102 -74l266 -487h-278l-244 469h-196v-469h-250v1229h598q90 0 152 -47q62 -46 106 -106t45 -142v-174z" />
    <glyph glyph-name="rcommaaccent" unicode="&#x157;" horiz-adv-x="1157" 
d="M655 -141l-145 -267h-254l186 328zM326 989v-280h348q6 -1 26 17t27 32v182q-20 33 -53 49h-348zM977 760q0 -76 -39 -133q-12 -20 -58 -66t-102 -74l266 -487h-278l-244 469h-196v-469h-250v1229h598q90 0 152 -47q62 -46 106 -106t45 -142v-174z" />
    <glyph glyph-name="Rcaron" unicode="&#x158;" horiz-adv-x="1157" 
d="M580 1352h-121l-297 278h287l71 -80l70 80h287zM326 989v-280h348q6 -1 26 17t27 32v182q-20 33 -53 49h-348zM977 760q0 -76 -39 -133q-12 -20 -58 -66t-102 -74l266 -487h-278l-244 469h-196v-469h-250v1229h598q90 0 152 -47q62 -46 106 -106t45 -142v-174z" />
    <glyph glyph-name="rcaron" unicode="&#x159;" horiz-adv-x="1157" 
d="M580 1352h-121l-297 278h287l71 -80l70 80h287zM326 989v-280h348q6 -1 26 17t27 32v182q-20 33 -53 49h-348zM977 760q0 -76 -39 -133q-12 -20 -58 -66t-102 -74l266 -487h-278l-244 469h-196v-469h-250v1229h598q90 0 152 -47q62 -46 106 -106t45 -142v-174z" />
    <glyph glyph-name="Sacute" unicode="&#x15a;" horiz-adv-x="1157" 
d="M616 1352h-241l190 278h266zM1016 426v-121q0 -70 -28 -114t-78 -94q-106 -107 -216 -107h-313q-147 0 -270 174q-45 61 -70 131l231 72q59 -106 107 -138h311q31 18 53 43q21 25 21 27v121l-6 12q-74 20 -249 68t-263 70q-88 24 -132 92t-44 147v113q0 78 26 118t76 88
t84 70q70 39 133 39h291q143 0 268 -172q41 -57 70 -131l-232 -66q-39 82 -108 129h-283q-36 -21 -56 -45q-19 -24 -20 -26v-109l7 -12l520 -141q80 -23 125 -91t45 -147z" />
    <glyph glyph-name="sacute" unicode="&#x15b;" horiz-adv-x="1103" 
d="M600 1352h-242l191 278h266zM969 303q1 -77 -23 -113t-74 -88t-73 -69q-63 -45 -154 -45h-295q-141 0 -268 172q-10 10 -51 94l243 65q27 -61 76 -92h303q27 18 46 43q20 25 20 27v123l-6 12q-72 20 -238 68t-250 70q-84 24 -129 92t-45 147v113q0 78 33 129q16 20 64 71
t71 68q70 49 154 49h262q82 0 155 -53q72 -52 108 -110t54 -99l-239 -66q-27 53 -86 88h-242q-31 -14 -57 -42q-27 -29 -27 -31v-109l6 -12q92 -27 265 -76t241 -69t112 -88q44 -69 44 -146v-123z" />
    <glyph glyph-name="Scircumflex" unicode="&#x15c;" horiz-adv-x="1157" 
d="M483 1630h121l297 -278h-287l-71 80l-70 -80h-287zM1016 426v-121q0 -70 -28 -114t-78 -94q-106 -107 -216 -107h-313q-147 0 -270 174q-45 61 -70 131l231 72q59 -106 107 -138h311q31 18 53 43q21 25 21 27v121l-6 12q-74 20 -249 68t-263 70q-88 24 -132 92t-44 147
v113q0 78 26 118t76 88t84 70q70 39 133 39h291q143 0 268 -172q41 -57 70 -131l-232 -66q-39 82 -108 129h-283q-36 -21 -56 -45q-19 -24 -20 -26v-109l7 -12l520 -141q80 -23 125 -91t45 -147z" />
    <glyph glyph-name="scircumflex" unicode="&#x15d;" horiz-adv-x="1103" 
d="M436 1630h121l297 -278h-287l-71 80l-70 -80h-287zM969 303q1 -77 -23 -113t-74 -88t-73 -69q-63 -45 -154 -45h-295q-141 0 -268 172q-10 10 -51 94l243 65q27 -61 76 -92h303q27 18 46 43q20 25 20 27v123l-6 12q-72 20 -238 68t-250 70q-84 24 -129 92t-45 147v113
q0 78 33 129q16 20 64 71t71 68q70 49 154 49h262q82 0 155 -53q72 -52 108 -110t54 -99l-239 -66q-27 53 -86 88h-242q-31 -14 -57 -42q-27 -29 -27 -31v-109l6 -12q92 -27 265 -76t241 -69t112 -88q44 -69 44 -146v-123z" />
    <glyph glyph-name="Scaron" unicode="&#x160;" horiz-adv-x="1157" 
d="M582 1352h-121l-297 278h287l71 -80l70 80h287zM1016 426v-121q0 -70 -28 -114t-78 -94q-106 -107 -216 -107h-313q-147 0 -270 174q-45 61 -70 131l231 72q59 -106 107 -138h311q31 18 53 43q21 25 21 27v121l-6 12q-74 20 -249 68t-263 70q-88 24 -132 92t-44 147v113
q0 78 26 118t76 88t84 70q70 39 133 39h291q143 0 268 -172q41 -57 70 -131l-232 -66q-39 82 -108 129h-283q-36 -21 -56 -45q-19 -24 -20 -26v-109l7 -12l520 -141q80 -23 125 -91t45 -147z" />
    <glyph glyph-name="scaron" unicode="&#x161;" horiz-adv-x="1103" 
d="M563 1352h-121l-297 278h287l72 -80l69 80h287zM969 303q1 -77 -23 -113t-74 -88t-73 -69q-63 -45 -154 -45h-295q-141 0 -268 172q-10 10 -51 94l243 65q27 -61 76 -92h303q27 18 46 43q20 25 20 27v123l-6 12q-72 20 -238 68t-250 70q-84 24 -129 92t-45 147v113
q0 78 33 129q16 20 64 71t71 68q70 49 154 49h262q82 0 155 -53q72 -52 108 -110t54 -99l-239 -66q-27 53 -86 88h-242q-31 -14 -57 -42q-27 -29 -27 -31v-109l6 -12q92 -27 265 -76t241 -69t112 -88q44 -69 44 -146v-123z" />
    <glyph glyph-name="Tcommaaccent" unicode="&#x162;" horiz-adv-x="1054" 
d="M641 -141l-156 -285h-266l197 356zM944 989h-330v-989h-252v989h-331v240h913v-240z" />
    <glyph glyph-name="tcommaaccent" unicode="&#x163;" horiz-adv-x="1054" 
d="M635 -141l-146 -267h-245l186 328zM944 989h-330v-989h-252v989h-331v240h913v-240z" />
    <glyph glyph-name="Tcaron" unicode="&#x164;" horiz-adv-x="1054" 
d="M543 1352h-121l-297 278h287l71 -80l70 80h287zM944 989h-330v-989h-252v989h-331v240h913v-240z" />
    <glyph glyph-name="tcaron" unicode="&#x165;" horiz-adv-x="1054" 
d="M543 1352h-121l-297 278h287l71 -80l70 80h287zM944 989h-330v-989h-252v989h-331v240h913v-240z" />
    <glyph glyph-name="Tbar" unicode="&#x166;" horiz-adv-x="1054" 
d="M831 512h-231v-512h-252v512h-246v233h246v244h-332v240h914v-240h-330v-244h231v-233z" />
    <glyph glyph-name="tbar" unicode="&#x167;" horiz-adv-x="1054" 
d="M831 512h-231v-512h-252v512h-246v233h246v244h-332v240h914v-240h-330v-244h231v-233z" />
    <glyph glyph-name="Utilde" unicode="&#x168;" horiz-adv-x="1173" 
d="M1006 305q0 -76 -29 -118t-76 -91q-102 -106 -213 -106h-293q-70 0 -118 28t-96 79q-49 50 -77 91t-28 117v924h250v-922q49 -61 75 -78h281q39 25 74 76v924h250v-924zM895 1440l-209 -41q-10 25 -28 37t-35 8q-15 -4 -67 -20t-73 -21q-211 -37 -305 203l213 43
q23 -51 49 -47t78 21q51 17 74 22q94 16 174 -33t129 -172z" />
    <glyph glyph-name="utilde" unicode="&#x169;" horiz-adv-x="1138" 
d="M895 1440l-209 -41q-10 25 -28 37t-35 8q-15 -4 -67 -20t-73 -21q-211 -37 -305 203l213 43q23 -51 49 -47t78 21q51 17 74 22q94 16 174 -33t129 -172zM985 305q0 -76 -29 -118q-30 -42 -76 -91q-101 -106 -212 -106h-273q-70 0 -118 28t-96 79q-49 50 -77 91t-28 117
v924h250v-922q49 -61 75 -78h261q39 25 73 76v924h250v-924z" />
    <glyph glyph-name="Umacron" unicode="&#x16a;" horiz-adv-x="1173" 
d="M774 1399h-465v219h465v-219zM1006 305q0 -76 -29 -118t-76 -91q-102 -106 -213 -106h-293q-70 0 -118 28t-96 79q-49 50 -77 91t-28 117v924h250v-922q49 -61 75 -78h281q39 25 74 76v924h250v-924z" />
    <glyph glyph-name="umacron" unicode="&#x16b;" horiz-adv-x="1138" 
d="M764 1399h-465v219h465v-219zM985 305q0 -76 -29 -118q-30 -42 -76 -91q-101 -106 -212 -106h-273q-70 0 -118 28t-96 79q-49 50 -77 91t-28 117v924h250v-922q49 -61 75 -78h261q39 25 73 76v924h250v-924z" />
    <glyph glyph-name="Ubreve" unicode="&#x16c;" horiz-adv-x="1173" 
d="M625 1569h137q0 -91 -64 -155t-153 -64q-90 0 -157 64t-66 155h137q-1 -35 25 -61t60 -26t58 26t23 61zM1006 305q0 -76 -29 -118t-76 -91q-102 -106 -213 -106h-293q-70 0 -118 28t-96 79q-49 50 -77 91t-28 117v924h250v-922q49 -61 75 -78h281q39 25 74 76v924h250
v-924z" />
    <glyph glyph-name="ubreve" unicode="&#x16d;" horiz-adv-x="1138" 
d="M616 1569h138q0 -91 -64 -155t-153 -64q-90 0 -157 64t-67 155h138q-1 -35 25 -61t60 -26t57 26t23 61zM985 305q0 -76 -29 -118q-30 -42 -76 -91q-101 -106 -212 -106h-273q-70 0 -118 28t-96 79q-49 50 -77 91t-28 117v924h250v-922q49 -61 75 -78h261q39 25 73 76v924
h250v-924z" />
    <glyph glyph-name="Uring" unicode="&#x16e;" horiz-adv-x="1153" 
d="M544 1407q34 -1 58 25t23 60q0 34 -24 58q-23 24 -57 25q-34 0 -60 -25q-26 -24 -26 -58t26 -60t60 -25zM762 1491q0 -89 -64 -153t-153 -64q-90 0 -157 64q-66 64 -66 154q0 89 66 154q67 64 156 64q90 0 154 -64t64 -155zM1006 305q0 -76 -29 -118t-76 -91
q-102 -106 -213 -106h-293q-70 0 -118 28t-96 79q-49 50 -77 91t-28 117v924h250v-922q49 -61 75 -78h281q39 25 74 76v924h250v-924z" />
    <glyph glyph-name="uring" unicode="&#x16f;" horiz-adv-x="1138" 
d="M534 1407q34 -1 57 25t23 60t-24 58t-56 25q-34 0 -60 -25q-26 -24 -26 -58t26 -60t60 -25zM752 1491q0 -89 -64 -153t-153 -64q-90 0 -157 64t-67 154q0 89 67 154q67 64 156 64q90 0 154 -64t64 -155zM985 305q0 -76 -29 -118q-30 -42 -76 -91q-101 -106 -212 -106
h-273q-70 0 -118 28t-96 79q-49 50 -77 91t-28 117v924h250v-922q49 -61 75 -78h261q39 25 73 76v924h250v-924z" />
    <glyph glyph-name="Uhungarumlaut" unicode="&#x170;" horiz-adv-x="1173" 
d="M461 1352h-209l149 278h213zM774 1352h-209l150 278h213zM1006 305q0 -76 -29 -118t-76 -91q-102 -106 -213 -106h-293q-70 0 -118 28t-96 79q-49 50 -77 91t-28 117v924h250v-922q49 -61 75 -78h281q39 25 74 76v924h250v-924z" />
    <glyph glyph-name="uhungarumlaut" unicode="&#x171;" horiz-adv-x="1138" 
d="M461 1352h-209l149 278h213zM774 1352h-209l150 278h213zM985 305q0 -76 -29 -118q-30 -42 -76 -91q-101 -106 -212 -106h-273q-70 0 -118 28t-96 79q-49 50 -77 91t-28 117v924h250v-922q49 -61 75 -78h261q39 25 73 76v924h250v-924z" />
    <glyph glyph-name="Uogonek" unicode="&#x172;" horiz-adv-x="1173" 
d="M1006 305q0 -76 -29 -118t-76 -91q-102 -106 -213 -106h-293q-70 0 -118 28t-96 79q-49 50 -77 91t-28 117v924h250v-922q49 -61 75 -78h281q39 25 74 76v924h250v-924zM494 -408l-146 267l213 61l187 -328h-254z" />
    <glyph glyph-name="uogonek" unicode="&#x173;" horiz-adv-x="1138" 
d="M985 305q0 -76 -29 -118q-30 -42 -76 -91q-101 -106 -212 -106h-273q-70 0 -118 28t-96 79q-49 50 -77 91t-28 117v924h250v-922q49 -61 75 -78h261q39 25 73 76v924h250v-924zM489 -408l-145 267l213 61l186 -328h-254z" />
    <glyph glyph-name="Wcircumflex" unicode="&#x174;" horiz-adv-x="1519" 
d="M651 1630h121l297 -278h-287l-71 80l-70 -80h-287zM1022 471l160 758h266l-285 -1229h-268l-178 719q-83 -341 -176 -719h-269l-280 1229h258l162 -758l178 758h254z" />
    <glyph glyph-name="wcircumflex" unicode="&#x175;" horiz-adv-x="1519" 
d="M651 1630h121l297 -278h-287l-71 80l-70 -80h-287zM1022 471l160 758h266l-285 -1229h-268l-178 719q-83 -341 -176 -719h-269l-280 1229h258l162 -758l178 758h254z" />
    <glyph glyph-name="Ycircumflex" unicode="&#x176;" horiz-adv-x="1046" 
d="M414 1630h121l296 -278h-286l-72 80l-70 -80h-286zM606 0h-252v532l-411 697h282l256 -432l260 432h283l-418 -697v-532z" />
    <glyph glyph-name="ycircumflex" unicode="&#x177;" horiz-adv-x="1046" 
d="M414 1630h121l296 -278h-286l-72 80l-70 -80h-286zM606 0h-252v532l-411 697h282l256 -432l260 432h283l-418 -697v-532z" />
    <glyph glyph-name="Ydieresis" unicode="&#x178;" horiz-adv-x="1046" 
d="M403 1364h-235v250h235v-250zM801 1364h-240v250h240v-250zM606 0h-252v532l-411 697h282l256 -432l260 432h283l-418 -697v-532z" />
    <glyph glyph-name="Zacute" unicode="&#x179;" horiz-adv-x="1032" 
d="M578 1352h-242l190 278h267zM920 0h-852v182l526 807h-518v240h844v-185l-521 -804h521v-240z" />
    <glyph glyph-name="zacute" unicode="&#x17a;" horiz-adv-x="1032" 
d="M578 1352h-242l190 278h267zM920 0h-852v182l526 807h-518v240h844v-185l-521 -804h521v-240z" />
    <glyph glyph-name="Zdotaccent" unicode="&#x17b;" horiz-adv-x="1032" 
d="M633 1401h-258v254h258v-254zM920 0h-852v182l526 807h-518v240h844v-185l-521 -804h521v-240z" />
    <glyph glyph-name="zdotaccent" unicode="&#x17c;" horiz-adv-x="1032" 
d="M633 1401h-258v254h258v-254zM920 0h-852v182l526 807h-518v240h844v-185l-521 -804h521v-240z" />
    <glyph glyph-name="Zcaron" unicode="&#x17d;" horiz-adv-x="1032" 
d="M555 1352h-121l-297 278h287l72 -80l69 80h287zM920 0h-852v182l526 807h-518v240h844v-185l-521 -804h521v-240z" />
    <glyph glyph-name="zcaron" unicode="&#x17e;" horiz-adv-x="1032" 
d="M555 1352h-121l-297 278h287l72 -80l69 80h287zM920 0h-852v182l526 807h-518v240h844v-185l-521 -804h521v-240z" />
    <glyph glyph-name="Scommaaccent" unicode="&#x218;" horiz-adv-x="1157" 
d="M717 -141l-146 -267h-254l187 328zM1016 426v-121q0 -70 -28 -114t-78 -94q-106 -107 -216 -107h-313q-147 0 -270 174q-45 61 -70 131l231 72q59 -106 107 -138h311q31 18 53 43q21 25 21 27v121l-6 12q-74 20 -249 68t-263 70q-88 24 -132 92t-44 147v113q0 78 26 118
t76 88t84 70q70 39 133 39h291q143 0 268 -172q41 -57 70 -131l-232 -66q-39 82 -108 129h-283q-36 -21 -56 -45q-19 -24 -20 -26v-109l7 -12l520 -141q80 -23 125 -91t45 -147z" />
    <glyph glyph-name="scommaaccent" unicode="&#x219;" horiz-adv-x="1103" 
d="M717 -141l-146 -267h-254l187 328zM969 303q1 -77 -23 -113t-74 -88t-73 -69q-63 -45 -154 -45h-295q-141 0 -268 172q-10 10 -51 94l243 65q27 -61 76 -92h303q27 18 46 43q20 25 20 27v123l-6 12q-72 20 -238 68t-250 70q-84 24 -129 92t-45 147v113q0 78 33 129
q16 20 64 71t71 68q70 49 154 49h262q82 0 155 -53q72 -52 108 -110t54 -99l-239 -66q-27 53 -86 88h-242q-31 -14 -57 -42q-27 -29 -27 -31v-109l6 -12q92 -27 265 -76t241 -69t112 -88q44 -69 44 -146v-123z" />
    <glyph glyph-name="circumflex" unicode="&#x2c6;" horiz-adv-x="800" 
d="M332 1630h121l297 -278h-287l-72 80l-69 -80h-287z" />
    <glyph glyph-name="caron" unicode="&#x2c7;" horiz-adv-x="800" 
d="M453 1352h-121l-297 278h287l71 -80l70 80h287z" />
    <glyph glyph-name="breve" unicode="&#x2d8;" horiz-adv-x="909" 
d="M580 1569h137q1 -91 -63 -155t-154 -64t-157 64t-67 155h138q0 -35 26 -61t59 -26t57 26t24 61z" />
    <glyph glyph-name="dotaccent" unicode="&#x2d9;" horiz-adv-x="587" 
d="M395 1401h-258v254h258v-254z" />
    <glyph glyph-name="ring" unicode="&#x2da;" horiz-adv-x="1167" 
d="M499 1407q33 -1 57 25t24 60t-24 58t-58 25q-34 0 -59 -25q-25 -24 -25 -58t26 -60t59 -25zM717 1491q1 -89 -63 -153t-154 -64t-157 64t-67 154q0 89 67 154q67 64 156 64t153 -64t65 -155z" />
    <glyph glyph-name="ogonek" unicode="&#x2db;" horiz-adv-x="768" 
d="M381 -408l-145 267l213 61l186 -328h-254z" />
    <glyph glyph-name="tilde" unicode="&#x2dc;" horiz-adv-x="964" 
d="M772 1440l-209 -41q-10 25 -28 37q-19 12 -35 8t-68 -20t-72 -21q-211 -37 -305 203l213 43q23 -51 50 -47q28 4 78 21t73 22q94 16 174 -33t129 -172z" />
    <glyph glyph-name="hungarumlaut" unicode="&#x2dd;" horiz-adv-x="962" 
d="M379 1352h-209l149 278h213zM692 1352h-209l150 278h213z" />
    <glyph glyph-name="pi" unicode="&#x3c0;" horiz-adv-x="1454" 
d="M848 989h-363v-989h-252v989h-202v240h1272v-240h-203v-989h-252v989z" />
    <glyph glyph-name="afii10023" unicode="&#x401;" 
d="M410 1364h-236v250h236v-250zM807 1364h-240v250h240v-250zM883 0h-807v1229h807v-240h-557v-252h538v-239h-538v-258h557v-240z" />
    <glyph glyph-name="afii10051" unicode="&#x402;" horiz-adv-x="1382" 
d="M944 989h-330v-229h349q88 0 153 -47q23 -15 61 -53t50 -58q39 -57 39 -133v-174q0 -74 -39 -135q-49 -66 -111 -113q-72 -47 -153 -47h-119v240h119q33 16 53 49v182q-8 13 -28 31t-25 18h-349v-520h-252v989h-331v240h913v-240z" />
    <glyph glyph-name="afii10052" unicode="&#x403;" horiz-adv-x="960" 
d="M545 1352h-262l190 278h287zM76 1229h794v-242h-544v-987h-250v1229z" />
    <glyph glyph-name="afii10053" unicode="&#x404;" horiz-adv-x="1136" 
d="M379 -10q-82 0 -150 47q-23 16 -61 54t-51 61q-39 57 -39 135v655q0 84 50 148q114 146 251 147h278q145 0 269 -170q39 -55 69 -133l-231 -66q-39 82 -109 129h-274q-5 0 -23 -17t-30 -38v-205h329v-233h-329v-221q12 -21 29 -37t24 -17h274q70 47 109 129l231 -65
q-31 -78 -69 -133q-123 -170 -269 -170h-278z" />
    <glyph glyph-name="afii10054" unicode="&#x405;" horiz-adv-x="1157" 
d="M1016 426v-121q0 -70 -28 -114t-78 -94q-106 -107 -216 -107h-313q-147 0 -270 174q-45 61 -70 131l231 72q59 -106 107 -138h311q31 18 53 43q21 25 21 27v121l-6 12q-74 20 -249 68t-263 70q-88 24 -132 92t-44 147v113q0 78 26 118t76 88t84 70q70 39 133 39h291
q143 0 268 -172q41 -57 70 -131l-232 -66q-39 82 -108 129h-283q-36 -21 -56 -45q-19 -24 -20 -26v-109l7 -12l520 -141q80 -23 125 -91t45 -147z" />
    <glyph glyph-name="afii10055" unicode="&#x406;" horiz-adv-x="522" 
d="M336 0h-252v1229h252v-1229z" />
    <glyph glyph-name="afii10056" unicode="&#x407;" horiz-adv-x="501" 
d="M336 0h-252v1229h252v-1229zM121 1364h-236v250h236v-250zM518 1364h-239v250h239v-250z" />
    <glyph glyph-name="afii10057" unicode="&#x408;" horiz-adv-x="952" 
d="M786 301q0 -70 -38 -127q-18 -29 -66 -79q-104 -107 -215 -107h-148q-143 0 -272 174q-37 47 -78 160l240 61l29 -57q33 -57 79 -97h144q12 0 44 31t32 39v930h249v-928z" />
    <glyph glyph-name="afii10058" unicode="&#x409;" horiz-adv-x="1650" 
d="M1231 520h-307v-280h307q33 16 53 49v182q-8 13 -28 31t-25 18zM1534 469v-174q0 -74 -39 -135q-49 -66 -111 -113q-70 -47 -153 -47h-557v989h-287v-688q0 -70 -39 -127q-18 -29 -66 -79q-103 -107 -214 -107h-140v241h133q12 0 44 31t32 39v930h787v-469h307
q88 0 153 -47q23 -15 61 -53t50 -58q39 -57 39 -133z" />
    <glyph glyph-name="afii10059" unicode="&#x40a;" horiz-adv-x="1650" 
d="M1231 520h-307v-280h307q33 16 53 49v182q-8 13 -28 31t-25 18zM1534 469v-174q0 -74 -39 -135q-49 -66 -111 -113q-70 -47 -153 -47h-557v520h-348v-520h-250v1229h250v-469h348v469h250v-469h307q88 0 153 -47q23 -15 61 -53t50 -58q39 -57 39 -133z" />
    <glyph glyph-name="afii10060" unicode="&#x40b;" horiz-adv-x="1361" 
d="M1225 -2h-250v473q-7 13 -27 31t-26 18h-308v-520h-252v989h-331v240h913v-240h-330v-229h308q88 0 153 -47q23 -15 61 -53t50 -58q39 -57 39 -133v-471z" />
    <glyph glyph-name="afii10061" unicode="&#x40c;" horiz-adv-x="1087" 
d="M326 0h-250v1229h250v-488q0 -10 288 365l97 123h313l-492 -606l494 -623h-315l-385 496v-496zM608 1352h-262l191 278h286z" />
    <glyph glyph-name="afii10062" unicode="&#x40e;" horiz-adv-x="1038" 
d="M1014 1229l-516 -1229h-258l137 326h-35l-389 903h264l268 -643l265 643h264zM256 1569h137q0 -35 26 -61q25 -26 59 -26t58 26q23 26 23 61h137q0 -91 -63 -155t-153 -64t-158 64q-66 64 -66 155z" />
    <glyph glyph-name="afii10145" unicode="&#x40f;" horiz-adv-x="1161" 
d="M735 1229h250v-1229h-344v-225h-227v225h-338v1229h250v-989h409v989z" />
    <glyph glyph-name="afii10017" unicode="&#x410;" horiz-adv-x="1187" 
d="M680 475l-139 395l-69 -198t-69 -197h277zM328 236l-84 -236h-267l426 1229h277l424 -1229h-266l-82 236h-428z" />
    <glyph glyph-name="afii10018" unicode="&#x411;" horiz-adv-x="1134" 
d="M674 520h-348v-280h348q33 16 53 49v182q-7 13 -27 31t-26 18zM977 469v-174q0 -74 -39 -135q-49 -66 -111 -113q-70 -47 -153 -47h-598v1229h794v-242h-544v-227h348q88 0 153 -47q23 -15 61 -53t50 -58q39 -57 39 -133z" />
    <glyph glyph-name="afii10019" unicode="&#x412;" horiz-adv-x="1132" 
d="M670 989h-344v-258h346q6 -1 24 17t29 34v150q-13 20 -31 38t-24 19zM326 500v-260h346q6 0 24 18t29 35v149q-13 20 -31 38t-24 20h-344zM975 293q0 -140 -146 -246q-68 -47 -155 -47h-598v1229h598q86 0 155 -49q56 -45 109 -111q37 -55 37 -137v-148q0 -96 -68 -172
q68 -74 68 -172v-147z" />
    <glyph glyph-name="afii10020" unicode="&#x413;" horiz-adv-x="960" 
d="M76 1229h794v-242h-544v-987h-250v1229z" />
    <glyph glyph-name="afii10021" unicode="&#x414;" horiz-adv-x="1302" 
d="M805 240v749h-289l-96 -678q-2 -16 -23 -71h408zM227 0v-211h-252v451h117q14 2 44 32t30 37l131 920h758v-989h170l-45 -451h-260l18 211h-711z" />
    <glyph glyph-name="afii10022" unicode="&#x415;" 
d="M883 0h-807v1229h807v-240h-557v-252h538v-239h-538v-258h557v-240z" />
    <glyph glyph-name="afii10024" unicode="&#x416;" horiz-adv-x="1671" 
d="M920 508v-508h-250v508h-21l-366 -508h-303q453 618 458 623l-452 606h295q360 -500 368 -500h21v500h250v-500h20q6 0 279 375l90 125h295l-453 -606l459 -623h-303l-367 508h-20z" />
    <glyph glyph-name="afii10025" unicode="&#x417;" horiz-adv-x="1083" 
d="M635 1237q80 0 149 -49q52 -34 102 -98t50 -148v-154q0 -88 -72 -167q72 -84 72 -172v-162q0 -78 -39 -135q-14 -23 -52 -61t-61 -54q-68 -47 -149 -47h-283q-145 0 -268 170q-39 55 -70 133l232 65q39 -82 108 -129h279q6 1 23 17t30 37v168q-10 20 -28 36t-25 17h-277
v233h279q6 1 23 17t28 37v151q-12 20 -30 38t-23 17h-279q-70 -47 -108 -129l-232 66q31 78 70 133q123 170 268 170h283z" />
    <glyph glyph-name="afii10026" unicode="&#x418;" horiz-adv-x="1153" 
d="M76 0v1229h250v-733l393 733h256v-1229h-250v723l-397 -723h-252z" />
    <glyph glyph-name="afii10027" unicode="&#x419;" horiz-adv-x="1153" 
d="M299 1569h137q0 -35 26 -61t60 -26t57 26t23 61h137q0 -91 -63 -155q-64 -64 -154 -64t-156 64t-67 155zM76 0v1229h250v-733l393 733h256v-1229h-250v723l-397 -723h-252z" />
    <glyph glyph-name="afii10028" unicode="&#x41a;" horiz-adv-x="1077" 
d="M326 508v-508h-250v1229h250v-500h20q6 0 279 375l90 125h295l-453 -606l459 -623h-303l-367 508h-20z" />
    <glyph glyph-name="afii10029" unicode="&#x41b;" horiz-adv-x="1202" 
d="M-31 0v238l133 2q12 0 44 30t32 39v920h848v-1229h-250v989h-348v-676q0 -70 -39 -127q-18 -28 -66 -78t-79 -69q-70 -39 -135 -39h-140z" />
    <glyph glyph-name="afii10030" unicode="&#x41c;" horiz-adv-x="1345" 
d="M1163 1229v-1229h-250v739q-186 -391 -213 -446h-163l-211 444v-737h-250v1229h272l275 -557l270 557h270z" />
    <glyph glyph-name="afii10031" unicode="&#x41d;" horiz-adv-x="1161" 
d="M985 0h-250v496h-409v-496h-250v1229h250v-494h409v494h250v-1229z" />
    <glyph glyph-name="afii10032" unicode="&#x41e;" horiz-adv-x="1189" 
d="M772 305v617q-29 49 -74 75h-301q-45 -33 -75 -77v-615q41 -55 73 -76h301q39 29 76 76zM1022 305q0 -76 -35 -127q-87 -112 -151 -150t-134 -38h-311q-70 0 -118 28t-96 79q-48 50 -77 91t-28 117v617q0 78 28 119t77 89t97 78q48 29 117 29h311q70 0 132 -36t153 -150
q35 -51 35 -129v-617z" />
    <glyph glyph-name="afii10033" unicode="&#x41f;" horiz-adv-x="1161" 
d="M985 0h-250v989h-409v-989h-250v1229h909v-1229z" />
    <glyph glyph-name="afii10034" unicode="&#x420;" horiz-adv-x="1093" 
d="M326 989v-280h348q6 -1 26 17t27 32v182q-20 33 -53 49h-348zM977 760q0 -76 -39 -133q-12 -19 -50 -57t-61 -54q-66 -47 -153 -47h-348v-469h-250v1229h598q90 0 152 -47q62 -46 106 -106t45 -142v-174z" />
    <glyph glyph-name="afii10035" unicode="&#x421;" horiz-adv-x="1136" 
d="M324 305q0 -7 28 -35t51 -41h261q57 39 104 123l233 -57q-25 -70 -69 -131q-123 -174 -270 -174h-269q-70 0 -118 28t-95 77q-47 48 -71 81q-35 55 -35 127v621q0 76 29 117t77 89q104 106 213 107h269q143 0 268 -172q40 -57 69 -131l-231 -66q-39 82 -109 129h-256
q-49 -35 -79 -82v-610z" />
    <glyph glyph-name="afii10036" unicode="&#x422;" horiz-adv-x="1054" 
d="M938 989h-330v-989h-252v989h-331v240h913v-240z" />
    <glyph glyph-name="afii10037" unicode="&#x423;" horiz-adv-x="1077" 
d="M1014 1229l-516 -1229h-258l137 326h-35l-389 903h264l268 -643l265 643h264z" />
    <glyph glyph-name="afii10038" unicode="&#x424;" horiz-adv-x="1310" 
d="M725 997v-768h90q39 29 76 76v617q-29 49 -74 75h-92zM498 229v768h-95q-45 -33 -75 -77v-615q41 -55 73 -76h97zM725 -225h-227v215h-101q-70 0 -118 28t-96 79q-49 50 -77 91t-28 117v617q0 78 29 119t77 89t96 78q48 29 117 29h101v182h227v-182h96q70 0 131 -36
t154 -150q35 -51 35 -129v-617q0 -76 -35 -127q-86 -112 -151 -150t-134 -38h-96v-215z" />
    <glyph glyph-name="afii10039" unicode="&#x425;" horiz-adv-x="1077" 
d="M991 1229l-358 -604l373 -625h-279l-231 399l-232 -399h-278l370 625l-356 604h279l217 -379l219 379h276z" />
    <glyph glyph-name="afii10040" unicode="&#x426;" horiz-adv-x="1171" 
d="M76 0v1229h250v-989h348v989h250v-989h166l-41 -451h-261l9 211h-721z" />
    <glyph glyph-name="afii10041" unicode="&#x427;" horiz-adv-x="1132" 
d="M55 1229h250v-471q7 -14 27 -32t26 -17h349v520h249v-1229h-249v469h-349q-88 0 -153 47q-23 16 -61 53q-89 87 -89 191v469z" />
    <glyph glyph-name="afii10042" unicode="&#x428;" horiz-adv-x="1454" 
d="M551 1229h250v-989h225v989h250v-1229h-1200v1229h250v-989h225v989z" />
    <glyph glyph-name="afii10043" unicode="&#x429;" horiz-adv-x="1523" 
d="M551 1229h250v-989h225v989h250v-989h166l-41 -449h-260l8 209h-1073v1229h250v-989h225v989z" />
    <glyph glyph-name="afii10044" unicode="&#x42a;" horiz-adv-x="1196" 
d="M776 520h-348v-280h348q33 16 53 49v182q-8 13 -27 31t-26 18zM-45 987v242h473v-469h348q88 0 154 -47q22 -15 60 -53t50 -58q39 -57 39 -133v-174q0 -74 -39 -135q-49 -66 -110 -113q-72 -47 -154 -47h-598v987h-223z" />
    <glyph glyph-name="afii10045" unicode="&#x42b;" horiz-adv-x="1562" 
d="M1384 0h-251v1229h251v-1229zM674 520h-348v-280h348q33 16 53 49v182q-7 13 -27 31t-26 18zM977 469v-174q0 -74 -39 -135q-49 -66 -111 -113q-70 -47 -153 -47h-598v1229h250v-469h348q88 0 153 -47q23 -15 61 -53t50 -58q39 -57 39 -133z" />
    <glyph glyph-name="afii10046" unicode="&#x42c;" horiz-adv-x="1093" 
d="M674 520h-348v-280h348q33 16 53 49v182q-7 13 -27 31t-26 18zM977 469v-174q0 -74 -39 -135q-49 -66 -111 -113q-70 -47 -153 -47h-598v1229h250v-469h348q88 0 153 -47q23 -15 61 -53t50 -58q39 -57 39 -133z" />
    <glyph glyph-name="afii10047" unicode="&#x42d;" horiz-adv-x="1093" 
d="M352 -10q-145 0 -268 170q-39 55 -70 133l232 65q39 -82 108 -129h279q6 1 23 17t30 37v221h-330v233h330v205q-12 20 -30 38t-23 17h-279q-70 -47 -108 -129l-232 66q31 78 70 133q123 170 268 170h283q80 0 149 -49q52 -34 102 -98t50 -148v-655q0 -78 -39 -135
q-14 -23 -52 -61t-61 -54q-68 -47 -149 -47h-283z" />
    <glyph glyph-name="afii10048" unicode="&#x42e;" horiz-adv-x="1593" 
d="M1176 307v615q-27 49 -72 75h-268q-45 -33 -76 -77v-613q41 -55 74 -76h268q39 25 74 76zM326 0h-252v1229h252v-490h184v183q0 78 29 119t77 89t96 78q48 29 117 29h279q70 0 129 -36t154 -150q37 -53 36 -129v-617q1 -74 -29 -117t-78 -92q-48 -50 -96 -78t-116 -28
h-279q-70 0 -118 28t-96 79q-49 50 -77 91t-28 117v197h-184v-502z" />
    <glyph glyph-name="afii10049" unicode="&#x42f;" horiz-adv-x="1161" 
d="M387 709h348v280h-348q-33 -16 -53 -49v-182q8 -14 27 -32t26 -17zM84 760v174q0 82 44 142t105 106q63 47 154 47h598v-1229h-250v469h-196l-244 -469h-279q166 303 267 487q-54 26 -101 73q-47 46 -59 67q-39 57 -39 133z" />
    <glyph glyph-name="afii10065" unicode="&#x430;" horiz-adv-x="1187" 
d="M680 475l-139 395l-69 -198t-69 -197h277zM328 236l-84 -236h-267l426 1229h277l424 -1229h-266l-82 236h-428z" />
    <glyph glyph-name="afii10066" unicode="&#x431;" horiz-adv-x="1134" 
d="M674 520h-348v-280h348q33 16 53 49v182q-7 13 -27 31t-26 18zM977 469v-174q0 -74 -39 -135q-49 -66 -111 -113q-70 -47 -153 -47h-598v1229h794v-242h-544v-227h348q88 0 153 -47q23 -15 61 -53t50 -58q39 -57 39 -133z" />
    <glyph glyph-name="afii10067" unicode="&#x432;" horiz-adv-x="1112" 
d="M649 989h-323v-258h325q6 -1 25 17t29 34v150q-13 20 -31 38t-25 19zM326 500v-260h325q6 0 25 18t29 35v149q-13 20 -31 38t-25 20h-323zM954 293q0 -141 -145 -246q-68 -47 -156 -47h-577v1229h577q86 0 156 -49q46 -37 109 -111q37 -55 36 -137v-148q0 -96 -67 -172
q68 -74 67 -172v-147z" />
    <glyph glyph-name="afii10068" unicode="&#x433;" horiz-adv-x="960" 
d="M76 1229h794v-242h-544v-987h-250v1229z" />
    <glyph glyph-name="afii10069" unicode="&#x434;" horiz-adv-x="1261" 
d="M764 240v749h-248l-96 -678q-2 -16 -23 -71h367zM227 0v-211h-252v451h117q14 2 44 32t30 37l131 920h717v-989h170l-45 -451h-260l18 211h-670z" />
    <glyph glyph-name="afii10070" unicode="&#x435;" horiz-adv-x="1036" 
d="M862 0h-786v1229h786v-240h-536v-254h518v-239h-518v-256h536v-240z" />
    <glyph glyph-name="afii10072" unicode="&#x436;" horiz-adv-x="1671" 
d="M920 508v-508h-250v508h-21l-366 -508h-303q453 618 458 623l-452 606h295q360 -500 368 -500h21v500h250v-500h20q6 0 279 375l90 125h295l-453 -606l459 -623h-303l-367 508h-20z" />
    <glyph glyph-name="afii10073" unicode="&#x437;" horiz-adv-x="1067" 
d="M920 287q0 -78 -39 -135q-15 -23 -53 -61t-60 -54q-68 -47 -150 -47h-276q-143 0 -270 172q-27 37 -52 94l244 66q27 -61 82 -93h270q6 1 24 17t30 37v168q-10 20 -28 36t-26 17h-297v233h299q6 1 24 17t28 37v151q-12 20 -30 38t-24 17h-270q-61 -29 -86 -84l-59 15
q-59 14 -119 30l-62 15q18 51 52 94q133 170 270 170h276q138 -1 252 -147q50 -64 50 -148v-154q0 -88 -72 -167q72 -84 72 -172v-162z" />
    <glyph glyph-name="afii10074" unicode="&#x438;" horiz-adv-x="1153" 
d="M76 0v1229h250v-733l393 733h256v-1229h-250v723l-397 -723h-252z" />
    <glyph glyph-name="afii10075" unicode="&#x439;" horiz-adv-x="1153" 
d="M621 1569h137q0 -91 -64 -155t-153 -64q-90 0 -157 64t-67 155h138q-1 -35 25 -61t60 -26t58 26t23 61zM76 0v1229h250v-733l393 733h256v-1229h-250v723l-397 -723h-252z" />
    <glyph glyph-name="afii10076" unicode="&#x43a;" horiz-adv-x="1077" 
d="M326 508v-508h-250v1229h250v-500h20q6 0 279 375l90 125h295l-453 -606l459 -623h-303l-367 508h-20z" />
    <glyph glyph-name="afii10077" unicode="&#x43b;" horiz-adv-x="1202" 
d="M-31 0v238l133 2q12 0 44 30t32 39v920h848v-1229h-250v989h-348v-676q0 -70 -39 -127q-18 -28 -66 -78t-79 -69q-70 -39 -135 -39h-140z" />
    <glyph glyph-name="afii10078" unicode="&#x43c;" horiz-adv-x="1345" 
d="M1163 1229v-1229h-250v739q-186 -391 -213 -446h-163l-211 444v-737h-250v1229h272l275 -557l270 557h270z" />
    <glyph glyph-name="afii10079" unicode="&#x43d;" horiz-adv-x="1161" 
d="M985 0h-250v496h-409v-496h-250v1229h250v-494h409v494h250v-1229z" />
    <glyph glyph-name="afii10080" unicode="&#x43e;" horiz-adv-x="1161" 
d="M739 307v615q-27 49 -71 75h-269q-45 -33 -75 -77v-613q41 -55 73 -76h269q38 25 73 76zM991 305q0 -74 -30 -117q-29 -43 -77 -92q-48 -50 -96 -78t-116 -28h-279q-70 0 -118 28t-96 79q-49 50 -77 91t-28 117v617q0 78 29 119t77 89t96 78q48 29 117 29h279
q70 0 129 -36t153 -150q37 -53 37 -129v-617z" />
    <glyph glyph-name="afii10081" unicode="&#x43f;" horiz-adv-x="1161" 
d="M985 0h-250v989h-409v-989h-250v1229h909v-1229z" />
    <glyph glyph-name="afii10082" unicode="&#x440;" horiz-adv-x="1073" 
d="M326 989v-280h327q6 -1 26 17t28 32v182q-20 33 -54 49h-327zM956 760q0 -76 -38 -133q-12 -19 -50 -57t-61 -54q-66 -47 -154 -47h-327v-469h-250v1229h577q82 0 154 -47q61 -47 111 -113q39 -61 38 -135v-174z" />
    <glyph glyph-name="afii10083" unicode="&#x441;" horiz-adv-x="1087" 
d="M643 -10h-235q-92 0 -148 39q-31 18 -78 66t-71 81q-35 55 -35 127v615q0 76 35 126q14 20 67 72t78 72q70 49 154 49h233q141 0 268 -170q29 -41 50 -92l-240 -66q-33 63 -86 88h-223q-53 -37 -86 -88v-610q0 -8 32 -34q32 -25 52 -36h227q49 18 84 93l240 -66l2 -2
q-58 -130 -166 -211q-72 -53 -154 -53z" />
    <glyph glyph-name="afii10084" unicode="&#x442;" horiz-adv-x="1054" 
d="M938 989h-330v-989h-252v989h-331v240h913v-240z" />
    <glyph glyph-name="afii10085" unicode="&#x443;" horiz-adv-x="1077" 
d="M1014 1229l-516 -1229h-258l137 326h-35l-389 903h264l268 -643l265 643h264z" />
    <glyph glyph-name="afii10086" unicode="&#x444;" horiz-adv-x="1306" 
d="M725 997v-768h90q39 29 76 76v617q-29 49 -74 75h-92zM498 229v768h-95q-45 -33 -75 -77v-615q41 -55 73 -76h97zM725 -225h-227v215h-101q-70 0 -118 28t-96 79q-49 50 -77 91t-28 117v617q0 78 29 119t77 89t96 78q48 29 117 29h101v182h227v-182h96q70 0 131 -36
t154 -150q35 -51 35 -129v-617q0 -76 -35 -127q-86 -112 -151 -150t-134 -38h-96v-215z" />
    <glyph glyph-name="afii10087" unicode="&#x445;" horiz-adv-x="1077" 
d="M991 1229l-358 -604l373 -625h-279l-231 399l-232 -399h-278l370 625l-356 604h279l217 -379l219 379h276z" />
    <glyph glyph-name="afii10088" unicode="&#x446;" horiz-adv-x="1171" 
d="M76 0v1229h250v-989h348v989h250v-989h166l-41 -451h-261l9 211h-721z" />
    <glyph glyph-name="afii10089" unicode="&#x447;" horiz-adv-x="1132" 
d="M55 1229h250v-471q7 -14 27 -32t26 -17h349v520h249v-1229h-249v469h-349q-88 0 -153 47q-23 16 -61 53q-89 87 -89 191v469z" />
    <glyph glyph-name="afii10090" unicode="&#x448;" horiz-adv-x="1454" 
d="M551 1229h250v-989h225v989h250v-1229h-1200v1229h250v-989h225v989z" />
    <glyph glyph-name="afii10091" unicode="&#x449;" horiz-adv-x="1523" 
d="M551 1229h250v-989h225v989h250v-989h166l-41 -449h-260l8 209h-1073v1229h250v-989h225v989z" />
    <glyph glyph-name="afii10092" unicode="&#x44a;" horiz-adv-x="1196" 
d="M776 520h-348v-280h348q33 16 53 49v182q-8 13 -27 31t-26 18zM-45 987v242h473v-469h348q88 0 154 -47q22 -15 60 -53t50 -58q39 -57 39 -133v-174q0 -74 -39 -135q-49 -66 -110 -113q-72 -47 -154 -47h-598v987h-223z" />
    <glyph glyph-name="afii10093" unicode="&#x44b;" horiz-adv-x="1562" 
d="M1384 0h-251v1229h251v-1229zM674 520h-348v-280h348q33 16 53 49v182q-7 13 -27 31t-26 18zM977 469v-174q0 -74 -39 -135q-49 -66 -111 -113q-70 -47 -153 -47h-598v1229h250v-469h348q88 0 153 -47q23 -15 61 -53t50 -58q39 -57 39 -133z" />
    <glyph glyph-name="afii10094" unicode="&#x44c;" horiz-adv-x="1093" 
d="M674 520h-348v-280h348q33 16 53 49v182q-7 13 -27 31t-26 18zM977 469v-174q0 -74 -39 -135q-49 -66 -111 -113q-70 -47 -153 -47h-598v1229h250v-469h348q88 0 153 -47q23 -15 61 -53t50 -58q39 -57 39 -133z" />
    <glyph glyph-name="afii10095" unicode="&#x44d;" horiz-adv-x="1077" 
d="M670 504h-351v233h351v205q-12 20 -30 38t-24 17h-270q-61 -29 -86 -84l-59 15q-59 14 -119 30l-62 15q18 51 52 94q133 170 270 170h276q138 -1 252 -147q50 -64 50 -148v-655q0 -78 -39 -135q-15 -23 -53 -61t-60 -54q-68 -47 -150 -47h-276q-143 0 -270 172
q-27 37 -52 94l244 66q27 -61 82 -93h270q6 1 24 17t30 37v221z" />
    <glyph glyph-name="afii10096" unicode="&#x44e;" horiz-adv-x="1593" 
d="M1176 307v615q-27 49 -72 75h-268q-45 -33 -76 -77v-613q41 -55 74 -76h268q39 25 74 76zM326 0h-252v1229h252v-490h184v183q0 78 29 119t77 89t96 78q48 29 117 29h279q70 0 129 -36t154 -150q37 -53 36 -129v-617q1 -74 -29 -117t-78 -92q-48 -50 -96 -78t-116 -28
h-279q-70 0 -118 28t-96 79q-49 50 -77 91t-28 117v197h-184v-502z" />
    <glyph glyph-name="afii10097" unicode="&#x44f;" horiz-adv-x="1140" 
d="M389 709h328v280h-328q-33 -16 -53 -49v-182q8 -14 28 -32t25 -17zM86 760v174q0 82 44 142t106 106q63 47 153 47h578v-1229h-250v469h-180l-234 -469h-278q160 305 258 489q-44 18 -95 67q-51 50 -63 71q-39 57 -39 133z" />
    <glyph glyph-name="afii10071" unicode="&#x451;" horiz-adv-x="1036" 
d="M389 1364h-235v250h235v-250zM786 1364h-239v250h239v-250zM862 0h-786v1229h786v-240h-536v-254h518v-239h-518v-256h536v-240z" />
    <glyph glyph-name="afii10099" unicode="&#x452;" horiz-adv-x="1382" 
d="M944 989h-330v-229h349q88 0 153 -47q23 -15 61 -53t50 -58q39 -57 39 -133v-174q0 -74 -39 -135q-49 -66 -111 -113q-72 -47 -153 -47h-119v240h119q33 16 53 49v182q-8 13 -28 31t-25 18h-349v-520h-252v989h-331v240h913v-240z" />
    <glyph glyph-name="afii10100" unicode="&#x453;" horiz-adv-x="960" 
d="M545 1352h-262l190 278h287zM76 1229h794v-242h-544v-987h-250v1229z" />
    <glyph glyph-name="afii10101" unicode="&#x454;" horiz-adv-x="1087" 
d="M678 504h-350v-221q12 -21 29 -37t24 -17h270q55 31 82 93l244 -66q-25 -57 -51 -94q-127 -172 -271 -172h-276q-82 0 -150 47q-23 16 -61 54t-51 61q-39 57 -39 135v655q0 84 50 148q114 146 251 147h276q137 0 271 -170q33 -43 51 -94q-14 -4 -40 -10q-26 -5 -78 -19
t-87 -22l-35 -9q-25 55 -86 84h-270q-5 0 -23 -17t-30 -38v-205h350v-233z" />
    <glyph glyph-name="afii10102" unicode="&#x455;" horiz-adv-x="1103" 
d="M969 303q1 -77 -23 -113t-74 -88t-73 -69q-63 -45 -154 -45h-295q-141 0 -268 172q-10 10 -51 94l243 65q27 -61 76 -92h303q27 18 46 43q20 25 20 27v123l-6 12q-72 20 -238 68t-250 70q-84 24 -129 92t-45 147v113q0 78 33 129q16 20 64 71t71 68q70 49 154 49h262
q82 0 155 -53q72 -52 108 -110t54 -99l-239 -66q-27 53 -86 88h-242q-31 -14 -57 -42q-27 -29 -27 -31v-109l6 -12q92 -27 265 -76t241 -69t112 -88q44 -69 44 -146v-123z" />
    <glyph glyph-name="afii10103" unicode="&#x456;" horiz-adv-x="522" 
d="M336 0h-252v1229h252v-1229z" />
    <glyph glyph-name="afii10104" unicode="&#x457;" horiz-adv-x="501" 
d="M336 0h-252v1229h252v-1229zM125 1364h-236v250h236v-250zM522 1364h-239v250h239v-250z" />
    <glyph glyph-name="afii10105" unicode="&#x458;" horiz-adv-x="925" 
d="M760 303q0 -72 -35 -127q-23 -31 -71 -79t-81 -68h2q-66 -39 -133 -39h-147q-145 0 -275 174q-16 23 -40 92l239 66q29 -66 74 -93h143q9 -1 36 25t38 45v930h250v-926z" />
    <glyph glyph-name="afii10106" unicode="&#x459;" horiz-adv-x="1650" 
d="M1231 520h-307v-280h307q33 16 53 49v182q-8 13 -28 31t-25 18zM1534 469v-174q0 -74 -39 -135q-49 -66 -111 -113q-70 -47 -153 -47h-557v989h-287v-688q0 -70 -39 -127q-18 -29 -66 -79q-103 -107 -214 -107h-140v241h133q12 0 44 31t32 39v930h787v-469h307
q88 0 153 -47q23 -15 61 -53t50 -58q39 -57 39 -133z" />
    <glyph glyph-name="afii10107" unicode="&#x45a;" horiz-adv-x="1650" 
d="M1231 520h-307v-280h307q33 16 53 49v182q-8 13 -28 31t-25 18zM1534 469v-174q0 -74 -39 -135q-49 -66 -111 -113q-70 -47 -153 -47h-557v520h-348v-520h-250v1229h250v-469h348v469h250v-469h307q88 0 153 -47q23 -15 61 -53t50 -58q39 -57 39 -133z" />
    <glyph glyph-name="afii10108" unicode="&#x45b;" horiz-adv-x="1361" 
d="M1225 -2h-250v473q-7 13 -27 31t-26 18h-308v-520h-252v989h-331v240h913v-240h-330v-229h308q88 0 153 -47q23 -15 61 -53t50 -58q39 -57 39 -133v-471z" />
    <glyph glyph-name="afii10109" unicode="&#x45c;" horiz-adv-x="1087" 
d="M326 0h-250v1229h250v-488q0 -10 288 365l97 123h313l-492 -606l494 -623h-315l-385 496v-496zM608 1352h-262l191 278h286z" />
    <glyph glyph-name="afii10110" unicode="&#x45e;" horiz-adv-x="1038" 
d="M1014 1229l-516 -1229h-258l137 326h-35l-389 903h264l268 -643l265 643h264zM385 1569q0 -35 26 -61q25 -26 59 -26t58 26t23 61h137q0 -91 -63 -155t-153 -64t-158 64q-67 64 -66 155h137z" />
    <glyph glyph-name="afii10193" unicode="&#x45f;" horiz-adv-x="1161" 
d="M735 1229h250v-1229h-344v-225h-227v225h-338v1229h250v-989h409v989z" />
    <glyph glyph-name="afii10050" unicode="&#x490;" horiz-adv-x="960" 
d="M870 1419v-432h-544v-987h-250v1229h561v190h233z" />
    <glyph glyph-name="afii10098" unicode="&#x491;" horiz-adv-x="960" 
d="M76 1229h561v190h233v-432h-544v-987h-250v1229z" />
    <glyph glyph-name="endash" unicode="&#x2013;" horiz-adv-x="972" 
d="M811 395h-754v234h754v-234z" />
    <glyph glyph-name="emdash" unicode="&#x2014;" horiz-adv-x="1144" 
d="M983 395h-926v234h926v-234z" />
    <glyph glyph-name="quoteleft" unicode="&#x2018;" horiz-adv-x="495" 
d="M375 1249l-164 -356h-272l200 428z" />
    <glyph glyph-name="quoteright" unicode="&#x2019;" horiz-adv-x="495" 
d="M-29 958l164 357h273l-201 -428z" />
    <glyph glyph-name="quotesinglbase" unicode="&#x201a;" horiz-adv-x="495" 
d="M399 186l-163 -356h-273l201 428z" />
    <glyph glyph-name="quotedblleft" unicode="&#x201c;" horiz-adv-x="907" 
d="M377 958l164 357h272l-201 -428zM-29 958l164 357h273l-201 -428z" />
    <glyph glyph-name="quotedblright" unicode="&#x201d;" horiz-adv-x="913" 
d="M408 1249l-164 -356h-273l201 428zM813 1249l-164 -356h-272l201 428z" />
    <glyph glyph-name="quotedblbase" unicode="&#x201e;" horiz-adv-x="917" 
d="M408 186l-164 -356h-273l201 428zM813 186l-164 -356h-272l201 428z" />
    <glyph glyph-name="daggerdbl" unicode="&#x2021;" horiz-adv-x="698" 
d="M584 694h-135v-159h133v-232h-133v-301h-242v301h-135v232h135v159h-133v232h133v301h242v-301h135v-232z" />
    <glyph glyph-name="perthousand" unicode="&#x2030;" horiz-adv-x="2447" 
d="M1300 1229l-671 -1229h-258l676 1229h253zM1407 438q0 15 -41 49q-2 2 -10 2h-68q-16 0 -51 -40l-2 -11v-194q0 -4 18 -26t35 -23h68q8 1 26 15t23 23l2 11v194zM1610 205q0 -66 -31 -107q-85 -112 -197 -112h-118q-108 0 -199 114q-29 39 -29 105v274q0 66 32 108
q86 113 196 111h118q112 0 199 -114q29 -39 29 -105v-274zM434 975q0 14 -22 32q-22 19 -29 19h-68q-17 0 -51 -41l-2 -10v-195q0 -4 18 -26t35 -23h68q7 1 25 15t24 24l2 10v195zM637 741q0 -67 -31 -107q-86 -113 -196 -112h-119q-110 0 -199 115q-29 39 -29 104v275
q0 66 32 108q86 112 196 111h119q110 0 198 -115q29 -39 29 -104v-275zM2101 438q0 15 -41 49q-2 2 -10 2h-68q-16 0 -51 -40l-2 -11v-194q0 -4 18 -27t35 -22h68q8 1 26 15t23 23l2 11v194zM2304 205q0 -66 -31 -107q-85 -112 -196 -112h-119q-108 0 -199 114
q-29 39 -28 105v274q-1 66 31 108q85 113 196 111h119q111 0 198 -114q29 -39 29 -105v-274z" />
    <glyph glyph-name="guilsinglleft" unicode="&#x2039;" horiz-adv-x="837" 
d="M672 252l-275 -72l-352 344l352 353l269 -78l-279 -271z" />
    <glyph glyph-name="guilsinglright" unicode="&#x203a;" horiz-adv-x="837" 
d="M319 180l-274 72l285 276l-279 271l268 78l353 -353z" />
    <glyph glyph-name="Euro" unicode="&#x20ac;" horiz-adv-x="1163" 
d="M715 356h-312v-57q-1 -6 31 -33q32 -26 53 -37h228q49 18 84 93l241 -66q-20 -45 -51 -94q-119 -172 -268 -172h-236q-92 0 -147 39q-31 18 -80 67t-77 92t-27 115v53h-76v224h76v67h-76v223h76v48q0 76 34 126q12 18 66 70t80 74q70 49 153 49h234q135 0 268 -170
q29 -41 49 -92l-239 -66q-33 63 -86 88h-224q-53 -37 -86 -88v-39h312v-223h-312v-67h312v-224z" />
    <glyph glyph-name="afii61352" unicode="&#x2116;" horiz-adv-x="1908" 
d="M1563 975q1 14 -21 32q-22 19 -31 19h-67q-17 0 -51 -41l-2 -10v-195q0 -4 18 -26t35 -23h67q8 1 26 15t24 24l2 10v195zM1765 741q-1 -67 -31 -107q-85 -112 -196 -112h-119q-109 0 -198 115q-29 39 -29 104v275q0 66 32 108q86 112 195 111h119q111 0 199 -115
q29 -39 28 -104v-275zM975 0h-252l-397 723v-723h-250v1229h256l393 -733v733h250v-1229z" />
    <glyph glyph-name="trademark" unicode="&#x2122;" horiz-adv-x="1259" 
d="M1116 1227v-635h-223v221q-6 -18 -14 -39h-131l-15 37v-219h-229v420h-55v-420h-226v420h-147v215h669l64 -123l72 123h235z" />
    <glyph glyph-name="partialdiff" unicode="&#x2202;" 
d="M596 231q6 -1 24 17t29 37v268q-12 18 -78 76q-12 6 -22 6h-189q-6 0 -24 -20t-29 -40v-292q11 -19 29 -35t22 -17h238zM596 1237q82 0 152 -49q82 -66 116 -119t35 -127v-657q0 -131 -146 -243q-68 -52 -157 -52h-238q-82 0 -149 47q-23 16 -61 54t-52 61
q-39 57 -39 135v293q1 74 29 117t66 81t57 49q63 45 149 45h197q41 0 94 -45v119q-12 18 -29 34t-24 17h-268l-62 240h330z" />
    <glyph glyph-name="product" unicode="&#x220f;" horiz-adv-x="1161" 
d="M985 0h-250v989h-409v-989h-250v1229h909v-1229z" />
    <glyph glyph-name="summation" unicode="&#x2211;" horiz-adv-x="1032" 
d="M920 240v-240h-844v182l366 443l-360 419v185h840v-240h-504l309 -362l-309 -387h502z" />
    <glyph glyph-name="lozenge" unicode="&#x25ca;" horiz-adv-x="1953" 
d="M866 758v-140h101q5 0 25 15t30 29v47q-16 23 -55 49h-101zM954 426h-88v-188h-207v725h297q84 0 150 -51q66 -50 94 -92t27 -113v-27q0 -84 -27 -121t-72 -70q-90 -63 -174 -63zM1540 305v613q0 10 -37 43l-227 215l168 170l227 -211q49 -47 80 -88q35 -55 35 -127v-617
q0 -72 -35 -127q-31 -41 -80 -88l-227 -211l-168 170l227 215q37 33 37 43zM78 303v617q0 72 35 127q31 41 80 88l227 211l168 -170l-228 -215q-37 -33 -36 -43v-613q0 -10 36 -43l228 -215l-168 -170l-227 211q-49 47 -80 88q-35 55 -35 127z" />
    <glyph glyph-name="fi" unicode="&#xfb01;" horiz-adv-x="1533" 
d="M1358 0h-252v1229h252v-1229zM862 989h-536v-254h508v-239h-508v-496h-250v1229h786v-240z" />
    <glyph glyph-name="fl" unicode="&#xfb02;" horiz-adv-x="1966" 
d="M1855 0h-774v1229h250v-989h524v-240zM862 989h-536v-254h508v-239h-508v-496h-250v1229h786v-240z" />
  </font>
</defs>
</svg>
