<?xml version="1.0" standalone="no"?>
<!DOCTYPE svg PUBLIC "-//W3C//DTD SVG 1.1//EN" "http://www.w3.org/Graphics/SVG/1.1/DTD/svg11.dtd" >
<svg xmlns="http://www.w3.org/2000/svg">
<metadata>
Created by FontPrep 20130207 at Thu May 28 18:23:15 2015
 By Rezki Bangsawan
PDF-X by gtwsk. 2009. Published by Die Gestalten Verlag GmbH &#38; Co. KG, 2008. Copyright  by Binnenland and re-p.org, 2008. All rights reserved. This software may not be reproduced, used, displayed, modified, disclosed or transferred without the express written approval of (Binn)
</metadata>
<defs>
<font id="a65f19660eb0a5a6adadd7cb36fae42d" horiz-adv-x='1024' >
  <font-face 
    font-family="BlenderPro-Thin"
    font-weight="250"
    font-stretch="normal"
    units-per-em="2048"
    panose-1="2 0 5 6 3 0 0 2 0 4"
    ascent="1638"
    descent="-410"
    x-height="881"
    cap-height="1217"
    bbox="-143 -346 1812 1726"
    underline-thickness="102"
    underline-position="-102"
    unicode-range="U+0020-FB02"
  />
<missing-glyph horiz-adv-x="2048" 
 />
    <glyph glyph-name=".notdef" horiz-adv-x="2048" 
 />
    <glyph glyph-name=".null" horiz-adv-x="0" 
 />
    <glyph glyph-name="nonmarkingreturn" horiz-adv-x="681" 
 />
    <glyph glyph-name="space" unicode=" " horiz-adv-x="460" 
 />
    <glyph glyph-name="exclam" unicode="!" horiz-adv-x="419" 
d="M213 0h-121v129h121v-129zM186 377h-69v840h69v-840z" />
    <glyph glyph-name="numbersign" unicode="#" horiz-adv-x="1062" 
d="M590 748h-219l-49 -287h219zM858 817l-10 -69h-182l-50 -287h183l-11 -70h-184l-39 -229h-71l38 229h-221l-39 -229h-73l39 229h-183l11 70h182l49 287h-182l10 69h182l39 221h74l-39 -221h223l39 221h70l-37 -221h182z" />
    <glyph glyph-name="dollar" unicode="$" horiz-adv-x="1093" 
d="M162 840q0 -39 20 -72t56 -43l227 -66v494h-123q-43 -1 -98 -57q-56 -56 -76 -92q-6 -16 -6 -39v-125zM532 59h125q40 1 96 55t70 80t15 54v131q0 41 -20 76t-56 45l-230 63v-504zM911 246q0 -51 -18 -83q-17 -32 -65 -80t-84 -72t-78 -23h-134v-178h-67v178h-137
q-128 0 -242 211l74 20q22 -43 64 -89t66 -58t44 -13h131v523l-264 75q-49 15 -81 65t-32 112v131q0 55 18 86t65 79q90 94 161 95h133v161h67v-161h107q41 0 90 -31q80 -51 154 -180l-74 -23q-18 41 -75 101t-101 61h-101v-512l265 -76q51 -14 83 -62t31 -110v-147z" />
    <glyph glyph-name="percent" unicode="%" horiz-adv-x="1353" 
d="M137 807q0 -23 6 -36t36 -47t63 -34h139q33 0 63 34t36 47t5 36v237q0 23 -6 36t-36 47t-62 34h-139q-33 0 -63 -34t-36 -47t-6 -36v-237zM72 799v254q0 47 18 73q37 49 69 75t79 26h147q47 0 79 -26t68 -75q18 -27 19 -73v-254q0 -77 -84 -146q-35 -29 -82 -28h-147
q-47 -1 -79 25t-69 75q-18 27 -18 74zM807 174q0 -23 6 -36t35 -46t63 -35h140q30 0 61 34t37 47t6 36v238q0 24 -6 36t-36 46t-62 34h-140q-32 0 -62 -34t-36 -47t-6 -35v-238zM741 420q0 79 84 145q35 29 82 29h148q47 0 79 -26t68 -74q18 -27 19 -74v-254q0 -77 -84 -146
q-35 -29 -82 -28h-148q-47 0 -79 26t-68 74q-18 27 -19 74v254zM1001 1229l-622 -1229h-76l625 1229h73z" />
    <glyph glyph-name="ampersand" unicode="&#x26;" horiz-adv-x="1085" 
d="M969 463h-144v-238q0 -53 -18 -81t-52 -68q-34 -39 -53 -51q-45 -35 -110 -35h-305q-61 0 -107 35q-18 12 -52 51q-34 40 -52 68t-19 81v193q0 52 36 106t91 90q-18 10 -49 46t-43 57q-27 39 -26 96v172q0 55 26 98q27 43 96 105q47 37 107 37h190q43 0 93 -31
q80 -49 153 -182l-74 -21q-23 47 -61 91q-40 44 -64 58t-53 15h-182q-27 0 -47 -12t-67 -60q-46 -48 -46 -94v-172q0 -20 10 -45q39 -80 97 -113q23 -12 45 -12h235v-67h-237q-25 0 -45 -13q-68 -41 -103 -108q-10 -20 -10 -43v-187q0 -23 10 -43q39 -76 107 -116
q18 -10 45 -11h301q30 1 52 13t65 63t45 94v306h215v-72z" />
    <glyph glyph-name="parenleft" unicode="(" horiz-adv-x="669" 
d="M82 965q0 53 24 93t76 91l162 164l49 -53l-157 -160q-58 -58 -70 -80t-12 -59v-695q0 -34 13 -58t71 -81l157 -158l-51 -53l-162 164q-57 55 -78 92q-23 33 -22 90v703z" />
    <glyph glyph-name="parenright" unicode=")" horiz-adv-x="671" 
d="M451 262q0 -53 -25 -90q-20 -37 -78 -92l-164 -164l-47 53l158 158q57 57 71 81t13 58v695q-1 33 -17 63t-63 76l-158 160l43 53l164 -164q49 -51 76 -92t27 -92v-703z" />
    <glyph glyph-name="asterisk" unicode="*" 
d="M731 1049l-268 -82l170 -226l-62 -43l-163 234l-164 -234l-62 43l168 226l-266 82l22 71l267 -92l-2 285h73l-4 -285l269 92z" />
    <glyph glyph-name="plus" unicode="+" horiz-adv-x="1060" 
d="M799 475h-307v-325h-70v325h-307v70h307v325h70v-325h307v-70z" />
    <glyph glyph-name="comma" unicode="," horiz-adv-x="419" 
d="M215 131l-117 -309h-82l123 338z" />
    <glyph glyph-name="hyphen" unicode="-" horiz-adv-x="708" 
d="M514 475h-438v68h438v-68z" />
    <glyph glyph-name="period" unicode="." horiz-adv-x="440" 
d="M219 0h-125v133h125v-133z" />
    <glyph glyph-name="slash" unicode="/" horiz-adv-x="845" 
d="M733 1217l-616 -1217h-78l618 1217h76z" />
    <glyph glyph-name="zero" unicode="0" horiz-adv-x="1011" 
d="M737 227v758q0 27 -8 45q-37 72 -104 113q-23 12 -47 12h-269q-27 0 -47 -12q-68 -41 -104 -113q-6 -14 -6 -45v-758q0 -29 10 -51t42 -56t54 -47t51 -14h269q30 -1 52 13t64 60t43 95zM811 223q-1 -53 -19 -81t-52 -68q-34 -39 -52 -51q-45 -35 -108 -35h-273
q-61 0 -106 35q-18 12 -53 51q-34 40 -52 68t-18 81v766q0 55 18 83t52 68t53 52q45 35 106 35h273q63 0 108 -35q18 -12 52 -51t52 -68t19 -84v-766z" />
    <glyph glyph-name="one" unicode="1" horiz-adv-x="1011" 
d="M784 0h-641v72h295v1073h-295v72h369v-1145h272v-72z" />
    <glyph glyph-name="two" unicode="2" horiz-adv-x="1009" 
d="M811 840q0 -119 -115 -178l-442 -232q-78 -41 -78 -121v-237h619v-72h-693v319q0 113 117 175l445 231q74 39 73 119v141q0 48 -42 97t-64 61t-53 12h-240q-28 0 -52 -14q-24 -13 -64 -59t-60 -89l-72 25q66 121 148 178q45 31 92 31h250q63 0 108 -35q18 -12 52 -51
t52 -68t19 -84v-149z" />
    <glyph glyph-name="three" unicode="3" horiz-adv-x="1009" 
d="M330 1227h252q61 0 106 -35q18 -12 52 -51t52 -68t19 -84v-178q-1 -55 -19 -83t-104 -114q86 -86 104 -114t19 -82v-195q-1 -55 -19 -83t-52 -68q-34 -39 -52 -52q-45 -35 -106 -34h-254q-47 0 -90 32q-88 66 -148 175l74 24q23 -41 75 -98t97 -60h244q29 0 47 11
q66 39 102 112q8 16 8 43v189q0 27 -8 43q-39 74 -104 110q-20 12 -43 13h-258v71h256q31 0 45 8q66 37 104 111q8 18 8 45v170q0 48 -43 98t-63 61t-53 11h-242q-26 0 -50 -13q-24 -14 -63 -60t-61 -89l-72 23q121 211 240 211z" />
    <glyph glyph-name="four" unicode="4" horiz-adv-x="1011" 
d="M645 358v793h-31l-462 -793h493zM850 287h-131v-287h-74v287h-575v71l503 859h146v-859h131v-71z" />
    <glyph glyph-name="five" unicode="5" horiz-adv-x="1011" 
d="M815 225q-1 -55 -19 -83t-52 -68q-34 -39 -52 -51q-45 -35 -108 -35h-258q-129 0 -244 211l74 20q61 -109 135 -151q16 -8 39 -9h252q32 1 54 13t64 61t41 94v242q0 55 -42 99q-42 43 -64 56t-53 13h-451v580h621v-72h-547v-436h383q62 -1 94 -27q90 -76 106 -113
q27 -41 27 -94v-250z" />
    <glyph glyph-name="six" unicode="6" horiz-adv-x="1011" 
d="M737 227v269q0 27 -8 43q-37 70 -102 106q-20 12 -47 12h-232q-25 0 -45 -10q-78 -45 -135 -129q-14 -23 -14 -35v-256q0 -51 43 -96t65 -58t49 -14h269q53 -1 105 61t52 107zM811 225q-1 -55 -19 -83t-52 -68q-34 -39 -52 -51q-45 -35 -106 -35h-273q-61 0 -106 35
q-18 12 -52 51q-34 40 -53 68t-18 83v764q0 55 18 83t52 68t53 52q45 35 106 35h250q49 0 92 -29q84 -57 154 -180l-74 -23q-20 37 -63 84q-42 47 -66 61t-49 15h-244q-81 0 -147 -125q-8 -18 -8 -45v-383q85 129 196 127h232q68 0 106 -33q20 -16 54 -52t52 -64t17 -82
v-273z" />
    <glyph glyph-name="seven" unicode="7" horiz-adv-x="1011" 
d="M84 1143v74h719v-74l-522 -1143l-84 2l524 1141h-637z" />
    <glyph glyph-name="eight" unicode="8" horiz-adv-x="1011" 
d="M743 227v187q0 27 -8 43q-35 70 -104 110q-20 12 -45 13h-271q-47 0 -102 -58t-55 -108v-187q0 -47 42 -95t64 -60t51 -13h271q47 0 102 59t55 109zM743 817v168q0 53 -43 98q-43 46 -65 59t-49 13h-271q-83 0 -149 -125q-8 -18 -8 -45v-168q0 -27 8 -45q41 -78 102 -113
q14 -8 47 -8h271q27 0 45 11q70 41 104 110q8 18 8 45zM817 225q0 -55 -18 -83q-19 -28 -53 -68q-34 -39 -52 -51q-45 -35 -106 -35h-275q-61 0 -106 35q-18 12 -52 51q-35 40 -53 68t-18 83v193q0 55 20 86t101 110q-73 68 -97 106t-24 93v176q0 55 26 98t97 105
q45 35 106 35h275q60 1 92 -25t68 -63t43 -52q27 -43 26 -98v-176q-1 -55 -25 -93t-96 -106q80 -80 101 -110t20 -86v-193z" />
    <glyph glyph-name="nine" unicode="9" horiz-adv-x="1011" 
d="M150 987v-268q0 -27 8 -43q37 -70 102 -107q20 -12 47 -12h232q25 0 45 10q78 45 135 129q14 20 14 35v256q0 51 -43 96q-43 46 -65 59t-50 13h-268q-29 0 -51 -12t-64 -61t-42 -95zM76 989q0 55 18 83t52 68t53 52q45 35 106 35h273q61 0 106 -35q18 -12 52 -51t52 -68
t19 -84v-764q-1 -55 -19 -83t-52 -68q-34 -39 -52 -51q-45 -35 -106 -35h-250q-128 0 -246 209l74 22q20 -37 63 -84t65 -61t50 -15h244q27 0 45 11q59 33 102 114q8 18 8 45v383q-84 -127 -196 -127h-232q-68 0 -106 33q-20 16 -55 52q-34 36 -42 51q-27 43 -26 96v272z
" />
    <glyph glyph-name="colon" unicode=":" horiz-adv-x="440" 
d="M219 0h-125v133h125v-133zM219 612h-125v133h125v-133z" />
    <glyph glyph-name="semicolon" unicode=";" horiz-adv-x="432" 
d="M215 131l-117 -309h-82l123 338zM221 612h-125v133h125v-133z" />
    <glyph glyph-name="less" unicode="&#x3c;" horiz-adv-x="1468" 
d="M1257 582h-1081l555 -582h-92l-596 616l596 619h90l-553 -582h1081v-71z" />
    <glyph glyph-name="equal" unicode="=" horiz-adv-x="964" 
d="M750 340h-664v74h664v-74zM750 606h-664v74h664v-74z" />
    <glyph glyph-name="greater" unicode="&#x3e;" horiz-adv-x="1468" 
d="M49 582v71h1084l-558 582h93l596 -619l-596 -616h-90l555 582h-1084z" />
    <glyph glyph-name="question" unicode="?" horiz-adv-x="909" 
d="M479 0h-121v129h121v-129zM301 1225h248q63 0 108 -35q19 -12 53 -51t52 -68t18 -84v-147q0 -117 -114 -178l-134 -72q-30 -16 -54 -50t-23 -71v-111h-74v121q0 109 121 172l133 76q72 39 72 117l2 139q-1 52 -45 98t-66 59t-51 13h-240q-29 0 -51 -13q-22 -12 -66 -60
q-43 -48 -61 -89l-72 23q114 211 244 211z" />
    <glyph glyph-name="at" unicode="@" horiz-adv-x="1302" 
d="M522 227q0 -33 8 -47q66 -120 160 -123h94q39 0 141 74q77 59 81 102v400q0 38 -90 107t-132 69h-94q-29 0 -49 -10q-68 -37 -111 -117q-8 -14 -8 -45v-410zM815 1227q113 0 236 -172q25 -35 24 -97v-808l19 -150h-74l-16 123q-38 -47 -104 -90t-109 -43h-103
q-76 0 -123 40t-82 85t-34 110v418q1 65 35 107t85 92q45 37 119 37h103q41 0 107 -45t108 -95v222q0 29 -16 55t-62 72t-66 58q-22 12 -45 13h-475q-28 0 -50 -14q-22 -13 -65 -59t-57 -71t-14 -54v-1037q0 -26 16 -50t73 -81q58 -57 99 -57h102l11 -72h-113q-53 0 -88 24
t-81 71q-46 48 -69 78t-22 93v1028q0 70 20 95q72 94 142 145q37 29 98 29h471z" />
    <glyph glyph-name="A" unicode="A" horiz-adv-x="1048" 
d="M739 362l-247 785h-58l-246 -785h551zM932 0h-78l-94 291h-592l-96 -291h-76l393 1217h150z" />
    <glyph glyph-name="B" unicode="B" horiz-adv-x="1085" 
d="M803 240v176q0 27 -8 43q-35 70 -105 108q-16 10 -43 11h-471v-506h465q29 0 51 13t67 58q44 46 44 97zM803 815v160q0 27 -8 43q-39 76 -107 117q-18 10 -47 10h-465v-496h473q23 0 43 13q63 35 103 108q8 18 8 45zM877 236q1 -55 -17 -83t-53 -66t-53 -52
q-45 -35 -107 -35h-545v1217h545q59 -1 93 -27t69 -64t51 -64t17 -85v-164q0 -55 -24 -95t-95 -104q72 -63 96 -103t23 -95v-180z" />
    <glyph glyph-name="C" unicode="C" horiz-adv-x="1058" 
d="M348 -12q-77 0 -162 93q-44 48 -64 78t-20 85v727q0 53 20 84t65 80q46 49 80 71t79 23h291q41 0 90 -31q82 -55 154 -180l-72 -23q-25 45 -78 103t-100 59h-281q-41 0 -92 -53q-50 -54 -66 -80t-16 -57v-723q0 -44 58 -102t79 -70q22 -12 41 -13h279q45 -1 96 59t76 101
l76 -20q-72 -125 -154 -181q-49 -31 -90 -30h-289z" />
    <glyph glyph-name="D" unicode="D" horiz-adv-x="1083" 
d="M805 256v700q-1 46 -55 106t-75 72t-42 11h-457v-1073h451q43 0 111 70q67 70 67 114zM879 256q-1 -49 -21 -84t-62 -79q-89 -93 -161 -93h-533v1217h533q47 1 81 -21t79 -72t65 -84q20 -32 19 -82v-702z" />
    <glyph glyph-name="E" unicode="E" horiz-adv-x="1005" 
d="M774 0h-672v1217h672v-72h-598v-496h559v-71h-559v-506h598v-72z" />
    <glyph glyph-name="F" unicode="F" horiz-adv-x="950" 
d="M774 1145h-598v-496h561v-71h-561v-578h-74v1217h672v-72z" />
    <glyph glyph-name="G" unicode="G" horiz-adv-x="1169" 
d="M348 -6q-75 0 -162 93q-44 48 -64 78t-20 85v719q0 55 18 85t67 79q48 49 83 73t78 23h334q119 0 244 -211l-74 -23q-23 43 -65 89t-65 60t-46 13h-320q-38 0 -96 -56q-56 -55 -70 -79t-14 -55v-715q0 -26 13 -50t71 -80t98 -56h316q41 0 97 53q57 53 71 79t14 50v330
h-299v71h373l2 -459q10 -98 22 -190h-67l-15 123q-107 -129 -192 -129h-332z" />
    <glyph glyph-name="H" unicode="H" horiz-adv-x="1116" 
d="M887 0h-74v578h-637v-578h-74v1217h74v-568h637v568h74v-1217z" />
    <glyph glyph-name="I" unicode="I" horiz-adv-x="405" 
d="M176 0h-74v1217h74v-1217z" />
    <glyph glyph-name="J" unicode="J" horiz-adv-x="876" 
d="M668 248q0 -53 -20 -85t-66 -80q-45 -48 -81 -71t-79 -22h-158q-42 0 -100 36t-144 175l72 20q80 -127 137 -151q16 -8 41 -9h148q41 -1 93 55t73 93q10 27 10 37v971h74v-969z" />
    <glyph glyph-name="K" unicode="K" horiz-adv-x="987" 
d="M176 573v-573h-74v1217h74v-576h51l527 576h94l-557 -609l563 -608h-98l-529 573h-51z" />
    <glyph glyph-name="L" unicode="L" horiz-adv-x="911" 
d="M762 0h-660v1217h74v-1145h586v-72z" />
    <glyph glyph-name="M" unicode="M" horiz-adv-x="1306" 
d="M1077 0h-73v1151h-23l-369 -811h-47l-368 807h-21v-1147h-74v1217h144l342 -762l344 762h145v-1217z" />
    <glyph glyph-name="N" unicode="N" horiz-adv-x="1105" 
d="M877 0h-142l-538 1149h-21v-1149h-74v1217h142l540 -1147h19v1147h74v-1217z" />
    <glyph glyph-name="O" unicode="O" horiz-adv-x="1140" 
d="M862 246v725q0 27 -14 53t-68 79q-54 54 -96 54h-330q-41 0 -94 -54q-52 -55 -68 -81t-16 -51v-727q0 -24 14 -48t60 -69t66 -56q19 -11 38 -12h330q42 1 95 55t68 80t15 52zM936 246q0 -57 -20 -87t-64 -78q-45 -48 -82 -71t-80 -22h-344q-41 0 -78 23t-84 71t-64 77
q-17 28 -18 87v723q0 53 18 83t65 80q46 50 81 74t80 23h344q47 1 82 -23t80 -73q44 -49 64 -81t20 -83v-723z" />
    <glyph glyph-name="P" unicode="P" horiz-adv-x="1046" 
d="M805 805v170q0 27 -8 45q-41 78 -105 113q-23 12 -47 12h-469v-502h469q47 0 94 45q46 44 56 66t10 51zM879 803q-1 -53 -19 -81t-53 -66t-67 -62t-93 -23h-471v-571h-74v1217h545q59 0 105 -35q20 -14 55 -52t53 -68q18 -28 19 -83v-176z" />
    <glyph glyph-name="Q" unicode="Q" horiz-adv-x="1140" 
d="M864 246v725q0 27 -14 53t-68 79q-54 54 -96 54h-330q-39 0 -93 -54q-53 -55 -69 -81t-16 -51v-727q0 -24 14 -48t60 -69t66 -56t38 -12h191l-29 74l64 23l39 -97h65q42 1 95 55t68 80t15 52zM938 246q0 -57 -20 -87t-64 -78q-45 -48 -82 -71t-80 -22h-45l74 -185h-72
l-71 185h-230q-41 0 -78 23t-84 71t-64 77q-17 28 -18 87v723q0 53 18 83t65 80q46 50 81 74t80 23h344q47 1 82 -23t80 -73q44 -49 64 -81t20 -83v-723z" />
    <glyph glyph-name="R" unicode="R" horiz-adv-x="1114" 
d="M805 805v170q0 27 -8 45q-41 78 -105 113q-23 12 -47 12h-469v-502h469q47 0 94 45q46 44 56 66t10 51zM879 803q-1 -53 -19 -81t-53 -66t-67 -62t-93 -23h-49l328 -571h-84l-328 571h-338v-571h-74v1217h545q59 0 105 -35q20 -14 55 -52t53 -68q18 -28 19 -83v-176z" />
    <glyph glyph-name="S" unicode="S" horiz-adv-x="1105" 
d="M911 246q0 -51 -18 -83q-17 -32 -65 -80t-84 -72t-78 -23h-353q-51 0 -92 30q-88 66 -149 181l73 20q23 -43 75 -100t99 -60h338q40 1 96 55t70 80t15 54v133q0 98 -82 123l-549 155q-53 13 -86 63t-33 114v133q0 55 18 85t65 79q46 49 81 73t80 23h307q41 0 90 -31
q80 -51 154 -180l-74 -23q-18 41 -75 101t-101 61h-293q-43 0 -97 -56q-55 -56 -75 -93q-6 -16 -6 -39v-127q0 -94 78 -119l557 -156q53 -14 84 -61t30 -111v-149z" />
    <glyph glyph-name="T" unicode="T" horiz-adv-x="929" 
d="M786 1145h-356v-1145h-74v1145h-356v72h786v-72z" />
    <glyph glyph-name="U" unicode="U" horiz-adv-x="1077" 
d="M868 244q0 -49 -19 -82t-65 -81t-82 -71t-77 -22h-293q-77 0 -162 93q-44 48 -64 78t-20 85v973h74v-975q0 -12 10 -39q20 -37 75 -89t97 -55h272q42 1 98 55q80 78 83 128v975h73v-973z" />
    <glyph glyph-name="V" unicode="V" horiz-adv-x="1024" 
d="M913 1217l-387 -1217h-149l-387 1217h78l362 -1145h45l361 1145h77z" />
    <glyph glyph-name="W" unicode="W" horiz-adv-x="1392" 
d="M1278 1217l-266 -1217h-131l-250 1108l-248 -1108h-133l-258 1217h74l237 -1143h29l256 1143h88l256 -1143h29l241 1143h76z" />
    <glyph glyph-name="X" unicode="X" horiz-adv-x="956" 
d="M823 1217l-368 -603l379 -614h-82l-336 549l-336 -549h-82l377 614l-367 603h80l328 -537l327 537h80z" />
    <glyph glyph-name="Y" unicode="Y" horiz-adv-x="911" 
d="M438 0h-73v543l-375 674h82l329 -599l332 599h82l-377 -674v-543z" />
    <glyph glyph-name="Z" unicode="Z" horiz-adv-x="952" 
d="M782 0h-712v70l630 1075h-630v72h712v-74l-628 -1071h628v-72z" />
    <glyph glyph-name="bracketleft" unicode="[" horiz-adv-x="577" 
d="M352 0h-268v1217h268v-70h-196v-1077h196v-70z" />
    <glyph glyph-name="bracketright" unicode="]" horiz-adv-x="565" 
d="M362 0h-270v70h197v1077h-197v70h270v-1217z" />
    <glyph glyph-name="underscore" unicode="_" horiz-adv-x="915" 
d="M772 -115h-700v68h700v-68z" />
    <glyph glyph-name="a" unicode="a" horiz-adv-x="952" 
d="M674 432h-400q-31 0 -51 -12q-61 -37 -94 -105q-8 -16 -8 -45v-49q0 -27 8 -43q35 -70 98 -108q20 -12 54 -13h190q18 0 39 11q123 65 164 141v223zM276 -10q-115 0 -198 133q-27 39 -27 100v43q0 111 113 197q47 37 112 37h398v155q0 29 -10 51t-42 57q-32 34 -54 47
t-52 13h-215q-23 0 -49 -14t-90 -100l-68 26q60 90 104 123t109 33h209q118 0 203 -133q25 -35 24 -103v-503l21 -152h-70l-16 115q-38 -49 -100 -87t-101 -38h-201z" />
    <glyph glyph-name="b" unicode="b" horiz-adv-x="968" 
d="M705 227v426q0 31 -9 47q-41 78 -102 113q-18 10 -47 10h-174q-23 0 -39 -8q-143 -80 -170 -151v-445q18 -41 90 -100t119 -62h172q25 0 47 13q66 37 104 110q9 16 9 47zM367 -10q-92 0 -205 127l-15 -117h-69l16 137v1080h70v-453q33 43 110 98q41 29 93 29h180
q69 0 109 -32t92 -101q27 -39 26 -99v-436q0 -109 -115 -196q-47 -37 -112 -37h-180z" />
    <glyph glyph-name="c" unicode="c" 
d="M541 57q74 0 143 115l68 -25q-56 -85 -102 -121t-111 -36h-230q-67 0 -115 38q-113 91 -112 197v430q0 111 113 199q47 37 114 37h223q66 0 117 -41t99 -117l-70 -22q-66 112 -146 112h-225q-29 0 -47 -10q-66 -39 -102 -113q-6 -12 -6 -45v-430q0 -33 10 -53t43 -54
t55 -47t51 -14h230z" />
    <glyph glyph-name="d" unicode="d" horiz-adv-x="968" 
d="M152 653v-426q0 -31 8 -47q39 -74 104 -110q23 -12 47 -13h172q45 1 118 61q72 60 91 101v445q-27 72 -170 151q-16 8 -39 8h-174q-29 0 -47 -10q-61 -35 -102 -113q-8 -16 -8 -47zM309 -10q-115 0 -200 133q-27 39 -27 100v436q0 59 27 99q51 70 92 102t108 31h180
q51 0 93 -29q78 -55 110 -98v453h70v-1080l16 -137h-69l-15 117q-116 -129 -205 -127h-180z" />
    <glyph glyph-name="e" unicode="e" horiz-adv-x="948" 
d="M694 471v182q0 35 -9 55t-42 55q-33 34 -55 47t-51 13h-228q-48 0 -92 -47q-45 -46 -55 -68t-10 -55v-182h542zM764 403h-612v-174q0 -33 6 -45q39 -76 106 -116q18 -10 45 -11h232q29 0 61 20t86 97l66 -27q-56 -85 -102 -121t-111 -36h-230q-67 0 -115 38
q-114 91 -114 197v430q0 107 115 199q47 37 114 37h226q67 0 115 -38q112 -89 112 -198v-252z" />
    <glyph glyph-name="f" unicode="f" horiz-adv-x="641" 
d="M512 813h-266v-813h-70v813h-145v68h145v127q0 55 30 100q81 121 197 121h144v-66h-144q-35 0 -53 -12q-63 -39 -98 -104q-6 -14 -6 -39v-127h266v-68z" />
    <glyph glyph-name="g" unicode="g" horiz-adv-x="983" 
d="M498 823h-189q-29 0 -47 -10q-68 -41 -104 -113q-6 -12 -6 -47v-428q0 -35 6 -47q35 -70 104 -110q18 -10 47 -11h191q26 -1 50 13t75 56t80 89v449q-28 44 -81 89q-52 44 -76 57t-50 13zM309 -10q-71 0 -117 37q-112 89 -110 194v436q0 66 30 110t80 84q52 40 117 40
h195q45 0 94 -35q88 -72 104 -94l17 119h69l-14 -131v-863q0 -67 -30 -111t-79 -83q-50 -39 -118 -39h-230q-67 0 -113 37t-100 121l68 24q57 -82 94 -102q20 -12 45 -13h240q27 0 47 13q66 39 100 108q6 14 7 47v232q-114 -131 -199 -131h-197z" />
    <glyph glyph-name="h" unicode="h" horiz-adv-x="960" 
d="M526 823h-159q-23 0 -39 -8q-143 -80 -170 -151v-664h-70v1217h70v-455q18 33 86 81t116 48h168q68 0 115 -37q113 -89 113 -197v-657h-70v653q0 35 -11 55t-43 56q-32 35 -54 47t-52 12z" />
    <glyph glyph-name="i" unicode="i" horiz-adv-x="391" 
d="M190 1133h-110v114h110v-114zM170 0h-70v881h70v-881z" />
    <glyph glyph-name="j" unicode="j" horiz-adv-x="409" 
d="M209 1133h-111v114h111v-114zM188 -117q0 -67 -28 -111q-77 -118 -195 -118h-108v67h106q37 0 49 9q59 33 101 110q6 12 6 47v994h69v-998z" />
    <glyph glyph-name="k" unicode="k" horiz-adv-x="802" 
d="M154 432v-432h-70v1217h70v-719h47l393 383h92l-422 -414l459 -467h-98l-422 432h-49z" />
    <glyph glyph-name="l" unicode="l" horiz-adv-x="376" 
d="M90 121v1096h70v-1076l16 -141h-70q-16 80 -16 121z" />
    <glyph glyph-name="m" unicode="m" horiz-adv-x="1441" 
d="M467 823h-92q-23 0 -39 -8q-143 -80 -170 -151v-664h-70v750l-14 131h70l14 -115q28 35 92 80t111 45h100q112 0 201 -133l6 -13q39 47 123 113q41 33 94 33h113q68 0 116 -38q112 -89 111 -198v-655h-70v651q0 33 -11 55t-43 58q-32 37 -51 48t-54 11h-105q-29 0 -41 -8
q-111 -68 -160 -147v-668h-69v651q1 49 -43 99t-65 61q-21 12 -54 12z" />
    <glyph glyph-name="n" unicode="n" horiz-adv-x="968" 
d="M369 891h168q69 0 115 -37q112 -90 112 -197v-657h-70v653q0 35 -11 55t-43 56q-32 35 -54 47t-51 12h-160q-23 0 -39 -8q-143 -80 -170 -151v-664h-70v750l-14 131h70l14 -115q28 35 92 80t111 45z" />
    <glyph glyph-name="o" unicode="o" 
d="M682 225v432q0 31 -6 45q-35 68 -107 111q-18 10 -47 10h-223q-29 0 -47 -10q-70 -41 -105 -111q-6 -12 -6 -45v-432q0 -33 10 -53q9 -20 43 -54t56 -47t51 -14h223q29 0 47 11q68 41 105 112q6 14 6 45zM752 655v-430q0 -67 -32 -113q-84 -122 -196 -122h-225
q-68 0 -116 38q-113 89 -111 197v430q0 110 112 199q47 37 115 37h225q68 0 116 -38q112 -89 112 -198z" />
    <glyph glyph-name="p" unicode="p" horiz-adv-x="958" 
d="M705 227v426q0 31 -9 47q-41 76 -102 111q-23 12 -47 12h-174q-47 0 -118 -60q-72 -60 -91 -101v-445q27 -72 170 -151q16 -8 39 -9h176q80 0 147 123q9 16 9 47zM547 891q114 0 201 -133q26 -40 26 -101v-436q0 -59 -26 -98q-50 -69 -92 -101t-109 -32h-180
q-49 0 -93 30q-92 63 -110 99v-455h-70v1079l-16 138h69l15 -117q115 127 205 127h180z" />
    <glyph glyph-name="q" unicode="q" horiz-adv-x="966" 
d="M152 653v-426q0 -31 8 -47q63 -120 149 -123h174q23 0 39 9q143 80 170 151v445q-18 41 -90 101t-119 60h-172q-25 0 -47 -12q-66 -37 -104 -111q-8 -16 -8 -47zM489 891q90 0 205 -127l15 117h69l-16 -138v-1079h-70v453q-16 -31 -110 -97q-43 -31 -93 -30h-180
q-69 0 -109 32t-91 101q-27 39 -27 98v436q0 108 115 197q47 37 112 37h180z" />
    <glyph glyph-name="r" unicode="r" horiz-adv-x="802" 
d="M471 823h-98q-23 0 -39 -8q-143 -80 -170 -151v-664h-70v750l-14 131h70l14 -115q27 35 91 80t112 45h100q66 0 112 -36t101 -122l-68 -26q-60 88 -86 102t-55 14z" />
    <glyph glyph-name="s" unicode="s" horiz-adv-x="915" 
d="M506 823h-217q-33 0 -51 -10q-63 -39 -95 -100q-6 -12 -6 -51v-64q0 -43 29 -72t67 -32l338 -25q72 -4 116 -54t44 -120v-78q0 -108 -106 -188q-49 -39 -113 -39h-246q-66 0 -116 40t-95 117l66 27q47 -80 94 -106q18 -10 47 -11h248q29 0 47 11q68 39 98 102q6 12 7 49
v78q0 43 -29 72t-68 32l-338 25q-71 4 -115 53t-44 119v66q0 107 106 190q47 37 113 37h213q66 0 112 -36t101 -122l-64 -24q-66 114 -143 114z" />
    <glyph glyph-name="t" unicode="t" horiz-adv-x="638" 
d="M496 813h-271v-575q0 -37 6 -52q37 -70 103 -106q23 -12 51 -12h109v-68h-111q-116 0 -201 133q-27 39 -26 100v580h-146v68h146v336h69v-336h271v-68z" />
    <glyph glyph-name="u" unicode="u" horiz-adv-x="956" 
d="M309 -10q-69 0 -115 37q-112 90 -112 196v658h70v-654q0 -35 11 -55t43 -56q32 -34 54 -46t51 -13h160q23 0 39 9q143 80 170 151v664h70v-750l14 -131h-70l-14 115q-28 -35 -92 -81t-111 -44h-168z" />
    <glyph glyph-name="v" unicode="v" horiz-adv-x="819" 
d="M692 881l-272 -881h-125l-277 881h76l246 -807h35l243 807h74z" />
    <glyph glyph-name="w" unicode="w" horiz-adv-x="1314" 
d="M1186 881l-242 -881h-125l-215 797l-219 -797h-123l-239 881h71l215 -811h31l215 811h96l213 -811h33l217 811h72z" />
    <glyph glyph-name="x" unicode="x" horiz-adv-x="854" 
d="M694 0h-84l-239 395l-236 -395h-84l279 453l-267 428h84l226 -377l219 377h86l-264 -428z" />
    <glyph glyph-name="y" unicode="y" horiz-adv-x="819" 
d="M692 881l-379 -1217h-77l112 336h-53l-277 881h76l248 -809h29l247 809h74z" />
    <glyph glyph-name="z" unicode="z" horiz-adv-x="837" 
d="M674 0h-602v59l495 754h-512v68h596v-64l-495 -749h518v-68z" />
    <glyph glyph-name="cent" unicode="&#xa2;" horiz-adv-x="913" 
d="M379 57v766h-68q-29 0 -51 -13t-56 -48q-34 -34 -43 -54t-9 -57v-422q0 -37 9 -57t43 -54t56 -47t51 -14h68zM543 57q74 0 143 115l66 -25q-56 -85 -102 -121t-111 -36h-90v-187h-70v187h-70q-67 0 -115 38q-113 91 -112 197v430q0 111 113 199q47 37 114 37h70v213h70
v-213h83q121 0 213 -160l-63 -22q-66 114 -145 114h-88v-766h94z" />
    <glyph glyph-name="sterling" unicode="&#xa3;" horiz-adv-x="1183" 
d="M711 0h-539v348h-84v62h84v170h-84v63h84v328q0 53 18 84t65 80q46 49 83 71t80 23h235v-70h-233q-49 0 -98 -51q-50 -51 -70 -88q-6 -18 -6 -49v-328h487v-63h-487v-170h487v-62h-487v-278h459q48 0 103 62q56 62 75 106l71 -23q-53 -113 -151 -182q-53 -33 -92 -33z
" />
    <glyph glyph-name="currency" unicode="&#xa4;" horiz-adv-x="1134" 
d="M246 535q0 -23 6 -36t29 -39t37 -34t32 -8h303q33 0 63 34t36 47t6 36v202q0 23 -6 36t-36 47t-63 34h-303q-33 0 -63 -34q-29 -34 -35 -47t-6 -36v-202zM823 526q0 -64 -51 -112l66 -64l-50 -49l-69 66q-27 -14 -62 -15h-311q-39 0 -65 17l-64 -66l-49 49l61 62l-30 39
q-18 27 -19 73v219q0 62 51 113l-61 64l49 49l66 -66q27 14 61 15h311q33 0 62 -15l69 70l50 -49l-68 -68q19 -18 36 -42t17 -71v-219z" />
    <glyph glyph-name="yen" unicode="&#xa5;" horiz-adv-x="964" 
d="M768 639v-68h-279v-161h279v-68h-279v-342h-73v342h-291v68h291v161h-291v68h246l-316 578h80l314 -578h10l315 578h78l-320 -578h236z" />
    <glyph glyph-name="copyright" unicode="&#xa9;" horiz-adv-x="1271" 
d="M1008 961q0 46 -58 108q-58 63 -80 75t-47 13h-489q-24 0 -46 -12q-22 -13 -64 -59t-56 -72t-14 -53v-707q0 -51 57 -110q57 -58 79 -70t44 -13h487q23 1 45 13t81 69q58 57 61 111v707zM1077 250q0 -53 -20 -84q-19 -31 -65 -79q-46 -47 -82 -71t-83 -24h-499
q-43 0 -80 24t-82 71q-46 48 -64 78t-18 85v713q0 55 18 86t64 81t84 74q37 23 80 23h497q80 0 164 -95q45 -50 66 -82t20 -85v-715zM662 268h-136q-112 0 -192 129q-29 45 -29 99v231q0 105 113 193q41 33 108 32h136q41 0 81 -36t82 -80l-59 -31q-72 67 -81 73t-28 7h-129
q-37 0 -49 -8q-57 -35 -96 -107q-8 -16 -8 -43v-227q0 -29 8 -45q39 -74 100 -111q12 -8 45 -8h129q25 0 31 4t78 72l63 -23q-100 -121 -167 -121z" />
    <glyph glyph-name="guillemotleft" unicode="&#xab;" horiz-adv-x="1077" 
d="M559 508l254 -291l-76 -24l-274 313l274 317l78 -26zM246 508l254 -291l-76 -24l-274 313l274 317l78 -26z" />
    <glyph glyph-name="registered" unicode="&#xae;" horiz-adv-x="1271" 
d="M621 909h-211v-364h217q25 0 47 12q66 41 98 105q8 16 8 47v34q0 27 -8 43q-32 68 -104 111q-23 12 -47 12zM410 240h-70v737h283q115 0 198 -133q27 -39 27 -101v-32q0 -61 -30 -107t-85 -88q-14 -12 -43 -22l178 -254h-88l-159 237h-211v-237zM1008 961q0 46 -58 108
q-58 63 -80 75t-47 13h-489q-24 0 -46 -12q-22 -13 -64 -59t-56 -72t-14 -53v-707q0 -51 57 -110q57 -58 79 -70t44 -13h487q23 1 45 13t81 69q58 57 61 111v707zM1077 250q0 -53 -20 -84q-19 -31 -65 -79q-46 -47 -82 -71t-83 -24h-499q-43 0 -80 24t-82 71q-46 48 -64 78
t-18 85v713q0 55 18 86t64 81t84 74q37 23 80 23h497q80 0 164 -95q45 -50 66 -82t20 -85v-715z" />
    <glyph glyph-name="macron" unicode="&#xaf;" horiz-adv-x="616" 
d="M412 1151h-322v68h322v-68z" />
    <glyph glyph-name="periodcentered" unicode="&#xb7;" horiz-adv-x="585" 
d="M274 434h-118v160h118v-160z" />
    <glyph glyph-name="cedilla" unicode="&#xb8;" horiz-adv-x="831" 
d="M461 -109l-152 -231h-80l162 260z" />
    <glyph glyph-name="guillemotright" unicode="&#xbb;" horiz-adv-x="1077" 
d="M152 217l254 291l-256 289l77 26l275 -317l-275 -313zM465 217l254 291l-256 289l78 26l274 -317l-274 -313z" />
    <glyph glyph-name="Agrave" unicode="&#xc0;" horiz-adv-x="1042" 
d="M578 1362l-64 -27l-217 275h86zM733 362l-248 785h-57l-246 -785h551zM926 0h-78l-94 291h-592l-96 -291h-76l393 1217h149z" />
    <glyph glyph-name="Aacute" unicode="&#xc1;" horiz-adv-x="1048" 
d="M629 1612l-217 -275l-62 27l195 248h84zM739 362l-247 785h-58l-246 -785h551zM932 0h-78l-94 291h-592l-96 -291h-76l393 1217h150z" />
    <glyph glyph-name="Acircumflex" unicode="&#xc2;" horiz-adv-x="1048" 
d="M209 1337l217 277h78l217 -277h-86l-170 219l-172 -219h-84zM739 362l-247 785h-58l-246 -785h551zM932 0h-78l-94 291h-592l-96 -291h-76l393 1217h150z" />
    <glyph glyph-name="Atilde" unicode="&#xc3;" horiz-adv-x="1048" 
d="M723 1386l-66 -20q-16 37 -48 56t-64 14l-142 -45q-61 -19 -118 11t-82 99l65 21q37 -82 113 -68l145 45q61 20 117 -10q55 -31 80 -103zM739 362l-247 785h-58l-246 -785h551zM932 0h-78l-94 291h-592l-96 -291h-76l393 1217h150z" />
    <glyph glyph-name="Adieresis" unicode="&#xc4;" horiz-adv-x="1048" 
d="M379 1405h-111v115h111v-115zM653 1405h-110v115h110v-115zM739 362l-247 785h-58l-246 -785h551zM932 0h-78l-94 291h-592l-96 -291h-76l393 1217h150z" />
    <glyph glyph-name="Aring" unicode="&#xc5;" horiz-adv-x="1048" 
d="M586 1538q0 55 -35 91t-88 36t-87 -36t-34 -91t34 -90t87 -35t88 35t35 90zM651 1538q0 -78 -55 -132t-133 -54t-133 54q-56 54 -56 132t56 133t133 55q78 0 133 -55t55 -133zM739 362l-247 785h-58l-246 -785h551zM932 0h-78l-94 291h-592l-96 -291h-76l393 1217h150z
" />
    <glyph glyph-name="AE" unicode="&#xc6;" horiz-adv-x="1470" 
d="M637 1143h-64l-329 -781h393v781zM1239 1217v-74h-528v-500h487v-72h-487v-499h528v-72h-602v289h-424l315 928h711z" />
    <glyph glyph-name="Ccedilla" unicode="&#xc7;" horiz-adv-x="1060" 
d="M348 -12q-77 0 -162 93q-44 48 -64 78t-20 85v727q0 53 20 84t65 80q46 49 80 71t79 23h291q41 0 90 -31q82 -55 154 -180l-72 -23q-25 45 -78 103t-100 59h-281q-41 0 -92 -53q-50 -54 -66 -80t-16 -57v-723q0 -44 58 -102t79 -70q22 -12 41 -13h279q45 -1 96 59t76 101
l76 -20q-72 -125 -154 -181q-49 -31 -90 -30h-289zM600 -109l-151 -231h-80l161 260z" />
    <glyph glyph-name="Egrave" unicode="&#xc8;" horiz-adv-x="1005" 
d="M571 1364l-63 -27l-217 275h86zM774 0h-672v1217h672v-72h-598v-496h559v-71h-559v-506h598v-72z" />
    <glyph glyph-name="Eacute" unicode="&#xc9;" horiz-adv-x="1005" 
d="M637 1610l-217 -275l-62 27l195 248h84zM774 0h-672v1217h672v-72h-598v-496h559v-71h-559v-506h598v-72z" />
    <glyph glyph-name="Edieresis" unicode="&#xcb;" horiz-adv-x="1005" 
d="M379 1405h-111v115h111v-115zM653 1405h-110v115h110v-115zM774 0h-672v1217h672v-72h-598v-496h559v-71h-559v-506h598v-72z" />
    <glyph glyph-name="Igrave" unicode="&#xcc;" horiz-adv-x="471" 
d="M209 1364l-64 -27l-217 275h86zM176 0h-74v1217h74v-1217z" />
    <glyph glyph-name="Icircumflex" unicode="&#xce;" horiz-adv-x="471" 
d="M-113 1337l217 277h78l217 -277h-86l-170 219l-172 -219h-84zM176 0h-74v1217h74v-1217z" />
    <glyph glyph-name="Eth" unicode="&#xd0;" horiz-adv-x="1138" 
d="M537 575h-320v-503h453q24 0 46 12t76 69t54 103v700q0 46 -54 106t-76 72q-21 12 -40 11h-459v-502h320v-68zM920 256q0 -49 -20 -81t-64 -81q-86 -94 -160 -94h-531v575h-165v68h165v574h531q45 1 80 -21t80 -72q44 -50 64 -84q20 -32 20 -82v-702z" />
    <glyph glyph-name="Ntilde" unicode="&#xd1;" horiz-adv-x="1105" 
d="M750 1386l-66 -20q-16 37 -48 56t-65 14l-141 -45q-61 -20 -119 10q-57 31 -82 100l66 21q37 -82 113 -68l145 45q61 20 117 -10q55 -31 80 -103zM877 0h-142l-538 1149h-21v-1149h-74v1217h142l540 -1147h19v1147h74v-1217z" />
    <glyph glyph-name="Oacute" unicode="&#xd3;" horiz-adv-x="1142" 
d="M684 1614l-217 -275l-61 27l194 248h84zM864 246v725q0 27 -14 53t-68 79q-54 54 -96 54h-330q-39 0 -93 -54q-53 -55 -69 -81t-16 -51v-727q0 -24 14 -48t60 -69t66 -56t38 -12h330q42 1 95 55t68 80t15 52zM938 246q0 -57 -20 -87t-64 -78q-45 -48 -82 -71t-80 -22
h-344q-41 0 -78 23t-84 71t-64 77q-17 28 -18 87v723q0 53 18 83t65 80q46 50 81 74t80 23h344q47 1 82 -23t80 -73q44 -49 64 -81t20 -83v-723z" />
    <glyph glyph-name="Ocircumflex" unicode="&#xd4;" horiz-adv-x="1142" 
d="M268 1339l217 277h78l217 -277h-86l-170 220l-172 -220h-84zM864 246v725q0 27 -14 53t-68 79q-54 54 -96 54h-330q-39 0 -93 -54q-53 -55 -69 -81t-16 -51v-727q0 -24 14 -48t60 -69t66 -56t38 -12h330q42 1 95 55t68 80t15 52zM938 246q0 -57 -20 -87t-64 -78
q-45 -48 -82 -71t-80 -22h-344q-41 0 -78 23t-84 71t-64 77q-17 28 -18 87v723q0 53 18 83t65 80q46 50 81 74t80 23h344q47 1 82 -23t80 -73q44 -49 64 -81t20 -83v-723z" />
    <glyph glyph-name="Otilde" unicode="&#xd5;" horiz-adv-x="1142" 
d="M778 1386l-65 -20q-16 37 -48 56t-65 14l-141 -45q-61 -20 -119 10q-57 31 -82 100l66 21q37 -82 112 -68l146 45q61 19 116 -11t80 -102zM864 246v725q0 27 -14 53t-68 79q-54 54 -96 54h-330q-39 0 -93 -54q-53 -55 -69 -81t-16 -51v-727q0 -24 14 -48t60 -69t66 -56
t38 -12h330q42 1 95 55t68 80t15 52zM938 246q0 -57 -20 -87t-64 -78q-45 -48 -82 -71t-80 -22h-344q-41 0 -78 23t-84 71t-64 77q-17 28 -18 87v723q0 53 18 83t65 80q46 50 81 74t80 23h344q47 1 82 -23t80 -73q44 -49 64 -81t20 -83v-723z" />
    <glyph glyph-name="Odieresis" unicode="&#xd6;" horiz-adv-x="1142" 
d="M438 1401h-110v115h110v-115zM713 1401h-111v115h111v-115zM864 246v725q0 27 -14 53t-68 79q-54 54 -96 54h-330q-39 0 -93 -54q-53 -55 -69 -81t-16 -51v-727q0 -24 14 -48t60 -69t66 -56t38 -12h330q42 1 95 55t68 80t15 52zM938 246q0 -57 -20 -87t-64 -78
q-45 -48 -82 -71t-80 -22h-344q-41 0 -78 23t-84 71t-64 77q-17 28 -18 87v723q0 53 18 83t65 80q46 50 81 74t80 23h344q47 1 82 -23t80 -73q44 -49 64 -81t20 -83v-723z" />
    <glyph glyph-name="Ugrave" unicode="&#xd9;" horiz-adv-x="1093" 
d="M621 1366l-64 -27l-217 275h86zM868 244q0 -49 -19 -82t-65 -81t-82 -71t-77 -22h-293q-77 0 -162 93q-44 48 -64 78t-20 85v973h74v-975q0 -12 10 -39q20 -37 75 -89t97 -55h272q42 1 98 55q80 78 83 128v975h73v-973z" />
    <glyph glyph-name="Uacute" unicode="&#xda;" horiz-adv-x="1093" 
d="M637 1614l-217 -275l-62 27l195 248h84zM868 244q0 -49 -19 -82t-65 -81t-82 -71t-77 -22h-293q-77 0 -162 93q-44 48 -64 78t-20 85v973h74v-975q0 -12 10 -39q20 -37 75 -89t97 -55h272q42 1 98 55q80 78 83 128v975h73v-973z" />
    <glyph glyph-name="Ucircumflex" unicode="&#xdb;" horiz-adv-x="1093" 
d="M229 1337l217 277h78l217 -277h-86l-170 219l-172 -219h-84zM868 244q0 -49 -19 -82t-65 -81t-82 -71t-77 -22h-293q-77 0 -162 93q-44 48 -64 78t-20 85v973h74v-975q0 -12 10 -39q20 -37 75 -89t97 -55h272q42 1 98 55q80 78 83 128v975h73v-973z" />
    <glyph glyph-name="Udieresis" unicode="&#xdc;" horiz-adv-x="1093" 
d="M401 1401h-110v115h110v-115zM676 1401h-111v115h111v-115zM868 244q0 -49 -19 -82t-65 -81t-82 -71t-77 -22h-293q-77 0 -162 93q-44 48 -64 78t-20 85v973h74v-975q0 -12 10 -39q20 -37 75 -89t97 -55h272q42 1 98 55q80 78 83 128v975h73v-973z" />
    <glyph glyph-name="agrave" unicode="&#xe0;" horiz-adv-x="942" 
d="M512 1069l-63 -27l-218 275h86zM674 432h-400q-31 0 -51 -12q-61 -37 -94 -105q-8 -16 -8 -45v-49q0 -27 8 -43q35 -70 98 -108q20 -12 54 -13h190q18 0 39 11q123 65 164 141v223zM276 -10q-115 0 -198 133q-27 39 -27 100v43q0 111 113 197q47 37 112 37h398v155
q0 29 -10 51t-42 57q-32 34 -54 47t-52 13h-215q-23 0 -49 -14t-90 -100l-68 26q60 90 104 123t109 33h209q118 0 203 -133q25 -35 24 -103v-503l21 -152h-70l-16 115q-38 -49 -100 -87t-101 -38h-201z" />
    <glyph glyph-name="aacute" unicode="&#xe1;" horiz-adv-x="942" 
d="M590 1317l-217 -275l-62 27l195 248h84zM674 432h-400q-31 0 -51 -12q-61 -37 -94 -105q-8 -16 -8 -45v-49q0 -27 8 -43q35 -70 98 -108q20 -12 54 -13h190q18 0 39 11q123 65 164 141v223zM276 -10q-115 0 -198 133q-27 39 -27 100v43q0 111 113 197q47 37 112 37h398
v155q0 29 -10 51t-42 57q-32 34 -54 47t-52 13h-215q-23 0 -49 -14t-90 -100l-68 26q60 90 104 123t109 33h209q118 0 203 -133q25 -35 24 -103v-503l21 -152h-70l-16 115q-38 -49 -100 -87t-101 -38h-201z" />
    <glyph glyph-name="acircumflex" unicode="&#xe2;" horiz-adv-x="942" 
d="M162 1042l217 277h78l217 -277h-86l-170 220l-172 -220h-84zM674 432h-400q-31 0 -51 -12q-61 -37 -94 -105q-8 -16 -8 -45v-49q0 -27 8 -43q35 -70 98 -108q20 -12 54 -13h190q18 0 39 11q123 65 164 141v223zM276 -10q-115 0 -198 133q-27 39 -27 100v43q0 111 113 197
q47 37 112 37h398v155q0 29 -10 51t-42 57q-32 34 -54 47t-52 13h-215q-23 0 -49 -14t-90 -100l-68 26q60 90 104 123t109 33h209q118 0 203 -133q25 -35 24 -103v-503l21 -152h-70l-16 115q-38 -49 -100 -87t-101 -38h-201z" />
    <glyph glyph-name="atilde" unicode="&#xe3;" horiz-adv-x="952" 
d="M694 1120l-65 -20q-16 37 -48 56t-65 13l-141 -45q-61 -20 -119 11q-57 31 -82 100l66 20q37 -82 112 -67l146 45q61 19 116 -11t80 -102zM674 432h-400q-31 0 -51 -12q-61 -37 -94 -105q-8 -16 -8 -45v-49q0 -27 8 -43q35 -70 98 -108q20 -12 54 -13h190q18 0 39 11
q123 65 164 141v223zM276 -10q-115 0 -198 133q-27 39 -27 100v43q0 111 113 197q47 37 112 37h398v155q0 29 -10 51t-42 57q-32 34 -54 47t-52 13h-215q-23 0 -49 -14t-90 -100l-68 26q60 90 104 123t109 33h209q118 0 203 -133q25 -35 24 -103v-503l21 -152h-70l-16 115
q-38 -49 -100 -87t-101 -38h-201z" />
    <glyph glyph-name="adieresis" unicode="&#xe4;" horiz-adv-x="942" 
d="M332 1133h-111v114h111v-114zM606 1133h-110v114h110v-114zM674 432h-400q-31 0 -51 -12q-61 -37 -94 -105q-8 -16 -8 -45v-49q0 -27 8 -43q35 -70 98 -108q20 -12 54 -13h190q18 0 39 11q123 65 164 141v223zM276 -10q-115 0 -198 133q-27 39 -27 100v43q0 111 113 197
q47 37 112 37h398v155q0 29 -10 51t-42 57q-32 34 -54 47t-52 13h-215q-23 0 -49 -14t-90 -100l-68 26q60 90 104 123t109 33h209q118 0 203 -133q25 -35 24 -103v-503l21 -152h-70l-16 115q-38 -49 -100 -87t-101 -38h-201z" />
    <glyph glyph-name="aring" unicode="&#xe5;" horiz-adv-x="952" 
d="M674 432h-400q-31 0 -51 -12q-61 -37 -94 -105q-8 -16 -8 -45v-49q0 -27 8 -43q35 -70 98 -108q20 -12 54 -13h190q18 0 39 11q123 65 164 141v223zM276 -10q-115 0 -198 133q-27 39 -27 100v43q0 111 113 197q47 37 112 37h398v155q0 29 -10 51t-42 57q-32 34 -54 47
t-52 13h-215q-23 0 -49 -14t-90 -100l-68 26q60 90 104 123t109 33h209q118 0 203 -133q25 -35 24 -103v-503l21 -152h-70l-16 115q-38 -49 -100 -87t-101 -38h-201zM553 1199q0 52 -33 86t-84 34t-83 -34q-31 -34 -31 -86t32 -86t82 -34q51 0 84 34t33 86zM614 1199
q0 -73 -52 -125t-126 -52t-126 51t-52 125t52 126t125 52t126 -52t53 -125z" />
    <glyph glyph-name="ae" unicode="&#xe6;" horiz-adv-x="1519" 
d="M655 229v199h-387q-27 0 -47 -12q-70 -41 -102 -107q-8 -16 -8 -47v-39q0 -55 42 -97t60 -53t53 -16h230q29 0 47 11q70 43 106 116q6 12 6 45zM1266 494v157q0 31 -11 53t-43 57q-32 36 -55 49q-22 13 -51 13h-223q-29 0 -51 -13t-56 -47q-33 -35 -42 -55t-9 -46v-168
h541zM291 823q-75 0 -144 -114l-65 24q39 68 95 113t120 45h201q66 0 112 -37q41 -37 80 -86q35 45 78 84t115 39h225q116 0 201 -133q27 -39 26 -105v-227h-610v-201q0 -25 6 -41q39 -76 107 -116q18 -10 47 -11h231q73 0 144 115l63 -25q-45 -77 -95 -117t-116 -40h-229
q-68 0 -112 36t-81 85q-33 -43 -80 -82t-112 -39h-232q-115 0 -198 131q-27 41 -27 100v43q0 109 113 195q47 37 112 37h389v166q0 27 -11 47t-43 55t-54 47t-51 12h-205z" />
    <glyph glyph-name="ccedilla" unicode="&#xe7;" horiz-adv-x="925" 
d="M518 -109l-151 -231h-80l162 260zM541 57q74 0 143 115l68 -25q-56 -85 -102 -121t-111 -36h-230q-67 0 -115 38q-113 91 -112 197v430q0 111 113 199q47 37 114 37h223q66 0 117 -41t99 -117l-70 -22q-66 112 -146 112h-225q-29 0 -47 -10q-66 -39 -102 -113
q-6 -12 -6 -45v-430q0 -33 10 -53t43 -54t55 -47t51 -14h230z" />
    <glyph glyph-name="egrave" unicode="&#xe8;" horiz-adv-x="948" 
d="M512 1069l-63 -27l-218 275h86zM694 471v182q0 35 -9 55t-42 55q-33 34 -55 47t-51 13h-228q-48 0 -92 -47q-45 -46 -55 -68t-10 -55v-182h542zM764 403h-612v-174q0 -33 6 -45q39 -76 106 -116q18 -10 45 -11h232q29 0 61 20t86 97l66 -27q-56 -85 -102 -121t-111 -36
h-230q-67 0 -115 38q-114 91 -114 197v430q0 107 115 199q47 37 114 37h226q67 0 115 -38q112 -89 112 -198v-252z" />
    <glyph glyph-name="eacute" unicode="&#xe9;" horiz-adv-x="948" 
d="M590 1317l-217 -275l-62 27l195 248h84zM694 471v182q0 35 -9 55t-42 55q-33 34 -55 47t-51 13h-228q-48 0 -92 -47q-45 -46 -55 -68t-10 -55v-182h542zM764 403h-612v-174q0 -33 6 -45q39 -76 106 -116q18 -10 45 -11h232q29 0 61 20t86 97l66 -27q-56 -85 -102 -121
t-111 -36h-230q-67 0 -115 38q-114 91 -114 197v430q0 107 115 199q47 37 114 37h226q67 0 115 -38q112 -89 112 -198v-252z" />
    <glyph glyph-name="ecircumflex" unicode="&#xea;" horiz-adv-x="948" 
d="M162 1042l217 277h78l217 -277h-86l-170 220l-172 -220h-84zM694 471v182q0 35 -9 55t-42 55q-33 34 -55 47t-51 13h-228q-48 0 -92 -47q-45 -46 -55 -68t-10 -55v-182h542zM764 403h-612v-174q0 -33 6 -45q39 -76 106 -116q18 -10 45 -11h232q29 0 61 20t86 97l66 -27
q-56 -85 -102 -121t-111 -36h-230q-67 0 -115 38q-114 91 -114 197v430q0 107 115 199q47 37 114 37h226q67 0 115 -38q112 -89 112 -198v-252z" />
    <glyph glyph-name="edieresis" unicode="&#xeb;" horiz-adv-x="948" 
d="M332 1133h-111v114h111v-114zM606 1133h-110v114h110v-114zM694 471v182q0 35 -9 55t-42 55q-33 34 -55 47t-51 13h-228q-48 0 -92 -47q-45 -46 -55 -68t-10 -55v-182h542zM764 403h-612v-174q0 -33 6 -45q39 -76 106 -116q18 -10 45 -11h232q29 0 61 20t86 97l66 -27
q-56 -85 -102 -121t-111 -36h-230q-67 0 -115 38q-114 91 -114 197v430q0 107 115 199q47 37 114 37h226q67 0 115 -38q112 -89 112 -198v-252z" />
    <glyph glyph-name="igrave" unicode="&#xec;" horiz-adv-x="421" 
d="M180 1069l-63 -27l-217 275h86zM160 0h-70v881h70v-881z" />
    <glyph glyph-name="iacute" unicode="&#xed;" horiz-adv-x="421" 
d="M360 1317l-217 -275l-61 27l194 248h84zM160 0h-70v881h70v-881z" />
    <glyph glyph-name="icircumflex" unicode="&#xee;" horiz-adv-x="421" 
d="M-133 1042l217 277h78l217 -277h-86l-170 220l-172 -220h-84zM160 0h-70v881h70v-881z" />
    <glyph glyph-name="idieresis" unicode="&#xef;" horiz-adv-x="421" 
d="M43 1133h-111v114h111v-114zM317 1133h-110v114h110v-114zM160 0h-70v881h70v-881z" />
    <glyph glyph-name="eth" unicode="&#xf0;" horiz-adv-x="956" 
d="M152 659v-432q0 -27 8 -43q39 -76 106 -116q18 -10 47 -11h219q27 0 46 11q68 41 106 116q8 16 8 43v418q0 20 -10 37q-39 74 -141 133q-20 10 -45 10h-183q-27 0 -47 -12q-68 -39 -106 -111q-8 -16 -8 -43zM762 842v-617q0 -55 -18 -83t-52 -67q-33 -38 -51 -50
q-45 -35 -106 -35h-224q-61 0 -106 35q-18 14 -52 51q-35 38 -53 66t-18 83v437q0 54 18 82t51 64q34 36 54 52q39 33 106 33h183q59 0 101 -32t97 -93v66q0 80 -74 120l-133 68l-118 -61l-33 53l84 43l-248 135l33 57l289 -155l188 98l33 -57l-150 -76l84 -43
q115 -61 115 -174z" />
    <glyph glyph-name="ntilde" unicode="&#xf1;" horiz-adv-x="968" 
d="M705 1120l-66 -20q-16 37 -48 56t-65 13l-141 -45q-61 -20 -119 11q-57 31 -82 100l66 20q37 -82 112 -67l146 45q61 20 117 -10q55 -31 80 -103zM369 891h168q69 0 115 -37q112 -90 112 -197v-657h-70v653q0 35 -11 55t-43 56q-32 35 -54 47t-51 12h-160q-23 0 -39 -8
q-143 -80 -170 -151v-664h-70v750l-14 131h70l14 -115q28 35 92 80t111 45z" />
    <glyph glyph-name="oacute" unicode="&#xf3;" 
d="M590 1317l-217 -275l-62 27l195 248h84zM682 225v432q0 31 -6 45q-35 68 -107 111q-18 10 -47 10h-223q-29 0 -47 -10q-70 -41 -105 -111q-6 -12 -6 -45v-432q0 -33 10 -53q9 -20 43 -54t56 -47t51 -14h223q29 0 47 11q68 41 105 112q6 14 6 45zM752 655v-430
q0 -67 -32 -113q-84 -122 -196 -122h-225q-68 0 -116 38q-113 89 -111 197v430q0 110 112 199q47 37 115 37h225q68 0 116 -38q112 -89 112 -198z" />
    <glyph glyph-name="ocircumflex" unicode="&#xf4;" 
d="M162 1042l217 277h78l217 -277h-86l-170 220l-172 -220h-84zM682 225v432q0 31 -6 45q-35 68 -107 111q-18 10 -47 10h-223q-29 0 -47 -10q-70 -41 -105 -111q-6 -12 -6 -45v-432q0 -33 10 -53q9 -20 43 -54t56 -47t51 -14h223q29 0 47 11q68 41 105 112q6 14 6 45z
M752 655v-430q0 -67 -32 -113q-84 -122 -196 -122h-225q-68 0 -116 38q-113 89 -111 197v430q0 110 112 199q47 37 115 37h225q68 0 116 -38q112 -89 112 -198z" />
    <glyph glyph-name="otilde" unicode="&#xf5;" 
d="M674 1120l-66 -20q-16 37 -48 56t-64 13l-142 -45q-61 -20 -118 11t-82 100l65 20q37 -82 113 -67l145 45q61 20 117 -10q55 -31 80 -103zM682 225v432q0 31 -6 45q-35 68 -107 111q-18 10 -47 10h-223q-29 0 -47 -10q-70 -41 -105 -111q-6 -12 -6 -45v-432q0 -33 10 -53
q9 -20 43 -54t56 -47t51 -14h223q29 0 47 11q68 41 105 112q6 14 6 45zM752 655v-430q0 -67 -32 -113q-84 -122 -196 -122h-225q-68 0 -116 38q-113 89 -111 197v430q0 110 112 199q47 37 115 37h225q68 0 116 -38q112 -89 112 -198z" />
    <glyph glyph-name="odieresis" unicode="&#xf6;" 
d="M332 1133h-111v114h111v-114zM606 1133h-110v114h110v-114zM682 225v432q0 31 -6 45q-35 68 -107 111q-18 10 -47 10h-223q-29 0 -47 -10q-70 -41 -105 -111q-6 -12 -6 -45v-432q0 -33 10 -53q9 -20 43 -54t56 -47t51 -14h223q29 0 47 11q68 41 105 112q6 14 6 45z
M752 655v-430q0 -67 -32 -113q-84 -122 -196 -122h-225q-68 0 -116 38q-113 89 -111 197v430q0 110 112 199q47 37 115 37h225q68 0 116 -38q112 -89 112 -198z" />
    <glyph glyph-name="divide" unicode="&#xf7;" horiz-adv-x="884" 
d="M707 340h-625v68h625v-68zM451 0h-125v133h125v-133zM451 612h-125v133h125v-133z" />
    <glyph glyph-name="ugrave" unicode="&#xf9;" horiz-adv-x="956" 
d="M512 1069l-63 -27l-218 275h86zM309 -10q-69 0 -115 37q-112 90 -112 196v658h70v-654q0 -35 11 -55t43 -56q32 -34 54 -46t51 -13h160q23 0 39 9q143 80 170 151v664h70v-750l14 -131h-70l-14 115q-28 -35 -92 -81t-111 -44h-168z" />
    <glyph glyph-name="uacute" unicode="&#xfa;" horiz-adv-x="956" 
d="M590 1317l-217 -275l-62 27l195 248h84zM309 -10q-69 0 -115 37q-112 90 -112 196v658h70v-654q0 -35 11 -55t43 -56q32 -34 54 -46t51 -13h160q23 0 39 9q143 80 170 151v664h70v-750l14 -131h-70l-14 115q-28 -35 -92 -81t-111 -44h-168z" />
    <glyph glyph-name="ucircumflex" unicode="&#xfb;" horiz-adv-x="956" 
d="M172 1042l217 277h78l217 -277h-86l-170 220l-172 -220h-84zM309 -10q-69 0 -115 37q-112 90 -112 196v658h70v-654q0 -35 11 -55t43 -56q32 -34 54 -46t51 -13h160q23 0 39 9q143 80 170 151v664h70v-750l14 -131h-70l-14 115q-28 -35 -92 -81t-111 -44h-168z" />
    <glyph glyph-name="udieresis" unicode="&#xfc;" horiz-adv-x="956" 
d="M328 1133h-111v114h111v-114zM602 1133h-110v114h110v-114zM309 -10q-69 0 -115 37q-112 90 -112 196v658h70v-654q0 -35 11 -55t43 -56q32 -34 54 -46t51 -13h160q23 0 39 9q143 80 170 151v664h70v-750l14 -131h-70l-14 115q-28 -35 -92 -81t-111 -44h-168z" />
    <glyph glyph-name="yacute" unicode="&#xfd;" horiz-adv-x="819" 
d="M530 1317l-217 -275l-61 27l194 248h84zM692 881l-379 -1217h-77l112 336h-53l-277 881h76l248 -809h29l247 809h74z" />
    <glyph glyph-name="ydieresis" unicode="&#xff;" horiz-adv-x="819" 
d="M272 1133h-110v114h110v-114zM547 1133h-111v114h111v-114zM692 881l-379 -1217h-77l112 336h-53l-277 881h76l248 -809h29l247 809h74z" />
    <glyph glyph-name="Amacron" unicode="&#x100;" horiz-adv-x="1048" 
d="M623 1438h-322v67h322v-67zM739 362l-247 785h-58l-246 -785h551zM932 0h-78l-94 291h-592l-96 -291h-76l393 1217h150z" />
    <glyph glyph-name="amacron" unicode="&#x101;" horiz-adv-x="952" 
d="M674 432h-400q-31 0 -51 -12q-61 -37 -94 -105q-8 -16 -8 -45v-49q0 -27 8 -43q35 -70 98 -108q20 -12 54 -13h190q18 0 39 11q123 65 164 141v223zM276 -10q-115 0 -198 133q-27 39 -27 100v43q0 111 113 197q47 37 112 37h398v155q0 29 -10 51t-42 57q-32 34 -54 47
t-52 13h-215q-23 0 -49 -14t-90 -100l-68 26q60 90 104 123t109 33h209q118 0 203 -133q25 -35 24 -103v-503l21 -152h-70l-16 115q-38 -49 -100 -87t-101 -38h-201zM584 1151h-322v68h322v-68z" />
    <glyph glyph-name="Abreve" unicode="&#x102;" horiz-adv-x="1048" 
d="M586 1556h65q0 -80 -55 -134t-133 -54t-133 54t-56 134l70 -2q0 -57 33 -91q33 -33 86 -33t88 34t35 92zM739 362l-247 785h-58l-246 -785h551zM932 0h-78l-94 291h-592l-96 -291h-76l393 1217h150z" />
    <glyph glyph-name="abreve" unicode="&#x103;" horiz-adv-x="952" 
d="M545 1262h65q0 -80 -55 -134t-133 -55q-78 0 -133 54t-56 135l70 -2q0 -58 33 -92t86 -34t88 36q35 35 35 92zM674 432h-400q-31 0 -51 -12q-61 -37 -94 -105q-8 -16 -8 -45v-49q0 -27 8 -43q35 -70 98 -108q20 -12 54 -13h190q18 0 39 11q123 65 164 141v223zM276 -10
q-115 0 -198 133q-27 39 -27 100v43q0 111 113 197q47 37 112 37h398v155q0 29 -10 51t-42 57q-32 34 -54 47t-52 13h-215q-23 0 -49 -14t-90 -100l-68 26q60 90 104 123t109 33h209q118 0 203 -133q25 -35 24 -103v-503l21 -152h-70l-16 115q-38 -49 -100 -87t-101 -38
h-201z" />
    <glyph glyph-name="Aogonek" unicode="&#x104;" horiz-adv-x="1046" 
d="M915 -340l-151 231l70 29l161 -260h-80zM739 362l-247 785h-58l-246 -785h551zM932 0h-78l-94 291h-592l-96 -291h-76l393 1217h150z" />
    <glyph glyph-name="aogonek" unicode="&#x105;" horiz-adv-x="952" 
d="M760 -340l-152 231l70 29l162 -260h-80zM674 432h-400q-31 0 -51 -12q-61 -37 -94 -105q-8 -16 -8 -45v-49q0 -27 8 -43q35 -70 98 -108q20 -12 54 -13h190q18 0 39 11q123 65 164 141v223zM276 -10q-115 0 -198 133q-27 39 -27 100v43q0 111 113 197q47 37 112 37h398
v155q0 29 -10 51t-42 57q-32 34 -54 47t-52 13h-215q-23 0 -49 -14t-90 -100l-68 26q60 90 104 123t109 33h209q118 0 203 -133q25 -35 24 -103v-503l21 -152h-70l-16 115q-38 -49 -100 -87t-101 -38h-201z" />
    <glyph glyph-name="Cacute" unicode="&#x106;" horiz-adv-x="1058" 
d="M672 1616l-217 -275l-62 27l195 248h84zM348 -12q-77 0 -162 93q-44 48 -64 78t-20 85v727q0 53 20 84t65 80q46 49 80 71t79 23h291q41 0 90 -31q82 -55 154 -180l-72 -23q-25 45 -78 103t-100 59h-281q-41 0 -92 -53q-50 -54 -66 -80t-16 -57v-723q0 -44 58 -102
t79 -70q22 -12 41 -13h279q45 -1 96 59t76 101l76 -20q-72 -125 -154 -181q-49 -31 -90 -30h-289z" />
    <glyph glyph-name="cacute" unicode="&#x107;" 
d="M596 1317l-217 -275l-62 27l195 248h84zM541 57q74 0 143 115l68 -25q-56 -85 -102 -121t-111 -36h-230q-67 0 -115 38q-113 91 -112 197v430q0 111 113 199q47 37 114 37h223q66 0 117 -41t99 -117l-70 -22q-66 112 -146 112h-225q-29 0 -47 -10q-66 -39 -102 -113
q-6 -12 -6 -45v-430q0 -33 10 -53t43 -54t55 -47t51 -14h230z" />
    <glyph glyph-name="Ccircumflex" unicode="&#x108;" horiz-adv-x="1058" 
d="M246 1335l217 277h78l217 -277h-86l-170 219l-172 -219h-84zM348 -12q-77 0 -162 93q-44 48 -64 78t-20 85v727q0 53 20 84t65 80q46 49 80 71t79 23h291q41 0 90 -31q82 -55 154 -180l-72 -23q-25 45 -78 103t-100 59h-281q-41 0 -92 -53q-50 -54 -66 -80t-16 -57v-723
q0 -44 58 -102t79 -70q22 -12 41 -13h279q45 -1 96 59t76 101l76 -20q-72 -125 -154 -181q-49 -31 -90 -30h-289z" />
    <glyph glyph-name="ccircumflex" unicode="&#x109;" 
d="M162 1042l217 277h78l217 -277h-86l-170 220l-172 -220h-84zM541 57q74 0 143 115l68 -25q-56 -85 -102 -121t-111 -36h-230q-67 0 -115 38q-113 91 -112 197v430q0 111 113 199q47 37 114 37h223q66 0 117 -41t99 -117l-70 -22q-66 112 -146 112h-225q-29 0 -47 -10
q-66 -39 -102 -113q-6 -12 -6 -45v-430q0 -33 10 -53t43 -54t55 -47t51 -14h230z" />
    <glyph glyph-name="Cdotaccent" unicode="&#x10a;" horiz-adv-x="1058" 
d="M543 1413h-101v107h101v-107zM348 -12q-77 0 -162 93q-44 48 -64 78t-20 85v727q0 53 20 84t65 80q46 49 80 71t79 23h291q41 0 90 -31q82 -55 154 -180l-72 -23q-25 45 -78 103t-100 59h-281q-41 0 -92 -53q-50 -54 -66 -80t-16 -57v-723q0 -44 58 -102t79 -70
q22 -12 41 -13h279q45 -1 96 59t76 101l76 -20q-72 -125 -154 -181q-49 -31 -90 -30h-289z" />
    <glyph glyph-name="cdotaccent" unicode="&#x10b;" 
d="M471 1130h-100v107h100v-107zM541 57q74 0 143 115l68 -25q-56 -85 -102 -121t-111 -36h-230q-67 0 -115 38q-113 91 -112 197v430q0 111 113 199q47 37 114 37h223q66 0 117 -41t99 -117l-70 -22q-66 112 -146 112h-225q-29 0 -47 -10q-66 -39 -102 -113q-6 -12 -6 -45
v-430q0 -33 10 -53t43 -54t55 -47t51 -14h230z" />
    <glyph glyph-name="Ccaron" unicode="&#x10c;" horiz-adv-x="1058" 
d="M762 1612l-217 -277h-78l-217 277h86l170 -219l172 219h84zM348 -12q-77 0 -162 93q-44 48 -64 78t-20 85v727q0 53 20 84t65 80q46 49 80 71t79 23h291q41 0 90 -31q82 -55 154 -180l-72 -23q-25 45 -78 103t-100 59h-281q-41 0 -92 -53q-50 -54 -66 -80t-16 -57v-723
q0 -44 58 -102t79 -70q22 -12 41 -13h279q45 -1 96 59t76 101l76 -20q-72 -125 -154 -181q-49 -31 -90 -30h-289z" />
    <glyph glyph-name="ccaron" unicode="&#x10d;" 
d="M686 1319l-217 -277h-78l-217 277h86l170 -219l172 219h84zM541 57q74 0 143 115l68 -25q-56 -85 -102 -121t-111 -36h-230q-67 0 -115 38q-113 91 -112 197v430q0 111 113 199q47 37 114 37h223q66 0 117 -41t99 -117l-70 -22q-66 112 -146 112h-225q-29 0 -47 -10
q-66 -39 -102 -113q-6 -12 -6 -45v-430q0 -33 10 -53t43 -54t55 -47t51 -14h230z" />
    <glyph glyph-name="Dcaron" unicode="&#x10e;" horiz-adv-x="1097" 
d="M723 1614l-217 -277h-78l-217 277h86l170 -219l172 219h84zM805 256v700q-1 46 -55 106t-75 72t-42 11h-457v-1073h453q44 0 110 70q66 71 66 114zM879 256q1 -49 -19 -82t-65 -81q-87 -93 -160 -93h-533v1217h533q47 1 81 -21t79 -72t65 -84q20 -32 19 -82v-702z" />
    <glyph glyph-name="dcaron" unicode="&#x10f;" horiz-adv-x="1032" 
d="M1104 1262l-111 -310h-82l123 338zM152 653v-426q0 -31 8 -47q39 -74 104 -110q23 -12 47 -13h172q45 1 118 61q72 60 91 101v445q-27 72 -170 151q-16 8 -39 8h-174q-29 0 -47 -10q-61 -35 -102 -113q-8 -16 -8 -47zM309 -10q-115 0 -200 133q-27 39 -27 100v436
q0 59 27 99q51 70 92 102t108 31h180q49 0 117 -47t86 -82v455h70v-1080l16 -137h-69l-15 117q-116 -129 -205 -127h-180z" />
    <glyph glyph-name="Dcroat" unicode="&#x110;" horiz-adv-x="1138" 
d="M537 575h-320v-503h453q24 0 46 12t76 69t54 103v700q0 46 -54 106t-76 72q-21 12 -40 11h-459v-502h320v-68zM920 256q0 -49 -20 -81t-64 -81q-86 -94 -160 -94h-533v575h-163v68h163v574h533q45 1 80 -21t80 -72q44 -50 64 -84q20 -32 20 -82v-702z" />
    <glyph glyph-name="dcroat" unicode="&#x111;" horiz-adv-x="968" 
d="M152 653v-426q0 -31 8 -47q39 -74 104 -110q23 -12 47 -13h172q39 -1 115 59q75 60 94 101v445q-29 74 -170 153q-16 8 -39 8h-174q-29 0 -47 -10q-61 -35 -102 -113q-8 -16 -8 -47zM309 -10q-115 0 -200 133q-27 39 -27 100v436q0 59 27 99q51 70 92 102t108 31h180
q47 0 91 -31q94 -66 112 -98v266h-301v68h301v121h70v-121h117v-68h-117v-899l10 -129h-70l-12 119q-115 -129 -201 -129h-180z" />
    <glyph glyph-name="Emacron" unicode="&#x112;" horiz-adv-x="1005" 
d="M608 1438h-321v67h321v-67zM774 0h-672v1217h672v-72h-598v-496h559v-71h-559v-506h598v-72z" />
    <glyph glyph-name="emacron" unicode="&#x113;" horiz-adv-x="948" 
d="M694 471v182q0 35 -9 55t-42 55q-33 34 -55 47t-51 13h-228q-48 0 -92 -47q-45 -46 -55 -68t-10 -55v-182h542zM764 403h-612v-174q0 -33 6 -45q39 -76 106 -116q18 -10 45 -11h232q29 0 61 20t86 97l66 -27q-56 -85 -102 -121t-111 -36h-230q-67 0 -115 38
q-114 91 -114 197v430q0 107 115 199q47 37 114 37h226q67 0 115 -38q112 -89 112 -198v-252zM586 1151h-322v68h322v-68z" />
    <glyph glyph-name="Ebreve" unicode="&#x114;" horiz-adv-x="1005" 
d="M557 1556h66q1 -80 -55 -134t-134 -54t-133 54t-55 134l69 -2q0 -57 33 -91q33 -33 86 -33t88 34t35 92zM774 0h-672v1217h672v-72h-598v-496h559v-71h-559v-506h598v-72z" />
    <glyph glyph-name="ebreve" unicode="&#x115;" horiz-adv-x="948" 
d="M545 1262h65q0 -80 -55 -134t-133 -55q-78 0 -133 54t-56 135l70 -2q0 -58 33 -92t86 -34t88 36q35 35 35 92zM694 471v182q0 35 -9 55t-42 55q-33 34 -55 47t-51 13h-228q-48 0 -92 -47q-45 -46 -55 -68t-10 -55v-182h542zM764 403h-612v-174q0 -33 6 -45
q39 -76 106 -116q18 -10 45 -11h232q29 0 61 20t86 97l66 -27q-56 -85 -102 -121t-111 -36h-230q-67 0 -115 38q-114 91 -114 197v430q0 107 115 199q47 37 114 37h226q67 0 115 -38q112 -89 112 -198v-252z" />
    <glyph glyph-name="Edotaccent" unicode="&#x116;" horiz-adv-x="1005" 
d="M500 1413h-101v107h101v-107zM774 0h-672v1217h672v-72h-598v-496h559v-71h-559v-506h598v-72z" />
    <glyph glyph-name="edotaccent" unicode="&#x117;" horiz-adv-x="948" 
d="M471 1130h-100v107h100v-107zM694 471v182q0 35 -9 55t-42 55q-33 34 -55 47t-51 13h-228q-48 0 -92 -47q-45 -46 -55 -68t-10 -55v-182h542zM764 403h-612v-174q0 -33 6 -45q39 -76 106 -116q18 -10 45 -11h232q29 0 61 20t86 97l66 -27q-56 -85 -102 -121t-111 -36
h-230q-67 0 -115 38q-114 91 -114 197v430q0 107 115 199q47 37 114 37h226q67 0 115 -38q112 -89 112 -198v-252z" />
    <glyph glyph-name="Eogonek" unicode="&#x118;" horiz-adv-x="1005" 
d="M657 -340l-151 231l69 29l162 -260h-80zM774 0h-672v1217h672v-72h-598v-496h559v-71h-559v-506h598v-72z" />
    <glyph glyph-name="eogonek" unicode="&#x119;" horiz-adv-x="948" 
d="M453 -340l-152 231l70 29l161 -260h-79zM694 471v182q0 35 -9 55t-42 55q-33 34 -55 47t-51 13h-228q-48 0 -92 -47q-45 -46 -55 -68t-10 -55v-182h542zM764 403h-612v-174q0 -33 6 -45q39 -76 106 -116q18 -10 45 -11h232q29 0 61 20t86 97l66 -27q-56 -85 -102 -121
t-111 -36h-230q-67 0 -115 38q-114 91 -114 197v430q0 107 115 199q47 37 114 37h226q67 0 115 -38q112 -89 112 -198v-252z" />
    <glyph glyph-name="Ecaron" unicode="&#x11a;" horiz-adv-x="1005" 
d="M715 1614l-217 -277h-78l-217 277h86l170 -219l172 219h84zM774 0h-672v1217h672v-72h-598v-496h559v-71h-559v-506h598v-72z" />
    <glyph glyph-name="ecaron" unicode="&#x11b;" horiz-adv-x="948" 
d="M686 1319l-217 -277h-78l-217 277h86l170 -219l172 219h84zM694 471v182q0 35 -9 55t-42 55q-33 34 -55 47t-51 13h-228q-48 0 -92 -47q-45 -46 -55 -68t-10 -55v-182h542zM764 403h-612v-174q0 -33 6 -45q39 -76 106 -116q18 -10 45 -11h232q29 0 61 20t86 97l66 -27
q-56 -85 -102 -121t-111 -36h-230q-67 0 -115 38q-114 91 -114 197v430q0 107 115 199q47 37 114 37h226q67 0 115 -38q112 -89 112 -198v-252z" />
    <glyph glyph-name="Gcircumflex" unicode="&#x11c;" horiz-adv-x="1169" 
d="M276 1335l218 277h77l217 -277h-86l-170 219l-172 -219h-84zM348 -6q-75 0 -162 93q-44 48 -64 78t-20 85v719q0 55 18 85t67 79q48 49 83 73t78 23h334q119 0 244 -211l-74 -23q-23 43 -65 89t-65 60t-46 13h-320q-38 0 -96 -56q-56 -55 -70 -79t-14 -55v-715
q0 -26 13 -50t71 -80t98 -56h316q41 0 97 53q57 53 71 79t14 50v330h-299v71h373l2 -459q10 -98 22 -190h-67l-15 123q-107 -129 -192 -129h-332z" />
    <glyph glyph-name="gcircumflex" unicode="&#x11d;" horiz-adv-x="983" 
d="M176 1042l217 277h78l217 -277h-86l-170 220l-172 -220h-84zM498 823h-189q-29 0 -47 -10q-68 -41 -104 -113q-6 -12 -6 -47v-428q0 -35 6 -47q35 -70 104 -110q18 -10 47 -11h191q26 -1 50 13t75 56t80 89v449q-28 44 -81 89q-52 44 -76 57t-50 13zM309 -10
q-71 0 -117 37q-112 89 -110 194v436q0 66 30 110t80 84q52 40 117 40h195q45 0 94 -35q88 -72 104 -94l17 119h69l-14 -131v-863q0 -67 -30 -111t-79 -83q-50 -39 -118 -39h-230q-67 0 -113 37t-100 121l68 24q57 -82 94 -102q20 -12 45 -13h240q27 0 47 13q66 39 100 108
q6 14 7 47v232q-114 -131 -199 -131h-197z" />
    <glyph glyph-name="Gbreve" unicode="&#x11e;" horiz-adv-x="1169" 
d="M627 1556h65q0 -80 -55 -134t-133 -54t-133 54t-56 134l70 -2q0 -57 33 -91q33 -33 86 -33t88 34t35 92zM348 -6q-75 0 -162 93q-44 48 -64 78t-20 85v719q0 55 18 85t67 79q48 49 83 73t78 23h334q119 0 244 -211l-74 -23q-23 43 -65 89t-65 60t-46 13h-320
q-38 0 -96 -56q-56 -55 -70 -79t-14 -55v-715q0 -26 13 -50t71 -80t98 -56h316q41 0 97 53q57 53 71 79t14 50v330h-299v71h373l2 -459q10 -98 22 -190h-67l-15 123q-107 -129 -192 -129h-332z" />
    <glyph glyph-name="gbreve" unicode="&#x11f;" horiz-adv-x="983" 
d="M553 1262h65q0 -80 -55 -134t-133 -55q-78 0 -133 54t-55 135l69 -2q0 -58 33 -92t86 -34t88 36q35 35 35 92zM498 823h-189q-29 0 -47 -10q-68 -41 -104 -113q-6 -12 -6 -47v-428q0 -35 6 -47q35 -70 104 -110q18 -10 47 -11h191q26 -1 50 13t75 56t80 89v449
q-28 44 -81 89q-52 44 -76 57t-50 13zM309 -10q-71 0 -117 37q-112 89 -110 194v436q0 66 30 110t80 84q52 40 117 40h195q45 0 94 -35q88 -72 104 -94l17 119h69l-14 -131v-863q0 -67 -30 -111t-79 -83q-50 -39 -118 -39h-230q-67 0 -113 37t-100 121l68 24q57 -82 94 -102
q20 -12 45 -13h240q27 0 47 13q66 39 100 108q6 14 7 47v232q-114 -131 -199 -131h-197z" />
    <glyph glyph-name="Gdotaccent" unicode="&#x120;" horiz-adv-x="1169" 
d="M590 1413h-101v107h101v-107zM348 -6q-75 0 -162 93q-44 48 -64 78t-20 85v719q0 55 18 85t67 79q48 49 83 73t78 23h334q119 0 244 -211l-74 -23q-23 43 -65 89t-65 60t-46 13h-320q-38 0 -96 -56q-56 -55 -70 -79t-14 -55v-715q0 -26 13 -50t71 -80t98 -56h316
q41 0 97 53q57 53 71 79t14 50v330h-299v71h373l2 -459q10 -98 22 -190h-67l-15 123q-107 -129 -192 -129h-332z" />
    <glyph glyph-name="gdotaccent" unicode="&#x121;" horiz-adv-x="983" 
d="M494 1130h-101v107h101v-107zM498 823h-189q-29 0 -47 -10q-68 -41 -104 -113q-6 -12 -6 -47v-428q0 -35 6 -47q35 -70 104 -110q18 -10 47 -11h191q26 -1 50 13t75 56t80 89v449q-28 44 -81 89q-52 44 -76 57t-50 13zM309 -10q-71 0 -117 37q-112 89 -110 194v436
q0 66 30 110t80 84q52 40 117 40h195q45 0 94 -35q88 -72 104 -94l17 119h69l-14 -131v-863q0 -67 -30 -111t-79 -83q-50 -39 -118 -39h-230q-67 0 -113 37t-100 121l68 24q57 -82 94 -102q20 -12 45 -13h240q27 0 47 13q66 39 100 108q6 14 7 47v232q-114 -131 -199 -131
h-197z" />
    <glyph glyph-name="Gcommaaccent" unicode="&#x122;" horiz-adv-x="1169" 
d="M659 -109l-151 -231h-80l162 260zM348 -6q-75 0 -162 93q-44 48 -64 78t-20 85v719q0 55 18 85t67 79q48 49 83 73t78 23h334q119 0 244 -211l-74 -23q-23 43 -65 89t-65 60t-46 13h-320q-38 0 -96 -56q-56 -55 -70 -79t-14 -55v-715q0 -26 13 -50t71 -80t98 -56h316
q41 0 97 53q57 53 71 79t14 50v330h-299v71h373l2 -459q10 -98 22 -190h-67l-15 123q-107 -129 -192 -129h-332z" />
    <glyph glyph-name="gcommaaccent" unicode="&#x123;" horiz-adv-x="983" 
d="M625 1317l-217 -275l-62 27l195 248h84zM498 823h-189q-29 0 -47 -10q-68 -41 -104 -113q-6 -12 -6 -47v-428q0 -35 6 -47q35 -70 104 -110q18 -10 47 -11h191q26 -1 50 13t75 56t80 89v449q-28 44 -81 89q-52 44 -76 57t-50 13zM309 -10q-71 0 -117 37q-112 89 -110 194
v436q0 66 30 110t80 84q52 40 117 40h195q45 0 94 -35q88 -72 104 -94l17 119h69l-14 -131v-863q0 -67 -30 -111t-79 -83q-50 -39 -118 -39h-230q-67 0 -113 37t-100 121l68 24q57 -82 94 -102q20 -12 45 -13h240q27 0 47 13q66 39 100 108q6 14 7 47v232
q-114 -131 -199 -131h-197z" />
    <glyph glyph-name="Hcircumflex" unicode="&#x124;" horiz-adv-x="1116" 
d="M248 1337l217 277h78l217 -277h-86l-170 219l-172 -219h-84zM887 0h-74v578h-637v-578h-74v1217h74v-568h637v568h74v-1217z" />
    <glyph glyph-name="hcircumflex" unicode="&#x125;" horiz-adv-x="960" 
d="M182 1337l217 277h78l217 -277h-86l-170 219l-172 -219h-84zM526 823h-159q-23 0 -39 -8q-143 -80 -170 -151v-664h-70v1217h70v-455q18 33 86 81t116 48h168q68 0 115 -37q113 -89 113 -197v-657h-70v653q0 35 -11 55t-43 56q-32 35 -54 47t-52 12z" />
    <glyph glyph-name="Hbar" unicode="&#x126;" horiz-adv-x="1116" 
d="M176 643h637v387h-637v-387zM887 0h-74v571h-637v-571h-74v1030h-129v68h129v119h74v-119h637v119h74v-119h125v-68h-125v-1030z" />
    <glyph glyph-name="hbar" unicode="&#x127;" horiz-adv-x="960" 
d="M461 1030h-303v-266q14 27 110 98q43 31 92 31h166q68 0 114 -34t87 -99q27 -35 27 -101v-659h-70v655q0 35 -4 47q-16 29 -48 64t-54 47t-54 12h-157q-25 0 -41 -8q-143 -80 -168 -151v-666h-70v1030h-115v68h115v121h70v-121h303v-68z" />
    <glyph glyph-name="Itilde" unicode="&#x128;" horiz-adv-x="405" 
d="M399 1386l-65 -20q-16 37 -48 56t-65 14l-141 -45q-61 -20 -119 10q-57 31 -82 100l66 21q37 -82 112 -68l146 45q61 19 116 -11t80 -102zM176 0h-74v1217h74v-1217z" />
    <glyph glyph-name="itilde" unicode="&#x129;" horiz-adv-x="366" 
d="M385 1120l-66 -20q-16 37 -48 56t-64 13l-141 -45q-61 -20 -119 11q-57 31 -82 100l65 20q37 -82 113 -67l145 45q61 20 117 -10q55 -31 80 -103zM160 0h-70v881h70v-881z" />
    <glyph glyph-name="Imacron" unicode="&#x12a;" horiz-adv-x="405" 
d="M299 1438h-322v67h322v-67zM176 0h-74v1217h74v-1217z" />
    <glyph glyph-name="imacron" unicode="&#x12b;" horiz-adv-x="366" 
d="M289 1151h-322v68h322v-68zM160 0h-70v881h70v-881z" />
    <glyph glyph-name="Ibreve" unicode="&#x12c;" horiz-adv-x="405" 
d="M260 1556h66q0 -80 -56 -134t-133 -54q-78 0 -133 54t-55 134l69 -2q0 -57 33 -91q33 -33 86 -33t88 34t35 92zM176 0h-74v1217h74v-1217z" />
    <glyph glyph-name="ibreve" unicode="&#x12d;" horiz-adv-x="366" 
d="M252 1262h65q0 -80 -55 -134t-133 -55q-78 0 -133 54t-55 135l69 -2q0 -58 33 -92t86 -34t88 36q35 35 35 92zM160 0h-70v881h70v-881z" />
    <glyph glyph-name="Iogonek" unicode="&#x12e;" horiz-adv-x="405" 
d="M217 -340l-151 231l69 29l162 -260h-80zM176 0h-74v1217h74v-1217z" />
    <glyph glyph-name="iogonek" unicode="&#x12f;" horiz-adv-x="391" 
d="M207 -340l-152 231l70 29l162 -260h-80zM190 1133h-110v114h110v-114zM170 0h-70v881h70v-881z" />
    <glyph glyph-name="Idotaccent" unicode="&#x130;" horiz-adv-x="405" 
d="M188 1413h-100v107h100v-107zM176 0h-74v1217h74v-1217z" />
    <glyph glyph-name="dotlessi" unicode="&#x131;" horiz-adv-x="366" 
d="M160 0h-70v881h70v-881z" />
    <glyph glyph-name="IJ" unicode="&#x132;" horiz-adv-x="1273" 
d="M1065 248q-1 -53 -21 -85t-65 -80t-81 -71t-79 -22h-157q-43 0 -101 36t-143 175l71 20q80 -127 138 -151q16 -8 41 -9h147q40 -1 93 55t73 93q10 27 10 37v971h74v-969zM176 0h-74v1217h74v-1217z" />
    <glyph glyph-name="ij" unicode="&#x133;" horiz-adv-x="794" 
d="M594 1133h-111v114h111v-114zM573 -117q-1 -67 -29 -111q-77 -118 -194 -118h-108v67h106q37 0 49 9q59 33 101 110q6 12 6 47v994h69v-998zM190 1133h-110v114h110v-114zM170 0h-70v881h70v-881z" />
    <glyph glyph-name="Jcircumflex" unicode="&#x134;" horiz-adv-x="876" 
d="M377 1337l217 277h78l217 -277h-86l-170 219l-172 -219h-84zM668 248q0 -53 -20 -85t-66 -80q-45 -48 -81 -71t-79 -22h-158q-42 0 -100 36t-144 175l72 20q80 -127 137 -151q16 -8 41 -9h148q41 -1 93 55t73 93q10 27 10 37v971h74v-969z" />
    <glyph glyph-name="jcircumflex" unicode="&#x135;" horiz-adv-x="409" 
d="M-98 1042l217 277h78l217 -277h-86l-170 220l-172 -220h-84zM188 -117q0 -67 -28 -111q-77 -118 -195 -118h-108v67h106q37 0 49 9q59 33 101 110q6 12 6 47v994h69v-998z" />
    <glyph glyph-name="Kcommaaccent" unicode="&#x136;" horiz-adv-x="997" 
d="M352 -109l-151 -231h-80l162 260zM176 573v-573h-74v1217h74v-576h51l527 576h94l-557 -609l563 -608h-98l-529 573h-51z" />
    <glyph glyph-name="kcommaaccent" unicode="&#x137;" horiz-adv-x="802" 
d="M461 -109l-152 -231h-80l162 260zM154 432v-432h-70v1217h70v-719h47l393 383h92l-422 -414l459 -467h-98l-422 432h-49z" />
    <glyph glyph-name="kgreenlandic" unicode="&#x138;" horiz-adv-x="802" 
d="M158 434v-434h-70v883h70v-383h47l352 383h125v-64h-92l-322 -350l418 -469h-98l-381 434h-49z" />
    <glyph glyph-name="lacute" unicode="&#x13a;" horiz-adv-x="376" 
d="M373 1612l-217 -275l-62 27l195 248h84zM90 121v1096h70v-1076l16 -141h-70q-16 80 -16 121z" />
    <glyph glyph-name="Lcommaaccent" unicode="&#x13b;" horiz-adv-x="911" 
d="M461 -109l-152 -231h-80l162 260zM762 0h-660v1217h74v-1145h586v-72z" />
    <glyph glyph-name="lcommaaccent" unicode="&#x13c;" horiz-adv-x="376" 
d="M276 -109l-151 -231h-80l162 260zM90 121v1096h70v-1076l16 -141h-70q-16 80 -16 121z" />
    <glyph glyph-name="Lcaron" unicode="&#x13d;" horiz-adv-x="911" 
d="M535 1268l-111 -310h-82l123 338zM762 0h-660v1217h74v-1145h586v-72z" />
    <glyph glyph-name="lcaron" unicode="&#x13e;" horiz-adv-x="473" 
d="M467 1262l-111 -310h-82l123 338zM90 121v1096h70v-1076l16 -141h-70q-16 80 -16 121z" />
    <glyph glyph-name="Ldot" unicode="&#x13f;" horiz-adv-x="911" 
d="M655 557h-100v107h100v-107zM762 0h-660v1217h74v-1145h586v-72z" />
    <glyph glyph-name="ldot" unicode="&#x140;" horiz-adv-x="460" 
d="M399 557h-100v107h100v-107zM90 121v1096h70v-1076l16 -141h-70q-16 80 -16 121z" />
    <glyph glyph-name="Lslash" unicode="&#x141;" horiz-adv-x="954" 
d="M217 72h586v-72h-660v514l-157 -82l-33 60l190 100v625h74v-586l174 94l33 -61l-207 -111v-481z" />
    <glyph glyph-name="lslash" unicode="&#x142;" horiz-adv-x="493" 
d="M143 1217h70v-586l176 94l33 -61l-209 -111v-430l12 -123h-69q-12 92 -13 98v418l-159 -84l-33 60l192 102v623z" />
    <glyph glyph-name="Nacute" unicode="&#x143;" horiz-adv-x="1105" 
d="M698 1612l-217 -275l-61 27l194 248h84zM877 0h-142l-538 1149h-21v-1149h-74v1217h142l540 -1147h19v1147h74v-1217z" />
    <glyph glyph-name="nacute" unicode="&#x144;" horiz-adv-x="968" 
d="M604 1317l-217 -275l-61 27l194 248h84zM369 891h168q69 0 115 -37q112 -90 112 -197v-657h-70v653q0 35 -11 55t-43 56q-32 35 -54 47t-51 12h-160q-23 0 -39 -8q-143 -80 -170 -151v-664h-70v750l-14 131h70l14 -115q28 35 92 80t111 45z" />
    <glyph glyph-name="Ncommaaccent" unicode="&#x145;" horiz-adv-x="1105" 
d="M608 -109l-151 -231h-80l162 260zM877 0h-142l-538 1149h-21v-1149h-74v1217h142l540 -1147h19v1147h74v-1217z" />
    <glyph glyph-name="ncommaaccent" unicode="&#x146;" horiz-adv-x="968" 
d="M551 -109l-152 -231h-80l162 260zM369 891h168q69 0 115 -37q112 -90 112 -197v-657h-70v653q0 35 -11 55t-43 56q-32 35 -54 47t-51 12h-160q-23 0 -39 -8q-143 -80 -170 -151v-664h-70v750l-14 131h70l14 -115q28 35 92 80t111 45z" />
    <glyph glyph-name="Ncaron" unicode="&#x147;" horiz-adv-x="1105" 
d="M764 1614l-217 -277h-78l-217 277h86l170 -219l172 219h84zM877 0h-142l-538 1149h-21v-1149h-74v1217h142l540 -1147h19v1147h74v-1217z" />
    <glyph glyph-name="ncaron" unicode="&#x148;" horiz-adv-x="968" 
d="M698 1319l-217 -277h-78l-217 277h86l170 -219l172 219h84zM369 891h168q69 0 115 -37q112 -90 112 -197v-657h-70v653q0 35 -11 55t-43 56q-32 35 -54 47t-51 12h-160q-23 0 -39 -8q-143 -80 -170 -151v-664h-70v750l-14 131h70l14 -115q28 35 92 80t111 45z" />
    <glyph glyph-name="napostrophe" unicode="&#x149;" horiz-adv-x="968" 
d="M61 1262l-110 -310h-82l123 338zM369 891h168q69 0 115 -37q112 -90 112 -197v-657h-70v653q0 35 -11 55t-43 56q-32 35 -54 47t-51 12h-160q-23 0 -39 -8q-143 -80 -170 -151v-664h-70v750l-14 131h70l14 -115q28 35 92 80t111 45z" />
    <glyph glyph-name="Eng" unicode="&#x14a;" horiz-adv-x="1105" 
d="M877 -117q0 -67 -29 -111q-78 -118 -195 -118h-108v67h106q37 0 49 9q59 33 101 110q6 12 6 47v113h-72l-538 1149h-21v-1149h-74v1217h142l540 -1147h19v1147h74v-1334z" />
    <glyph glyph-name="eng" unicode="&#x14b;" horiz-adv-x="968" 
d="M764 -117q0 -67 -29 -111q-78 -118 -194 -118h-109v67h107q37 0 49 9q59 33 100 110q6 12 6 47v766q0 35 -11 55t-43 56q-32 35 -54 47t-51 12h-160q-23 0 -39 -8q-143 -80 -170 -151v-664h-70v750l-12 131h70l14 -115q30 37 92 81t109 44h168q69 0 115 -37
q112 -90 112 -197v-774z" />
    <glyph glyph-name="Omacron" unicode="&#x14c;" horiz-adv-x="1142" 
d="M686 1446h-321v67h321v-67zM864 246v725q0 27 -14 53t-68 79q-54 54 -96 54h-330q-39 0 -93 -54q-53 -55 -69 -81t-16 -51v-727q0 -24 14 -48t60 -69t66 -56t38 -12h330q42 1 95 55t68 80t15 52zM938 246q0 -57 -20 -87t-64 -78q-45 -48 -82 -71t-80 -22h-344
q-41 0 -78 23t-84 71t-64 77q-17 28 -18 87v723q0 53 18 83t65 80q46 50 81 74t80 23h344q47 1 82 -23t80 -73q44 -49 64 -81t20 -83v-723z" />
    <glyph glyph-name="omacron" unicode="&#x14d;" horiz-adv-x="968" 
d="M682 225v432q0 31 -6 45q-35 68 -107 111q-18 10 -47 10h-223q-29 0 -47 -10q-70 -41 -105 -111q-6 -12 -6 -45v-432q0 -33 10 -53q9 -20 43 -54t56 -47t51 -14h223q29 0 47 11q68 41 105 112q6 14 6 45zM752 655v-430q0 -67 -32 -113q-84 -122 -196 -122h-225
q-68 0 -116 38q-113 89 -111 197v430q0 110 112 199q47 37 115 37h225q68 0 116 -38q112 -89 112 -198zM578 1151h-322v68h322v-68z" />
    <glyph glyph-name="Obreve" unicode="&#x14e;" horiz-adv-x="1142" 
d="M649 1556h66q1 -80 -55 -134t-134 -54t-133 54t-55 134l70 -2q0 -57 32 -91q32 -33 86 -33q53 0 88 34t35 92zM864 246v725q0 27 -14 53t-68 79q-54 54 -96 54h-330q-39 0 -93 -54q-53 -55 -69 -81t-16 -51v-727q0 -24 14 -48t60 -69t66 -56t38 -12h330q42 1 95 55t68 80
t15 52zM938 246q0 -57 -20 -87t-64 -78q-45 -48 -82 -71t-80 -22h-344q-41 0 -78 23t-84 71t-64 77q-17 28 -18 87v723q0 53 18 83t65 80q46 50 81 74t80 23h344q47 1 82 -23t80 -73q44 -49 64 -81t20 -83v-723z" />
    <glyph glyph-name="obreve" unicode="&#x14f;" 
d="M539 1262h65q0 -80 -55 -134t-133 -55q-78 0 -133 54t-56 135l70 -2q0 -58 33 -92t86 -34t88 36q35 35 35 92zM682 225v432q0 31 -6 45q-35 68 -107 111q-18 10 -47 10h-223q-29 0 -47 -10q-70 -41 -105 -111q-6 -12 -6 -45v-432q0 -33 10 -53q9 -20 43 -54t56 -47
t51 -14h223q29 0 47 11q68 41 105 112q6 14 6 45zM752 655v-430q0 -67 -32 -113q-84 -122 -196 -122h-225q-68 0 -116 38q-113 89 -111 197v430q0 110 112 199q47 37 115 37h225q68 0 116 -38q112 -89 112 -198z" />
    <glyph glyph-name="Ohungarumlaut" unicode="&#x150;" horiz-adv-x="1142" 
d="M602 1610l-217 -275l-61 27l194 248h84zM788 1610l-217 -275l-61 27l195 248h83zM864 246v725q0 27 -14 53t-68 79q-54 54 -96 54h-330q-39 0 -93 -54q-53 -55 -69 -81t-16 -51v-727q0 -24 14 -48t60 -69t66 -56t38 -12h330q42 1 95 55t68 80t15 52zM938 246
q0 -57 -20 -87t-64 -78q-45 -48 -82 -71t-80 -22h-344q-41 0 -78 23t-84 71t-64 77q-17 28 -18 87v723q0 53 18 83t65 80q46 50 81 74t80 23h344q47 1 82 -23t80 -73q44 -49 64 -81t20 -83v-723z" />
    <glyph glyph-name="ohungarumlaut" unicode="&#x151;" 
d="M518 1317l-217 -275l-61 27l194 248h84zM705 1317l-218 -275l-61 27l195 248h84zM682 225v432q0 31 -6 45q-35 68 -107 111q-18 10 -47 10h-223q-29 0 -47 -10q-70 -41 -105 -111q-6 -12 -6 -45v-432q0 -33 10 -53q9 -20 43 -54t56 -47t51 -14h223q29 0 47 11
q68 41 105 112q6 14 6 45zM752 655v-430q0 -67 -32 -113q-84 -122 -196 -122h-225q-68 0 -116 38q-113 89 -111 197v430q0 110 112 199q47 37 115 37h225q68 0 116 -38q112 -89 112 -198z" />
    <glyph glyph-name="OE" unicode="&#x152;" horiz-adv-x="1748" 
d="M844 246v739l-8 27q-20 37 -75 91t-95 54h-310q-39 0 -93 -54q-53 -55 -69 -81t-16 -51v-727q0 -24 14 -48t60 -69t66 -56t38 -12h310q41 1 94 55q52 54 68 80t16 52zM1516 0h-672v92q-57 -61 -93 -83t-79 -21h-324q-41 0 -78 23t-84 71t-64 77q-17 28 -18 87v723
q0 53 18 83t65 80q46 50 81 74t80 23h324q47 1 82 -23t90 -84v95h672v-72h-598v-496h559v-71h-559v-506h598v-72z" />
    <glyph glyph-name="oe" unicode="&#x153;" horiz-adv-x="1546" 
d="M1294 471v182q0 35 -9 55t-42 55q-33 34 -55 47t-51 13h-228q-48 0 -92 -47q-45 -46 -55 -68t-10 -55v-182h542zM682 211v459q0 18 -6 32q-35 68 -107 111q-18 10 -47 10h-223q-29 0 -47 -10q-70 -41 -105 -111q-6 -12 -6 -45v-432q0 -33 10 -53q9 -20 43 -54t56 -47
t51 -14h223q29 0 47 11q68 40 105 112q6 16 6 31zM1364 403h-612v-174q0 -33 6 -45q39 -76 106 -116q18 -10 45 -11h232q27 0 59 20t88 97l66 -27q-56 -85 -102 -121t-111 -36h-230q-68 0 -114 37q-35 25 -80 84q-39 -55 -82 -88t-111 -33h-225q-68 0 -116 38
q-113 89 -111 197v430q0 110 112 199q47 37 115 37h225q68 0 113 -36t80 -87q43 55 85 89t109 34h226q67 0 115 -38q112 -89 112 -198v-252z" />
    <glyph glyph-name="Racute" unicode="&#x154;" horiz-adv-x="1114" 
d="M600 1612l-217 -275l-61 27l194 248h84zM805 805v170q0 27 -8 45q-41 78 -105 113q-23 12 -47 12h-469v-502h469q47 0 94 45q46 44 56 66t10 51zM879 803q0 -53 -26 -94t-101 -105q-41 -33 -105 -33h-49l328 -571h-84l-328 571h-338v-571h-74v1217h545q59 1 92 -25
t69 -64t44 -53q27 -41 27 -96v-176z" />
    <glyph glyph-name="racute" unicode="&#x155;" horiz-adv-x="802" 
d="M590 1317l-217 -275l-62 27l195 248h84zM471 823h-98q-23 0 -39 -8q-143 -80 -170 -151v-664h-70v750l-14 131h70l14 -115q27 35 91 80t112 45h100q66 0 112 -36t101 -122l-68 -26q-60 88 -86 102t-55 14z" />
    <glyph glyph-name="Rcommaaccent" unicode="&#x156;" horiz-adv-x="1114" 
d="M805 805v170q0 27 -8 45q-41 78 -105 113q-23 12 -47 12h-469v-502h469q47 0 94 45q46 44 56 66t10 51zM879 803q-1 -53 -19 -81t-53 -66t-67 -62t-93 -23h-49l328 -571h-84l-328 571h-338v-571h-74v1217h545q59 0 105 -35q20 -14 55 -52t53 -68q18 -28 19 -83v-176z
M461 -109l-152 -231h-80l162 260z" />
    <glyph glyph-name="rcommaaccent" unicode="&#x157;" horiz-adv-x="802" 
d="M289 -109l-152 -231h-80l162 260zM471 823h-98q-23 0 -39 -8q-143 -80 -170 -151v-664h-70v750l-14 131h70l14 -115q27 35 91 80t112 45h100q66 0 112 -36t101 -122l-68 -26q-60 88 -86 102t-55 14z" />
    <glyph glyph-name="Rcaron" unicode="&#x158;" horiz-adv-x="1114" 
d="M805 805v170q0 27 -8 45q-41 78 -105 113q-23 12 -47 12h-469v-502h469q47 0 94 45q46 44 56 66t10 51zM879 803q-1 -53 -19 -81t-53 -66t-67 -62t-93 -23h-49l328 -571h-84l-328 571h-338v-571h-74v1217h545q59 0 105 -35q20 -14 55 -52t53 -68q18 -28 19 -83v-176z
M713 1614l-217 -277h-78l-217 277h86l170 -219l172 219h84z" />
    <glyph glyph-name="rcaron" unicode="&#x159;" horiz-adv-x="802" 
d="M647 1319l-217 -277h-78l-217 277h86l170 -219l172 219h84zM471 823h-98q-23 0 -39 -8q-143 -80 -170 -151v-664h-70v750l-14 131h70l14 -115q27 35 91 80t112 45h100q66 0 112 -36t101 -122l-68 -26q-60 88 -86 102t-55 14z" />
    <glyph glyph-name="Sacute" unicode="&#x15a;" horiz-adv-x="1105" 
d="M662 1612l-218 -275l-61 27l195 248h84zM911 246q0 -51 -18 -83q-17 -32 -65 -80t-84 -72t-78 -23h-353q-51 0 -92 30q-88 66 -149 181l73 20q23 -43 75 -100t99 -60h338q40 1 96 55t70 80t15 54v133q0 98 -82 123l-549 155q-53 13 -86 63t-33 114v133q0 55 18 85t65 79
q46 49 81 73t80 23h307q41 0 90 -31q80 -51 154 -180l-74 -23q-18 41 -75 101t-101 61h-293q-43 0 -97 -56q-55 -56 -75 -93q-6 -16 -6 -39v-127q0 -94 78 -119l557 -156q53 -14 84 -61t30 -111v-149z" />
    <glyph glyph-name="sacute" unicode="&#x15b;" horiz-adv-x="915" 
d="M590 1317l-217 -275l-62 27l195 248h84zM506 823h-217q-33 0 -51 -10q-63 -39 -95 -100q-6 -12 -6 -51v-64q0 -43 29 -72t67 -32l338 -25q72 -4 116 -54t44 -120v-78q0 -108 -106 -188q-49 -39 -113 -39h-246q-66 0 -116 40t-95 117l66 27q47 -80 94 -106q18 -10 47 -11
h248q29 0 47 11q68 39 98 102q6 12 7 49v78q0 43 -29 72t-68 32l-338 25q-71 4 -115 53t-44 119v66q0 107 106 190q47 37 113 37h213q66 0 112 -36t101 -122l-64 -24q-66 114 -143 114z" />
    <glyph glyph-name="Scircumflex" unicode="&#x15c;" horiz-adv-x="1105" 
d="M242 1337l217 277h78l217 -277h-86l-170 219l-172 -219h-84zM911 246q0 -51 -18 -83q-17 -32 -65 -80t-84 -72t-78 -23h-353q-51 0 -92 30q-88 66 -149 181l73 20q23 -43 75 -100t99 -60h338q40 1 96 55t70 80t15 54v133q0 98 -82 123l-549 155q-53 13 -86 63t-33 114
v133q0 55 18 85t65 79q46 49 81 73t80 23h307q41 0 90 -31q80 -51 154 -180l-74 -23q-18 41 -75 101t-101 61h-293q-43 0 -97 -56q-55 -56 -75 -93q-6 -16 -6 -39v-127q0 -94 78 -119l557 -156q53 -14 84 -61t30 -111v-149z" />
    <glyph glyph-name="scircumflex" unicode="&#x15d;" horiz-adv-x="915" 
d="M145 1042l217 277h78l217 -277h-86l-170 220l-172 -220h-84zM506 823h-217q-33 0 -51 -10q-63 -39 -95 -100q-6 -12 -6 -51v-64q0 -43 29 -72t67 -32l338 -25q72 -4 116 -54t44 -120v-78q0 -108 -106 -188q-49 -39 -113 -39h-246q-66 0 -116 40t-95 117l66 27
q47 -80 94 -106q18 -10 47 -11h248q29 0 47 11q68 39 98 102q6 12 7 49v78q0 43 -29 72t-68 32l-338 25q-71 4 -115 53t-44 119v66q0 107 106 190q47 37 113 37h213q66 0 112 -36t101 -122l-64 -24q-66 114 -143 114z" />
    <glyph glyph-name="Scaron" unicode="&#x160;" horiz-adv-x="1105" 
d="M752 1614l-217 -277h-78l-217 277h86l170 -219l172 219h84zM911 246q0 -51 -18 -83q-17 -32 -65 -80t-84 -72t-78 -23h-338q-51 0 -92 30q-88 66 -150 181l74 20q22 -43 64 -89t66 -58t44 -13h323q40 1 96 55t70 80t15 54v133q0 39 -23 75t-59 46l-555 157q-49 15 -81 65
t-32 112v133q0 55 18 86t65 80q88 94 161 94h307q41 0 90 -31q80 -51 154 -180l-74 -23q-18 41 -75 101t-101 61h-293q-43 0 -97 -56q-55 -56 -75 -93q-6 -16 -6 -39v-127q0 -39 22 -72t56 -43l557 -160q51 -14 83 -62t31 -110v-149z" />
    <glyph glyph-name="scaron" unicode="&#x161;" horiz-adv-x="915" 
d="M506 823h-217q-33 0 -51 -10q-63 -39 -95 -100q-6 -12 -6 -51v-64q0 -43 29 -72t67 -32l338 -25q72 -4 116 -54t44 -120v-78q0 -108 -106 -188q-49 -39 -113 -39h-246q-66 0 -116 40t-95 117l66 27q47 -80 94 -106q18 -10 47 -11h248q29 0 47 11q68 39 98 102q6 12 7 49
v78q0 43 -29 72t-68 32l-338 25q-71 4 -115 53t-44 119v66q0 107 106 190q47 37 113 37h213q66 0 112 -36t101 -122l-64 -24q-66 114 -143 114zM649 1319l-217 -277h-78l-217 277h86l170 -219l172 219h84z" />
    <glyph glyph-name="Tcommaaccent" unicode="&#x162;" horiz-adv-x="929" 
d="M479 -109l-151 -231h-80l162 260zM786 1145h-356v-1145h-74v1145h-356v72h786v-72z" />
    <glyph glyph-name="tcommaaccent" unicode="&#x163;" horiz-adv-x="638" 
d="M461 -109l-152 -231h-80l162 260zM496 813h-271v-575q0 -37 6 -52q37 -70 103 -106q23 -12 51 -12h109v-68h-111q-116 0 -201 133q-27 39 -26 100v580h-146v68h146v336h69v-336h271v-68z" />
    <glyph glyph-name="Tcaron" unicode="&#x164;" horiz-adv-x="929" 
d="M651 1614l-217 -277h-78l-217 277h86l170 -219l172 219h84zM786 1145h-356v-1145h-74v1145h-356v72h786v-72z" />
    <glyph glyph-name="tcaron" unicode="&#x165;" horiz-adv-x="776" 
d="M797 1262l-111 -310h-82l123 338zM496 813h-271v-575q0 -37 6 -52q37 -70 103 -106q23 -12 51 -12h109v-68h-111q-116 0 -201 133q-27 39 -26 100v580h-146v68h146v336h69v-336h271v-68z" />
    <glyph glyph-name="Tbar" unicode="&#x166;" horiz-adv-x="929" 
d="M631 575h-201v-575h-74v575h-211v68h211v502h-356v72h786v-72h-356v-502h201v-68z" />
    <glyph glyph-name="tbar" unicode="&#x167;" horiz-adv-x="638" 
d="M494 575h-269v-337q0 -37 6 -52q37 -70 103 -106q23 -12 51 -12h109v-68h-111q-116 0 -201 133q-27 39 -26 100v342h-148v68h148v170h-146v68h146v336h69v-336h271v-68h-271v-170h269v-68z" />
    <glyph glyph-name="Utilde" unicode="&#x168;" horiz-adv-x="1077" 
d="M741 1386l-65 -20q-16 37 -48 56t-65 14l-141 -45q-61 -20 -119 10q-57 31 -82 100l66 21q37 -82 112 -68l146 45q61 20 117 -10q54 -31 79 -103zM868 244q0 -49 -19 -82t-65 -81t-82 -71t-77 -22h-293q-77 0 -162 93q-44 48 -64 78t-20 85v973h74v-975q0 -12 10 -39
q20 -37 75 -89t97 -55h272q42 1 98 55q80 78 83 128v975h73v-973z" />
    <glyph glyph-name="utilde" unicode="&#x169;" horiz-adv-x="956" 
d="M674 1120l-66 -20q-16 37 -48 56t-64 13l-142 -45q-61 -20 -118 11t-82 100l65 20q37 -82 113 -67l145 45q61 20 117 -10q55 -31 80 -103zM309 -10q-69 0 -115 37q-112 90 -112 196v658h70v-654q0 -35 11 -55t43 -56q32 -34 54 -46t51 -13h160q23 0 39 9q143 80 170 151
v664h70v-750l14 -131h-70l-14 115q-28 -35 -92 -81t-111 -44h-168z" />
    <glyph glyph-name="Umacron" unicode="&#x16a;" horiz-adv-x="1077" 
d="M643 1438h-321v67h321v-67zM868 244q0 -49 -19 -82t-65 -81t-82 -71t-77 -22h-293q-77 0 -162 93q-44 48 -64 78t-20 85v973h74v-975q0 -12 10 -39q20 -37 75 -89t97 -55h272q42 1 98 55q80 78 83 128v975h73v-973z" />
    <glyph glyph-name="umacron" unicode="&#x16b;" horiz-adv-x="956" 
d="M571 1151h-321v68h321v-68zM309 -10q-69 0 -115 37q-112 90 -112 196v658h70v-654q0 -35 11 -55t43 -56q32 -34 54 -46t51 -13h160q23 0 39 9q143 80 170 151v664h70v-750l14 -131h-70l-14 115q-28 -35 -92 -81t-111 -44h-168z" />
    <glyph glyph-name="Ubreve" unicode="&#x16c;" horiz-adv-x="1077" 
d="M590 1556h65q0 -80 -55 -134t-133 -54t-133 54t-55 134l69 -2q0 -57 33 -91q33 -33 86 -33t88 34t35 92zM868 244q0 -49 -19 -82t-65 -81t-82 -71t-77 -22h-293q-77 0 -162 93q-44 48 -64 78t-20 85v973h74v-975q0 -12 10 -39q20 -37 75 -89t97 -55h272q42 1 98 55
q80 78 83 128v975h73v-973z" />
    <glyph glyph-name="ubreve" unicode="&#x16d;" horiz-adv-x="956" 
d="M543 1262h65q0 -80 -55 -134t-133 -55q-78 0 -133 54t-56 135l70 -2q0 -58 33 -92t86 -34t88 36q35 35 35 92zM309 -10q-69 0 -115 37q-112 90 -112 196v658h70v-654q0 -35 11 -55t43 -56q32 -34 54 -46t51 -13h160q23 0 39 9q143 80 170 151v664h70v-750l14 -131h-70
l-14 115q-28 -35 -92 -81t-111 -44h-168z" />
    <glyph glyph-name="Uring" unicode="&#x16e;" horiz-adv-x="1077" 
d="M604 1493q0 55 -35 91t-88 36t-87 -36t-34 -91t34 -90t87 -35t88 35t35 90zM481 1681q77 0 133 -55t56 -133t-56 -132t-133 -54q-78 0 -133 54t-55 132t55 133t133 55zM868 244q0 -49 -19 -82t-65 -81t-82 -71t-77 -22h-293q-77 0 -162 93q-44 48 -64 78t-20 85v973h74
v-975q0 -12 10 -39q20 -37 75 -89t97 -55h272q42 1 98 55q80 78 83 128v975h73v-973z" />
    <glyph glyph-name="uring" unicode="&#x16f;" horiz-adv-x="956" 
d="M539 1198q0 55 -35 91t-88 36t-87 -36t-34 -91t34 -90t87 -35t88 35t35 90zM604 1198q0 -78 -55 -132t-133 -54t-133 54t-55 132t54 133q56 55 134 55t133 -55t55 -133zM309 -10q-69 0 -115 37q-112 90 -112 196v658h70v-654q0 -35 11 -55t43 -56q32 -34 54 -46t51 -13
h160q23 0 39 9q143 80 170 151v664h70v-750l14 -131h-70l-14 115q-28 -35 -92 -81t-111 -44h-168z" />
    <glyph glyph-name="Uhungarumlaut" unicode="&#x170;" horiz-adv-x="1077" 
d="M555 1612l-217 -275l-62 27l195 248h84zM741 1612l-217 -275l-61 27l194 248h84zM868 244q0 -49 -19 -82t-65 -81t-82 -71t-77 -22h-293q-77 0 -162 93q-44 48 -64 78t-20 85v973h74v-975q0 -12 10 -39q20 -37 75 -89t97 -55h272q42 1 98 55q80 78 83 128v975h73v-973z
" />
    <glyph glyph-name="uhungarumlaut" unicode="&#x171;" horiz-adv-x="956" 
d="M518 1317l-217 -275l-61 27l194 248h84zM705 1317l-218 -275l-61 27l195 248h84zM309 -10q-69 0 -115 37q-112 90 -112 196v658h70v-654q0 -35 11 -55t43 -56q32 -34 54 -46t51 -13h160q23 0 39 9q143 80 170 151v664h70v-750l14 -131h-70l-14 115q-28 -35 -92 -81
t-111 -44h-168z" />
    <glyph glyph-name="Uogonek" unicode="&#x172;" horiz-adv-x="1077" 
d="M520 -340l-151 231l69 29l162 -260h-80zM868 244q0 -49 -19 -82t-65 -81t-82 -71t-77 -22h-293q-77 0 -162 93q-44 48 -64 78t-20 85v973h74v-975q0 -12 10 -39q20 -37 75 -89t97 -55h272q42 1 98 55q80 78 83 128v975h73v-973z" />
    <glyph glyph-name="uogonek" unicode="&#x173;" horiz-adv-x="956" 
d="M442 -340l-151 231l69 29l162 -260h-80zM309 -10q-69 0 -115 37q-112 90 -112 196v658h70v-654q0 -35 11 -55t43 -56q32 -34 54 -46t51 -13h160q23 0 39 9q143 80 170 151v664h70v-750l14 -131h-70l-14 115q-28 -35 -92 -81t-111 -44h-168z" />
    <glyph glyph-name="Wcircumflex" unicode="&#x174;" horiz-adv-x="1392" 
d="M373 1337l217 277h78l217 -277h-86l-170 219l-172 -219h-84zM1278 1217l-266 -1217h-131l-250 1108l-248 -1108h-133l-258 1217h74l237 -1143h29l256 1143h88l256 -1143h29l241 1143h76z" />
    <glyph glyph-name="wcircumflex" unicode="&#x175;" horiz-adv-x="1339" 
d="M350 1042l217 277h78l217 -277h-86l-170 220l-172 -220h-84zM1186 881l-242 -881h-125l-215 797l-219 -797h-123l-239 881h71l215 -811h31l215 811h96l213 -811h33l217 811h72z" />
    <glyph glyph-name="Ycircumflex" unicode="&#x176;" horiz-adv-x="911" 
d="M150 1337l217 277h77l218 -277h-87l-169 219l-173 -219h-83zM438 0h-73v543l-375 674h82l329 -599l332 599h82l-377 -674v-543z" />
    <glyph glyph-name="ycircumflex" unicode="&#x177;" horiz-adv-x="819" 
d="M109 1042l217 277h77l218 -277h-86l-170 220l-172 -220h-84zM692 881l-379 -1217h-77l112 336h-53l-277 881h76l248 -809h29l247 809h74z" />
    <glyph glyph-name="Ydieresis" unicode="&#x178;" horiz-adv-x="911" 
d="M317 1427h-110v115h110v-115zM592 1427h-111v115h111v-115zM438 0h-73v543l-375 674h82l329 -599l332 599h82l-377 -674v-543z" />
    <glyph glyph-name="Zacute" unicode="&#x179;" horiz-adv-x="952" 
d="M594 1612l-217 -275l-62 27l195 248h84zM782 0h-712v70l630 1075h-630v72h712v-74l-628 -1071h628v-72z" />
    <glyph glyph-name="zacute" unicode="&#x17a;" horiz-adv-x="837" 
d="M549 1317l-217 -275l-62 27l195 248h84zM674 0h-602v59l495 754h-512v68h596v-64l-495 -749h518v-68z" />
    <glyph glyph-name="Zdotaccent" unicode="&#x17b;" horiz-adv-x="952" 
d="M475 1425h-100v107h100v-107zM782 0h-712v70l630 1075h-630v72h712v-74l-628 -1071h628v-72z" />
    <glyph glyph-name="zdotaccent" unicode="&#x17c;" horiz-adv-x="837" 
d="M406 1130h-101v107h101v-107zM674 0h-602v59l495 754h-512v68h596v-64l-495 -749h518v-68z" />
    <glyph glyph-name="Zcaron" unicode="&#x17d;" horiz-adv-x="952" 
d="M707 1614l-218 -277h-77l-217 277h86l170 -219l172 219h84zM782 0h-712v70l630 1075h-630v72h712v-74l-628 -1071h628v-72z" />
    <glyph glyph-name="zcaron" unicode="&#x17e;" horiz-adv-x="837" 
d="M629 1319l-217 -277h-78l-217 277h86l170 -219l172 219h84zM674 0h-602v59l495 754h-512v68h596v-64l-495 -749h518v-68z" />
    <glyph glyph-name="Scommaaccent" unicode="&#x218;" horiz-adv-x="1105" 
d="M625 -109l-152 -231h-80l162 260zM911 246q0 -51 -18 -83q-17 -32 -65 -80t-84 -72t-78 -23h-353q-51 0 -92 30q-88 66 -149 181l73 20q23 -43 75 -100t99 -60h338q40 1 96 55t70 80t15 54v133q0 98 -82 123l-549 155q-53 13 -86 63t-33 114v133q0 55 18 85t65 79
q46 49 81 73t80 23h307q41 0 90 -31q80 -51 154 -180l-74 -23q-18 41 -75 101t-101 61h-293q-43 0 -97 -56q-55 -56 -75 -93q-6 -16 -6 -39v-127q0 -94 78 -119l557 -156q53 -14 84 -61t30 -111v-149z" />
    <glyph glyph-name="scommaaccent" unicode="&#x219;" horiz-adv-x="915" 
d="M461 -109l-152 -231h-80l162 260zM506 823h-217q-33 0 -51 -10q-63 -39 -95 -100q-6 -12 -6 -51v-64q0 -43 29 -72t67 -32l338 -25q72 -4 116 -54t44 -120v-78q0 -108 -106 -188q-49 -39 -113 -39h-246q-66 0 -116 40t-95 117l66 27q47 -80 94 -106q18 -10 47 -11h248
q29 0 47 11q68 39 98 102q6 12 7 49v78q0 43 -29 72t-68 32l-338 25q-71 4 -115 53t-44 119v66q0 107 106 190q47 37 113 37h213q66 0 112 -36t101 -122l-64 -24q-66 114 -143 114z" />
    <glyph glyph-name="circumflex" unicode="&#x2c6;" horiz-adv-x="868" 
d="M162 1042l217 277h78l217 -277h-86l-170 220l-172 -220h-84z" />
    <glyph glyph-name="caron" unicode="&#x2c7;" horiz-adv-x="868" 
d="M674 1319l-217 -277h-78l-217 277h86l170 -219l172 219h84z" />
    <glyph glyph-name="breve" unicode="&#x2d8;" horiz-adv-x="696" 
d="M426 1262h66q0 -80 -56 -134t-133 -55q-78 0 -133 54t-55 135l69 -2q0 -58 33 -92t86 -34t88 36q35 35 35 92z" />
    <glyph glyph-name="dotaccent" unicode="&#x2d9;" horiz-adv-x="391" 
d="M184 1130h-100v107h100v-107z" />
    <glyph glyph-name="ring" unicode="&#x2da;" horiz-adv-x="765" 
d="M457 1199q0 52 -33 86t-84 34t-83 -34t-32 -86t32 -86t83 -34t84 34t33 86zM518 1199q0 -73 -52 -125t-126 -52t-126 51t-52 125t52 126t125 52t126 -52t53 -125z" />
    <glyph glyph-name="ogonek" unicode="&#x2db;" horiz-adv-x="831" 
d="M412 -340l-152 231l70 29l162 -260h-80z" />
    <glyph glyph-name="tilde" unicode="&#x2dc;" horiz-adv-x="847" 
d="M643 1120l-65 -20q-16 37 -48 56t-65 13l-141 -45q-61 -20 -119 11q-57 31 -82 100l65 20q37 -82 113 -67l145 45q61 20 117 -10q55 -31 80 -103z" />
    <glyph glyph-name="hungarumlaut" unicode="&#x2dd;" horiz-adv-x="759" 
d="M518 1317l-217 -275l-61 27l194 248h84zM705 1317l-218 -275l-61 27l195 248h84z" />
    <glyph glyph-name="pi" unicode="&#x3c0;" horiz-adv-x="1128" 
d="M741 121v692h-467v-813h-69v813h-168v68h948v-68h-174v-672l16 -141h-69q-17 85 -17 121z" />
    <glyph glyph-name="afii10023" unicode="&#x401;" horiz-adv-x="1005" 
d="M379 1415h-111v115h111v-115zM653 1415h-110v115h110v-115zM774 0h-672v1217h672v-72h-598v-496h559v-71h-559v-506h598v-72z" />
    <glyph glyph-name="afii10051" unicode="&#x402;" horiz-adv-x="1236" 
d="M674 66h129q83 0 145 120q10 20 10 47v416q0 27 -10 47q-64 119 -145 119h-160q-23 0 -39 -8q-145 -80 -170 -148v-659h-78v1145h-356v72h786v-72h-352v-383q18 33 87 81t116 48h168q68 0 113 -35q114 -88 112 -199v-432q0 -111 -112 -198q-45 -35 -113 -35h-131v74z" />
    <glyph glyph-name="afii10052" unicode="&#x403;" horiz-adv-x="911" 
d="M614 1653l-217 -275l-61 27l194 248h84zM102 1217h660v-72h-586v-1145h-74v1217z" />
    <glyph glyph-name="afii10053" unicode="&#x404;" horiz-adv-x="1058" 
d="M668 588h-492v-344q0 -44 58 -102t79 -70q22 -12 41 -13h279q45 -1 96 59t76 101l76 -20q-72 -125 -154 -181q-49 -31 -90 -30h-289q-77 0 -162 93q-44 48 -64 78t-20 85v727q0 53 20 84t65 80q46 49 80 71t79 23h291q41 0 90 -31q82 -55 154 -180l-74 -23q-17 41 -61 88
t-68 61t-47 13h-281q-41 0 -92 -53q-50 -54 -66 -80t-16 -57v-308h492v-71z" />
    <glyph glyph-name="afii10054" unicode="&#x405;" horiz-adv-x="1105" 
d="M911 246q0 -51 -18 -83q-17 -32 -65 -80t-84 -72t-78 -23h-353q-51 0 -92 30q-88 66 -149 181l73 20q23 -43 75 -100t99 -60h338q40 1 96 55t70 80t15 54v133q0 98 -82 123l-549 155q-53 13 -86 63t-33 114v133q0 55 18 85t65 79q46 49 81 73t80 23h307q41 0 90 -31
q80 -51 154 -180l-74 -23q-18 41 -75 101t-101 61h-293q-43 0 -97 -56q-55 -56 -75 -93q-6 -16 -6 -39v-127q0 -94 78 -119l557 -156q53 -14 84 -61t30 -111v-149z" />
    <glyph glyph-name="afii10055" unicode="&#x406;" horiz-adv-x="405" 
d="M176 0h-74v1217h74v-1217z" />
    <glyph glyph-name="afii10056" unicode="&#x407;" horiz-adv-x="405" 
d="M57 1415h-110v115h110v-115zM332 1415h-111v115h111v-115zM176 0h-74v1217h74v-1217z" />
    <glyph glyph-name="afii10057" unicode="&#x408;" horiz-adv-x="876" 
d="M668 248q0 -53 -20 -85t-66 -80q-45 -48 -81 -71t-79 -22h-158q-42 0 -100 36t-144 175l72 20q80 -127 137 -151q16 -8 41 -9h148q41 -1 93 55t73 93q10 27 10 37v971h74v-969z" />
    <glyph glyph-name="afii10058" unicode="&#x409;" horiz-adv-x="1736" 
d="M1495 242v170q0 28 -10 50t-57 66t-93 45h-448v-501h448q25 0 47 12q63 35 105 113q8 18 8 45zM1569 414v-176q1 -55 -17 -83t-54 -66q-36 -37 -68 -63t-93 -26h-524v1145h-537v-897q0 -53 -20 -85t-66 -80t-80 -71q-36 -23 -79 -22h-76v71h72q39 -1 92 55t74 93
q10 25 10 37v971h684v-572h450q63 0 105 -33q76 -63 102 -104t25 -94z" />
    <glyph glyph-name="afii10059" unicode="&#x40a;" horiz-adv-x="1716" 
d="M1475 242v170q-1 28 -11 50t-57 66t-92 45h-449v-501h449q25 0 47 12q63 35 104 113q9 18 9 45zM1548 414v-176q0 -55 -17 -83t-53 -66q-36 -37 -69 -63t-92 -26h-524v573h-617v-573h-74v1217h74v-572h617v572h73v-572h451q63 0 104 -33q75 -63 101 -104t26 -94z" />
    <glyph glyph-name="afii10060" unicode="&#x40b;" horiz-adv-x="1236" 
d="M643 815q-23 0 -39 -8q-145 -80 -170 -148v-659h-78v1145h-356v72h786v-72h-352v-383q18 33 87 81t116 48h168q68 0 115 -37q114 -90 112 -197v-657h-74v649q0 27 -10 47q-64 119 -145 119h-160z" />
    <glyph glyph-name="afii10061" unicode="&#x40c;" horiz-adv-x="997" 
d="M657 1653l-217 -275l-61 27l194 248h84zM176 573v-573h-74v1217h74v-576h51l527 576h94l-557 -609l563 -608h-98l-529 573h-51z" />
    <glyph glyph-name="afii10062" unicode="&#x40e;" horiz-adv-x="911" 
d="M793 1217l-471 -1217h-78l129 336h-72l-326 881h78l301 -809h45l316 809h78zM524 1604h66q0 -80 -55 -134t-133 -55q-78 0 -134 54q-55 54 -55 135l70 -2q0 -57 32 -92q33 -34 86 -34t88 36q35 35 35 92z" />
    <glyph glyph-name="afii10145" unicode="&#x40f;" horiz-adv-x="1116" 
d="M887 0h-355v-178h-77v178h-353v1217h74v-1145h637v1145h74v-1217z" />
    <glyph glyph-name="afii10017" unicode="&#x410;" horiz-adv-x="1048" 
d="M739 362l-247 785h-58l-246 -785h551zM932 0h-78l-94 291h-592l-96 -291h-76l393 1217h150z" />
    <glyph glyph-name="afii10018" unicode="&#x411;" horiz-adv-x="1064" 
d="M805 242v170q0 28 -10 50t-57 66t-93 45h-469v-501h469q27 0 47 12q63 35 105 113q8 18 8 45zM770 1145h-594v-500h471q63 0 105 -33q76 -63 102 -104t25 -94v-176q1 -55 -17 -83t-54 -66q-36 -37 -68 -63t-93 -26h-545v1217h668v-72z" />
    <glyph glyph-name="afii10019" unicode="&#x412;" horiz-adv-x="1085" 
d="M803 240v176q0 27 -8 43q-35 70 -105 108q-16 10 -43 11h-471v-506h465q29 0 51 13t67 58q44 46 44 97zM803 815v160q0 27 -8 43q-39 76 -107 117q-18 10 -47 10h-465v-496h473q23 0 43 13q63 35 103 108q8 18 8 45zM877 236q1 -55 -17 -83t-53 -66t-53 -52
q-45 -35 -107 -35h-545v1217h545q59 -1 93 -27t69 -64t51 -64t17 -85v-164q0 -55 -24 -95t-95 -104q72 -63 96 -103t23 -95v-180z" />
    <glyph glyph-name="afii10020" unicode="&#x413;" horiz-adv-x="911" 
d="M102 1217h660v-72h-586v-1145h-74v1217z" />
    <glyph glyph-name="afii10021" unicode="&#x414;" horiz-adv-x="1114" 
d="M791 72v1073h-414l-115 -887q-8 -61 -30 -95t-78 -91h637zM23 0v-178h-74v250h61q41 0 92 53q52 53 67 79t19 52l121 961h555v-1145h117l-27 -248h-75l16 176h-872z" />
    <glyph glyph-name="afii10022" unicode="&#x415;" horiz-adv-x="1005" 
d="M774 0h-672v1217h672v-72h-598v-502h567v-72h-567v-499h598v-72z" />
    <glyph glyph-name="afii10024" unicode="&#x416;" horiz-adv-x="1593" 
d="M772 573v-573h-74v573h-51l-528 -573h-99l564 608l-557 609h94l526 -576h51v576h74v-576h51l527 576h94l-557 -609l563 -608h-98l-529 573h-51z" />
    <glyph glyph-name="afii10025" unicode="&#x417;" horiz-adv-x="1030" 
d="M313 1227h293q61 0 107 -35q18 -12 52 -51q35 -39 53 -68t18 -84v-178q0 -55 -20 -86t-101 -111q81 -80 101 -110t20 -86v-195q0 -55 -18 -83t-53 -68q-34 -39 -52 -52q-45 -35 -107 -34h-293q-47 0 -90 32q-94 70 -151 175l75 24q23 -41 75 -98t97 -60h285q29 0 47 11
q66 39 103 112q8 16 8 43v189q0 27 -8 43q-39 74 -105 110q-20 12 -43 13h-321v71h319q31 0 45 8q66 37 105 111q8 18 8 45v170q0 27 -8 45q-45 84 -103 117q-14 8 -47 8h-285q-27 0 -51 -13q-24 -14 -62 -60t-61 -89l-71 23q121 211 239 211z" />
    <glyph glyph-name="afii10026" unicode="&#x418;" horiz-adv-x="1105" 
d="M102 0v1217h74v-1147h19l540 1147h142v-1217h-74v1149h-21l-538 -1149h-142z" />
    <glyph glyph-name="afii10027" unicode="&#x419;" horiz-adv-x="1105" 
d="M621 1556h65q0 -80 -55 -134t-133 -54t-133 54t-56 134l70 -2q0 -57 33 -91q33 -33 86 -33t88 34t35 92zM102 0v1217h74v-1147h19l540 1147h142v-1217h-74v1149h-21l-538 -1149h-142z" />
    <glyph glyph-name="afii10028" unicode="&#x41a;" horiz-adv-x="997" 
d="M176 573v-573h-74v1217h74v-576h51l527 576h94l-557 -609l563 -608h-98l-529 573h-51z" />
    <glyph glyph-name="afii10029" unicode="&#x41b;" horiz-adv-x="1116" 
d="M-45 -10v71h72q39 -1 92 55t74 93q10 25 10 37v971h684v-1217h-74v1145h-537v-897q0 -53 -20 -85t-66 -80t-80 -71q-36 -23 -79 -22h-76z" />
    <glyph glyph-name="afii10030" unicode="&#x41c;" horiz-adv-x="1306" 
d="M1077 0h-73v1151h-23l-369 -811h-47l-368 807h-21v-1147h-74v1217h144l342 -762l344 762h145v-1217z" />
    <glyph glyph-name="afii10031" unicode="&#x41d;" horiz-adv-x="1116" 
d="M887 0h-74v571h-637v-571h-74v1217h74v-574h637v574h74v-1217z" />
    <glyph glyph-name="afii10032" unicode="&#x41e;" horiz-adv-x="1142" 
d="M864 246v725q0 27 -14 53t-68 79q-54 54 -96 54h-330q-39 0 -93 -54q-53 -55 -69 -81t-16 -51v-727q0 -24 14 -48t60 -69t66 -56t38 -12h330q42 1 95 55t68 80t15 52zM938 246q0 -57 -20 -87t-64 -78q-45 -48 -82 -71t-80 -22h-344q-41 0 -78 23t-84 71t-64 77
q-17 28 -18 87v723q0 53 18 83t65 80q46 50 81 74t80 23h344q47 1 82 -23t80 -73q44 -49 64 -81t20 -83v-723z" />
    <glyph glyph-name="afii10033" unicode="&#x41f;" horiz-adv-x="1116" 
d="M887 0h-74v1145h-637v-1145h-74v1217h785v-1217z" />
    <glyph glyph-name="afii10034" unicode="&#x420;" horiz-adv-x="1046" 
d="M805 805v170q0 27 -8 45q-41 78 -105 113q-23 12 -47 12h-469v-502h469q47 0 94 45q46 44 56 66t10 51zM879 803q0 -53 -27 -94q-31 -55 -88 -97t-117 -41h-471v-571h-74v1217h545q59 0 105 -35q20 -14 55 -52t53 -68q18 -28 19 -83v-176z" />
    <glyph glyph-name="afii10035" unicode="&#x421;" horiz-adv-x="1058" 
d="M348 -12q-77 0 -162 93q-44 48 -64 78t-20 85v727q0 53 20 84t65 80q46 49 80 71t79 23h291q41 0 90 -31q82 -55 154 -180l-72 -23q-25 45 -78 103t-100 59h-281q-41 0 -92 -53q-50 -54 -66 -80t-16 -57v-723q0 -44 58 -102t79 -70q22 -12 41 -13h279q45 -1 96 59t76 101
l76 -20q-72 -125 -154 -181q-49 -31 -90 -30h-289z" />
    <glyph glyph-name="afii10036" unicode="&#x422;" horiz-adv-x="929" 
d="M786 1145h-356v-1145h-74v1145h-356v72h786v-72z" />
    <glyph glyph-name="afii10037" unicode="&#x423;" horiz-adv-x="870" 
d="M793 1217l-471 -1217h-78l129 336h-72l-326 881h78l301 -809h45l316 809h78z" />
    <glyph glyph-name="afii10038" unicode="&#x424;" horiz-adv-x="1183" 
d="M903 246v725q0 27 -14 53t-68 79q-54 54 -96 54h-143v-1098h143q42 1 95 55q52 54 68 80t15 52zM514 59v1098h-160q-41 0 -94 -54q-52 -55 -68 -81t-16 -51v-727q0 -24 14 -48t60 -69t66 -56t38 -12h160zM977 246q1 -57 -19 -87t-65 -78t-82 -71t-80 -22h-149v-178h-68
v178h-168q-41 0 -78 23t-84 71t-64 77q-17 28 -18 87v723q0 53 18 83t65 80q46 50 81 74t80 23h168v157h68v-157h149q47 1 82 -23t80 -73t65 -81t19 -83v-723z" />
    <glyph glyph-name="afii10039" unicode="&#x425;" horiz-adv-x="960" 
d="M823 1217l-368 -603l379 -614h-82l-336 549l-336 -549h-82l377 614l-367 603h80l328 -537l327 537h80z" />
    <glyph glyph-name="afii10040" unicode="&#x426;" horiz-adv-x="1116" 
d="M102 0v1217h74v-1145h606v1145h74v-1145h78l-27 -248h-76l21 176h-750z" />
    <glyph glyph-name="afii10041" unicode="&#x427;" horiz-adv-x="1046" 
d="M805 643v574h74v-1217h-74v571h-471q-63 0 -105 33q-75 62 -101 104t-26 95v414h74v-412q0 -29 10 -51t56 -66q46 -45 94 -45h469z" />
    <glyph glyph-name="afii10042" unicode="&#x428;" horiz-adv-x="1116" 
d="M530 1217v-1145h283v1145h74v-1217h-785v1217h74v-1145h281v1145h73z" />
    <glyph glyph-name="afii10043" unicode="&#x429;" horiz-adv-x="1116" 
d="M530 1217v-1145h283v1145h74v-1145h96l-27 -248h-75l20 176h-799v1217h74v-1145h281v1145h73z" />
    <glyph glyph-name="afii10044" unicode="&#x42a;" horiz-adv-x="1107" 
d="M866 242v170q0 28 -10 50t-57 66t-92 45h-469v-501h469q27 0 47 12q63 35 104 113q8 18 8 45zM940 414v-176q0 -55 -18 -83t-53 -66q-37 -37 -69 -63t-91 -26h-545v1147h-246v67l320 3v-572h471q63 0 104 -33q75 -63 101 -104t26 -94z" />
    <glyph glyph-name="afii10045" unicode="&#x42b;" horiz-adv-x="1404" 
d="M1176 0h-74v1217h74v-1217zM805 242v170q0 28 -10 50t-57 66t-93 45h-469v-501h469q27 0 47 12q63 35 105 113q8 18 8 45zM879 414v-176q1 -55 -17 -83t-54 -66q-36 -37 -68 -63t-93 -26h-545v1217h74v-572h471q63 0 105 -33q76 -63 102 -104t25 -94z" />
    <glyph glyph-name="afii10046" unicode="&#x42c;" horiz-adv-x="1046" 
d="M805 242v170q0 28 -10 50t-57 66t-93 45h-469v-501h469q27 0 47 12q63 35 105 113q8 18 8 45zM879 414v-176q1 -55 -17 -83t-54 -66q-36 -37 -68 -63t-93 -26h-545v1217h74v-572h471q63 0 105 -33q76 -63 102 -104t25 -94z" />
    <glyph glyph-name="afii10047" unicode="&#x42d;" horiz-adv-x="1058" 
d="M807 588h-492v71h492v308q0 31 -15 57t-67 80q-52 53 -92 53h-281q-24 0 -48 -13q-24 -12 -66 -60t-62 -89l-74 23q72 125 154 180q49 31 90 31h291q43 -1 78 -23t81 -71t66 -80t19 -84v-727q1 -55 -19 -85t-65 -78t-82 -71t-80 -22h-289q-41 0 -90 30q-82 55 -154 181
l76 20q25 -41 76 -99t96 -61h279q40 0 109 72t69 113v344z" />
    <glyph glyph-name="afii10048" unicode="&#x42e;" horiz-adv-x="1433" 
d="M1155 246v725q0 27 -14 53t-69 79q-55 54 -95 54h-289q-41 0 -94 -54q-52 -55 -68 -81t-16 -51v-727q0 -24 14 -48t60 -69t66 -56q19 -11 38 -12h289q42 1 95 55q52 54 68 80t15 52zM1229 246q1 -57 -19 -87t-65 -78t-82 -71t-80 -22h-303q-41 0 -78 23t-84 71t-64 77
q-17 28 -18 87v342h-260v-588h-74v1217h74v-558h260v310q0 53 18 83t65 80q46 50 81 74t80 23h303q47 1 82 -23t80 -73t65 -81t19 -83v-723z" />
    <glyph glyph-name="afii10049" unicode="&#x42f;" horiz-adv-x="1114" 
d="M180 975v-170q0 -29 10 -51t56 -66q46 -45 94 -45h469v502h-469q-25 0 -47 -12q-63 -35 -105 -113q-8 -18 -8 -45zM106 803v176q0 55 27 96q8 14 44 52q37 38 69 64t92 26h545v-1217h-74v571h-338l-328 -571h-84l328 571h-49q-63 0 -105 33q-75 62 -101 104t-26 95z" />
    <glyph glyph-name="afii10065" unicode="&#x430;" horiz-adv-x="952" 
d="M674 432h-400q-31 0 -51 -12q-61 -37 -94 -105q-8 -16 -8 -45v-49q0 -27 8 -43q35 -70 98 -108q20 -12 54 -13h190q18 0 39 11q123 65 164 141v223zM276 -10q-115 0 -198 133q-27 39 -27 100v43q0 111 113 197q47 37 112 37h398v155q0 29 -10 51t-42 57q-32 34 -54 47
t-52 13h-215q-23 0 -49 -14t-90 -100l-68 26q60 90 104 123t109 33h209q118 0 203 -133q25 -35 24 -103v-503l21 -152h-70l-16 115q-38 -49 -100 -87t-101 -38h-201z" />
    <glyph glyph-name="afii10066" unicode="&#x431;" horiz-adv-x="948" 
d="M524 57q25 0 47 13q66 37 105 110q8 16 8 47v426q0 31 -8 47q-41 78 -103 113q-18 10 -47 10h-174q-23 0 -39 -8q-143 -80 -170 -151v-437q1 -33 11 -55t43 -54q33 -34 55 -47t51 -14h221zM143 1008v-246q18 33 87 81t116 48h180q68 0 109 -32t92 -101q27 -39 27 -99
v-436q0 -107 -115 -196q-47 -37 -113 -37h-225q-68 0 -116 38q-113 89 -111 197v783q0 55 30 100q79 121 197 121h229l-20 -66h-209q-35 0 -53 -12q-63 -39 -98 -104q-7 -14 -7 -39z" />
    <glyph glyph-name="afii10067" unicode="&#x432;" horiz-adv-x="940" 
d="M139 475h385q25 0 47 12q61 37 97 99q8 16 8 37v41q0 31 -6 43q-23 45 -103 94q-23 12 -47 12h-381v-338zM680 207v51q0 23 -6 35q-39 63 -103 102q-25 12 -47 13h-385v-351h385q25 0 47 13q80 49 103 94q6 12 6 43zM745 659v-30q-1 -55 -27 -95t-81 -88l-6 -4q4 -2 6 -4
q113 -88 113 -184v-43q0 -67 -24 -101t-79 -77t-121 -43h-456v891h452q66 0 121 -43t79 -78t23 -101z" />
    <glyph glyph-name="afii10068" unicode="&#x433;" horiz-adv-x="753" 
d="M659 813h-497v-813h-70v881h567v-68z" />
    <glyph glyph-name="afii10069" unicode="&#x434;" horiz-adv-x="960" 
d="M682 68v745h-346l-96 -584q-10 -59 -28 -90t-65 -71h535zM29 0v-172h-70v240h55q41 0 97 59q55 59 59 106l104 648h478v-813h84l-31 -244h-72l21 176h-725z" />
    <glyph glyph-name="afii10070" unicode="&#x435;" horiz-adv-x="948" 
d="M694 471v182q0 35 -9 55t-42 55q-33 34 -55 47t-51 13h-228q-48 0 -92 -47q-45 -46 -55 -68t-10 -55v-182h542zM764 403h-612v-174q0 -33 6 -45q39 -76 106 -116q18 -10 45 -11h232q29 0 61 20t86 97l66 -27q-56 -85 -102 -121t-111 -36h-230q-67 0 -115 38
q-114 91 -114 197v430q0 107 115 199q47 37 114 37h226q67 0 115 -38q112 -89 112 -198v-252z" />
    <glyph glyph-name="afii10072" unicode="&#x436;" horiz-adv-x="1226" 
d="M578 432v-432h-70v432h-49l-422 -432h-98l458 467l-422 414h93l393 -383h47v383h70v-383h47l393 383h92l-422 -414l459 -467h-98l-422 432h-49z" />
    <glyph glyph-name="afii10073" unicode="&#x437;" horiz-adv-x="925" 
d="M512 57q30 -1 52 13t54 48t44 55q10 21 10 54v27q-4 27 -6 33q-33 63 -105 108q-25 12 -47 13h-262v67h262q27 0 47 12q70 43 103 109q8 16 8 33v22q0 33 -11 55t-43 57q-32 36 -53 48q-22 12 -51 12h-233q-79 0 -148 -114l-67 24q41 68 102 121q47 37 113 37h233
q68 0 116 -38q113 -89 111 -198v-26q0 -91 -112 -185q-4 -4 -6 -4q4 -4 6 -4q114 -88 112 -182v-29q1 -67 -31 -113q-83 -123 -196 -122h-240q-66 0 -114 38t-99 119l70 25q65 -112 145 -115h236z" />
    <glyph glyph-name="afii10074" unicode="&#x438;" horiz-adv-x="960" 
d="M162 881v-785l504 785h90v-881h-70v782l-504 -782h-90v881h70z" />
    <glyph glyph-name="afii10075" unicode="&#x439;" horiz-adv-x="960" 
d="M551 1262h65q0 -80 -55 -134t-133 -55q-78 0 -133 54t-55 135l69 -2q0 -58 33 -92t86 -34t88 36q35 35 35 92zM162 881v-785l504 785h90v-881h-70v782l-504 -782h-90v881h70z" />
    <glyph glyph-name="afii10076" unicode="&#x43a;" horiz-adv-x="821" 
d="M162 432v-432h-70v881h70v-383h37l413 383h93l-443 -414l479 -467h-98l-442 432h-39z" />
    <glyph glyph-name="afii10077" unicode="&#x43b;" horiz-adv-x="987" 
d="M238 217q0 -67 -29 -111q-79 -119 -195 -118h-47v67h39q47 4 57 11q61 35 99 104q6 12 6 47v664h614v-881h-69v813h-475v-596z" />
    <glyph glyph-name="afii10078" unicode="&#x43c;" horiz-adv-x="1046" 
d="M842 881v-881h-70v780l-280 -553h-54l-276 547v-774h-70v881h88l285 -555l287 555h90z" />
    <glyph glyph-name="afii10079" unicode="&#x43d;" horiz-adv-x="950" 
d="M162 881v-389h514v389h69v-881h-69v424h-514v-424h-70v881h70z" />
    <glyph glyph-name="afii10080" unicode="&#x43e;" 
d="M682 225v432q0 31 -6 45q-35 68 -107 111q-18 10 -47 10h-223q-29 0 -47 -10q-70 -41 -105 -111q-6 -12 -6 -45v-432q0 -33 10 -53q9 -20 43 -54t56 -47t51 -14h223q29 0 47 11q68 41 105 112q6 14 6 45zM752 655v-430q0 -67 -32 -113q-84 -122 -196 -122h-225
q-68 0 -116 38q-113 89 -111 197v430q0 110 112 199q47 37 115 37h225q68 0 116 -38q112 -89 112 -198z" />
    <glyph glyph-name="afii10081" unicode="&#x43f;" horiz-adv-x="950" 
d="M676 813h-514v-813h-70v881h653v-881h-69v813z" />
    <glyph glyph-name="afii10082" unicode="&#x440;" horiz-adv-x="958" 
d="M705 227v426q0 31 -9 47q-41 76 -102 111q-23 12 -47 12h-174q-47 0 -118 -60q-72 -60 -91 -101v-445q27 -72 170 -151q16 -8 39 -9h176q80 0 147 123q9 16 9 47zM547 891q114 0 201 -133q26 -40 26 -101v-436q0 -59 -26 -98q-50 -69 -92 -101t-109 -32h-180
q-49 0 -93 30q-92 63 -110 99v-455h-70v1079l-16 138h69l15 -117q115 127 205 127h180z" />
    <glyph glyph-name="afii10083" unicode="&#x441;" 
d="M541 57q74 0 143 115l68 -25q-56 -85 -102 -121t-111 -36h-230q-67 0 -115 38q-113 91 -112 197v430q0 111 113 199q47 37 114 37h223q66 0 117 -41t99 -117l-70 -22q-66 112 -146 112h-225q-29 0 -47 -10q-66 -39 -102 -113q-6 -12 -6 -45v-430q0 -33 10 -53t43 -54
t55 -47t51 -14h230z" />
    <glyph glyph-name="afii10084" unicode="&#x442;" horiz-adv-x="798" 
d="M696 881v-68h-313v-813h-70v813h-313v68h696z" />
    <glyph glyph-name="afii10085" unicode="&#x443;" horiz-adv-x="819" 
d="M692 881l-379 -1217h-77l112 336h-53l-277 881h76l248 -809h29l247 809h74z" />
    <glyph glyph-name="afii10086" unicode="&#x444;" horiz-adv-x="956" 
d="M702 225v432q0 31 -6 45q-35 68 -106 111q-18 10 -47 10h-86v-766h88q29 0 47 11q68 41 104 112q6 14 6 45zM389 57v766h-90q-29 0 -47 -10q-70 -41 -105 -111q-6 -12 -6 -45v-432q0 -33 10 -53t43 -54q34 -34 56 -47t51 -14h88zM772 655v-430q0 -110 -113 -198
q-47 -37 -114 -37h-88v-324h-68v324h-90q-68 0 -116 38q-113 89 -111 197v430q0 110 112 199q47 37 115 37h90v328h68v-328h88q67 0 115 -38q112 -89 112 -198z" />
    <glyph glyph-name="afii10087" unicode="&#x445;" horiz-adv-x="854" 
d="M694 0h-84l-239 395l-236 -395h-84l279 453l-267 428h84l226 -377l219 377h86l-264 -428z" />
    <glyph glyph-name="afii10088" unicode="&#x446;" horiz-adv-x="950" 
d="M92 0v881h70v-813h504v813h69v-813h90l-30 -244h-72l20 176h-651z" />
    <glyph glyph-name="afii10089" unicode="&#x447;" horiz-adv-x="952" 
d="M692 449v432h70v-881h-70v381h-397q-116 0 -199 131q-27 39 -26 102v267h69v-267q0 -29 8 -45q33 -66 103 -108q23 -12 47 -12h395z" />
    <glyph glyph-name="afii10090" unicode="&#x448;" horiz-adv-x="1165" 
d="M565 881v-813h326v813h70v-881h-869v881h70v-813h334v813h69z" />
    <glyph glyph-name="afii10091" unicode="&#x449;" horiz-adv-x="1175" 
d="M92 0v881h70v-813h334v813h69v-813h326v813h70v-813h90l-31 -244h-72l21 176h-877z" />
    <glyph glyph-name="afii10092" unicode="&#x44a;" horiz-adv-x="964" 
d="M731 233v43q0 29 -8 46q-33 66 -102 108q-23 12 -48 12h-395v-374h395q25 0 48 12q68 41 102 110q8 16 8 43zM-61 881h239v-371h397q116 0 199 -131q27 -39 27 -103v-43q0 -61 -32 -110q-80 -123 -194 -123h-466v813h-170v68z" />
    <glyph glyph-name="afii10093" unicode="&#x44b;" horiz-adv-x="1196" 
d="M922 0v881h69v-881h-69zM707 276q0 29 -9 46q-33 66 -102 108q-23 12 -47 12h-395v-374h395q24 0 47 12q68 41 102 110q8 16 9 43v43zM84 881h70v-371h397q116 0 199 -131q27 -39 26 -103v-43q0 -61 -32 -110q-79 -123 -193 -123h-467v881z" />
    <glyph glyph-name="afii10094" unicode="&#x44c;" horiz-adv-x="940" 
d="M707 276q0 29 -9 46q-33 66 -102 108q-23 12 -47 12h-395v-374h395q24 0 47 12q68 41 102 110q8 16 9 43v43zM84 881h70v-371h397q116 0 199 -131q27 -39 26 -103v-43q0 -61 -32 -110q-79 -123 -193 -123h-467v881z" />
    <glyph glyph-name="afii10095" unicode="&#x44d;" horiz-adv-x="915" 
d="M502 57q30 -1 52 13t54 48t43 54q10 20 11 53v183h-400v67h400v180q0 33 -7 45q-37 74 -102 113q-18 10 -47 10h-225q-79 0 -146 -112l-69 22q47 76 98 117t117 41h223q68 0 116 -38q113 -91 111 -198v-430q0 -110 -113 -198q-47 -37 -114 -37h-230q-66 0 -112 36
t-101 121l68 25q67 -112 143 -115h230z" />
    <glyph glyph-name="afii10096" unicode="&#x44e;" horiz-adv-x="1222" 
d="M969 225v432q0 31 -6 45q-35 68 -107 111q-18 10 -47 10h-223q-29 0 -47 -10q-70 -41 -105 -111q-6 -12 -6 -45v-432q0 -33 10 -53t43 -54t55 -47t52 -14h223q29 0 47 11q68 41 105 112q6 14 6 45zM1038 655v-430q0 -67 -32 -113q-83 -122 -195 -122h-225q-68 0 -116 38
q-112 89 -112 197v199h-196v-424h-70v881h70v-389h196v163q0 109 113 199q47 37 115 37h225q68 0 116 -38q111 -88 111 -198z" />
    <glyph glyph-name="afii10097" unicode="&#x44f;" horiz-adv-x="952" 
d="M141 614q0 -29 9 -45q35 -68 100 -108q23 -12 47 -12h395v364h-395q-27 0 -47 -12q-66 -39 -100 -111q-8 -16 -9 -43v-33zM762 0h-70v381h-336l-260 -381h-88l273 381q-106 7 -185 131q-27 39 -26 102v33q0 61 32 111q79 124 193 123h467v-881z" />
    <glyph glyph-name="afii10071" unicode="&#x451;" horiz-adv-x="948" 
d="M332 1133h-111v114h111v-114zM606 1133h-110v114h110v-114zM694 471v182q0 35 -9 55t-42 55q-33 34 -55 47t-51 13h-228q-48 0 -92 -47q-45 -46 -55 -68t-10 -55v-182h542zM764 403h-612v-174q0 -33 6 -45q39 -76 106 -116q18 -10 45 -11h232q29 0 61 20t86 97l66 -27
q-56 -85 -102 -121t-111 -36h-230q-67 0 -115 38q-114 91 -114 197v430q0 107 115 199q47 37 114 37h226q67 0 115 -38q112 -89 112 -198v-252z" />
    <glyph glyph-name="afii10099" unicode="&#x452;" horiz-adv-x="970" 
d="M463 1030h-303v-266q14 27 110 98q43 31 92 31h166q68 0 114 -34t87 -99q27 -35 27 -101v-776q0 -67 -29 -111q-78 -118 -195 -118h-108v67h106q37 0 50 9q59 33 100 110q6 12 6 47v768q0 35 -4 47q-16 29 -48 64t-54 47t-54 12h-157q-25 0 -41 -8q-143 -80 -168 -151
v-666h-70v1030h-115v68h115v121h70v-121h303v-68z" />
    <glyph glyph-name="afii10100" unicode="&#x453;" horiz-adv-x="743" 
d="M532 1317l-217 -275l-61 27l195 248h83zM649 813h-497v-813h-70v881h567v-68z" />
    <glyph glyph-name="afii10101" unicode="&#x454;" 
d="M541 57q74 0 143 115l68 -25q-56 -85 -102 -121t-111 -36h-230q-67 0 -115 38q-113 91 -112 197v430q0 111 113 199q47 37 114 37h223q66 0 117 -41t99 -117l-70 -22q-66 112 -146 112h-225q-29 0 -47 -10q-66 -39 -102 -113q-6 -12 -6 -45v-180h399v-67h-399v-183
q0 -33 10 -53t43 -54t55 -47t51 -14h230z" />
    <glyph glyph-name="afii10102" unicode="&#x455;" horiz-adv-x="915" 
d="M506 823h-217q-33 0 -51 -10q-63 -39 -95 -100q-6 -12 -6 -51v-64q0 -43 29 -72t67 -32l338 -25q72 -4 116 -54t44 -120v-78q0 -108 -106 -188q-49 -39 -113 -39h-246q-66 0 -116 40t-95 117l66 27q47 -80 94 -106q18 -10 47 -11h248q29 0 47 11q68 39 98 102q6 12 7 49
v78q0 43 -29 72t-68 32l-338 25q-71 4 -115 53t-44 119v66q0 107 106 190q47 37 113 37h213q66 0 112 -36t101 -122l-64 -24q-66 114 -143 114z" />
    <glyph glyph-name="afii10103" unicode="&#x456;" horiz-adv-x="391" 
d="M190 1133h-110v114h110v-114zM170 0h-70v881h70v-881z" />
    <glyph glyph-name="afii10104" unicode="&#x457;" horiz-adv-x="391" 
d="M53 1133h-110v114h110v-114zM328 1133h-111v114h111v-114zM170 0h-70v881h70v-881z" />
    <glyph glyph-name="afii10105" unicode="&#x458;" horiz-adv-x="409" 
d="M209 1133h-111v114h111v-114zM188 -117q0 -67 -28 -111q-77 -118 -195 -118h-108v67h106q37 0 49 9q59 33 101 110q6 12 6 47v994h69v-998z" />
    <glyph glyph-name="afii10106" unicode="&#x459;" horiz-adv-x="1466" 
d="M1233 233v43q0 29 -8 46q-33 66 -103 108q-20 12 -47 12h-334v-374h334q27 0 47 12q68 41 103 110q8 16 8 43zM238 217q0 -67 -29 -111q-79 -119 -195 -118h-47v67h45q33 0 49 11q61 35 101 108q6 12 6 47v660h573v-371h336q116 0 199 -131q27 -39 27 -103v-43
q0 -61 -32 -110q-80 -123 -194 -123h-405v813h-434v-596z" />
    <glyph glyph-name="afii10107" unicode="&#x45a;" horiz-adv-x="1445" 
d="M1212 233v43q0 29 -8 46q-33 66 -102 108q-23 12 -47 12h-334v-374h334q27 0 47 12q68 41 102 110q8 16 8 43zM162 881v-371h489v371h70v-371h336q115 0 198 -131q27 -39 27 -103v-43q0 -61 -32 -110q-80 -123 -193 -123h-406v442h-489v-442h-70v881h70z" />
    <glyph glyph-name="afii10108" unicode="&#x45b;" horiz-adv-x="960" 
d="M461 1030h-303v-266q14 27 110 98q43 31 92 31h166q68 0 114 -34t87 -99q27 -35 27 -101v-659h-70v655q0 35 -4 47q-16 29 -48 64t-54 47t-54 12h-157q-25 0 -41 -8q-143 -80 -168 -151v-666h-70v1030h-115v68h115v121h70v-121h303v-68z" />
    <glyph glyph-name="afii10109" unicode="&#x45c;" horiz-adv-x="811" 
d="M565 1317l-217 -275l-61 27l194 248h84zM162 432v-432h-70v881h70v-383h37l413 383h93l-443 -414l479 -467h-98l-442 432h-39z" />
    <glyph glyph-name="afii10110" unicode="&#x45e;" horiz-adv-x="819" 
d="M481 1247h66q0 -80 -55 -134q-56 -54 -134 -54t-133 54t-55 134l70 -2q0 -57 32 -91t86 -34q53 0 88 35t35 92zM692 881l-379 -1217h-77l112 336h-53l-277 881h76l248 -809h29l247 809h74z" />
    <glyph glyph-name="afii10193" unicode="&#x45f;" horiz-adv-x="950" 
d="M162 68h514v813h69v-881h-292v-182h-74v182h-287v881h70v-813z" />
    <glyph glyph-name="afii10050" unicode="&#x490;" horiz-adv-x="911" 
d="M102 1217h592v169h68v-241h-586v-1145h-74v1217z" />
    <glyph glyph-name="afii10098" unicode="&#x491;" horiz-adv-x="753" 
d="M659 813h-497v-813h-70v881h500v338h67v-406z" />
    <glyph glyph-name="endash" unicode="&#x2013;" horiz-adv-x="921" 
d="M707 473h-625v66h625v-66z" />
    <glyph glyph-name="emdash" unicode="&#x2014;" horiz-adv-x="1110" 
d="M895 475h-813v64h813v-64z" />
    <glyph glyph-name="quoteleft" unicode="&#x2018;" horiz-adv-x="446" 
d="M326 1292l-111 -309h-82l123 338z" />
    <glyph glyph-name="quoteright" unicode="&#x2019;" horiz-adv-x="385" 
d="M72 1012l110 309h82l-123 -338z" />
    <glyph glyph-name="quotesinglbase" unicode="&#x201a;" horiz-adv-x="399" 
d="M279 131l-111 -309h-82l123 338z" />
    <glyph glyph-name="quotedblleft" unicode="&#x201c;" horiz-adv-x="688" 
d="M375 1012l110 309h82l-123 -338zM133 1012l111 309h82l-123 -338z" />
    <glyph glyph-name="quotedblright" unicode="&#x201d;" horiz-adv-x="626" 
d="M264 1292l-110 -309h-82l123 338zM506 1292l-111 -309h-82l123 338z" />
    <glyph glyph-name="quotedblbase" unicode="&#x201e;" horiz-adv-x="641" 
d="M279 131l-111 -309h-82l123 338zM520 131l-110 -309h-82l123 338z" />
    <glyph glyph-name="daggerdbl" unicode="&#x2021;" horiz-adv-x="681" 
d="M121 430h143v354h-141v68h141v362h70v-362h143v-68h-143v-354h141v-68h-141v-362h-70v362h-143v68z" />
    <glyph glyph-name="perthousand" unicode="&#x2030;" horiz-adv-x="1869" 
d="M807 174q0 -23 6 -36t35 -46t63 -35h140q30 0 61 34t37 47t6 36v238q0 24 -6 36t-36 46t-62 34h-140q-32 0 -62 -34t-36 -47t-6 -35v-238zM741 420q0 79 84 145q35 29 82 29h148q47 0 79 -26t68 -74q18 -27 19 -74v-254q0 -77 -84 -146q-35 -29 -82 -28h-148
q-47 0 -79 26t-68 74q-18 27 -19 74v254zM137 807q0 -23 6 -36t36 -47t63 -34h139q33 0 63 34t36 47t5 36v237q0 23 -6 36t-36 47t-62 34h-139q-33 0 -63 -34t-36 -47t-6 -36v-237zM72 799v254q0 47 18 73q37 49 69 75t79 26h147q47 0 79 -26t68 -75q18 -27 19 -73v-254
q0 -77 -84 -146q-35 -29 -82 -28h-147q-47 -1 -79 25t-69 75q-18 27 -18 74zM1399 174q0 -23 6 -36t35 -46t63 -35h139q31 0 62 34t37 47t6 36v238q0 24 -6 36t-36 46t-63 34h-139q-33 0 -63 -34q-29 -34 -35 -47t-6 -35v-238zM1333 420q0 79 84 145q35 29 82 29h148
q47 0 79 -26t68 -74q18 -27 18 -74v-254q0 -47 -18 -74q-36 -49 -68 -75t-79 -25h-148q-47 0 -79 26t-68 74q-18 27 -19 74v254zM1001 1229l-622 -1229h-76l625 1229h73z" />
    <glyph glyph-name="guilsinglleft" unicode="&#x2039;" horiz-adv-x="763" 
d="M246 508l254 -291l-76 -24l-274 313l274 317l78 -26z" />
    <glyph glyph-name="guilsinglright" unicode="&#x203a;" horiz-adv-x="763" 
d="M152 217l254 291l-256 289l77 26l275 -317l-275 -313z" />
    <glyph glyph-name="Euro" unicode="&#x20ac;" horiz-adv-x="1171" 
d="M418 -12q-77 0 -162 93q-44 48 -64 78t-20 85v215h-88v67h88v160h-88v68h88v215q0 55 20 85t65 79q46 49 82 71t77 23h291q41 0 90 -31q80 -51 153 -180l-73 -23q-17 41 -61 88t-68 61t-48 13h-282q-41 0 -92 -53q-50 -54 -65 -80t-15 -57v-211h477v-68h-477v-160h477
v-67h-477v-215q0 -44 58 -102t80 -70t42 -13h276q45 -1 96 59q52 60 76 101l76 -20q-74 -129 -153 -181q-49 -31 -90 -30h-289z" />
    <glyph glyph-name="afii61352" unicode="&#x2116;" horiz-adv-x="1763" 
d="M1493 807v237q0 64 -76 109q-16 8 -33 8h-131q-18 0 -32 -8q-76 -45 -76 -109v-237q0 -23 4 -31q25 -51 72 -78q14 -8 32 -8h131q16 0 33 8q47 27 72 78q4 11 4 31zM1559 797q1 -47 -13 -67q-74 -107 -153 -105h-148q-45 1 -85 31t-62 69q-18 25 -19 72v256q0 49 19 73
q22 39 62 70t85 31h148q45 0 84 -30t63 -71q18 -25 19 -73v-256zM877 0h-142l-538 1149h-21v-1149h-74v1217h142l540 -1147h19v1147h74v-1217z" />
    <glyph glyph-name="trademark" unicode="&#x2122;" horiz-adv-x="1247" 
d="M455 1157h-140v-508h-61v508h-154v57h355v-57zM1042 649h-61v510h-10l-150 -299h-45l-137 297h-10v-508h-62v565h111l121 -266l129 266h114v-565z" />
    <glyph glyph-name="product" unicode="&#x220f;" horiz-adv-x="1116" 
d="M102 1219h785v-1217h-74v1145h-637v-1145h-74v1217z" />
    <glyph glyph-name="lozenge" unicode="&#x25ca;" horiz-adv-x="1271" 
d="M621 909h-211v-364h221q25 0 47 12q61 37 94 105q8 16 8 47v34q0 27 -8 43q-32 68 -104 111q-23 12 -47 12zM410 240h-70v737h283q115 0 198 -133q27 -39 27 -101v-32q0 -61 -37 -118q-75 -116 -190 -116h-211v-237zM1008 961q0 46 -58 108q-58 63 -80 75t-47 13h-489
q-24 0 -46 -12q-22 -13 -64 -59t-56 -72t-14 -53v-707q0 -51 57 -110q57 -58 79 -70t44 -13h487q23 1 45 13t81 69q58 57 61 111v707zM1077 250q0 -53 -20 -84q-19 -31 -65 -79q-46 -47 -82 -71t-83 -24h-499q-43 0 -80 24t-82 71q-46 48 -64 78t-18 85v713q0 55 18 86
t64 81t84 74q37 23 80 23h497q80 0 164 -95q45 -50 66 -82t20 -85v-715z" />
    <glyph glyph-name="fi" unicode="&#xfb01;" horiz-adv-x="1011" 
d="M834 1133h-111v114h111v-114zM813 0h-70v881h70v-881zM512 813h-266v-813h-70v813h-145v68h145v127q0 55 30 100q81 121 197 121h144v-66h-144q-35 0 -53 -12q-63 -39 -98 -104q-6 -14 -6 -39v-127h266v-68z" />
    <glyph glyph-name="fl" unicode="&#xfb02;" horiz-adv-x="985" 
d="M731 121v1096h70v-1076l16 -141h-69q-17 85 -17 121zM512 813h-266v-813h-70v813h-145v68h145v127q0 55 30 100q81 121 197 121h144v-66h-144q-35 0 -53 -12q-63 -39 -98 -104q-6 -14 -6 -39v-127h266v-68z" />
  </font>
</defs>
</svg>
